<svg xmlns="http://www.w3.org/2000/svg" xmlns:xlink="http://www.w3.org/1999/xlink" width="1200" zoomAndPan="magnify" viewBox="0 0 900 209.999996" height="280" preserveAspectRatio="xMidYMid meet" version="1.0"><defs><g/></defs><rect x="-90" width="1080" fill="#ffffff" y="-21" height="251.999995" fill-opacity="1"/><rect x="-90" width="1080" fill="#ffffff" y="-21" height="251.999995" fill-opacity="1"/><g fill="#565656" fill-opacity="1"><g transform="translate(30.256524, 167.50109)"><g><path d="M 125.15625 15.75 C 126.425781 16.03125 126.847656 16.671875 126.421875 17.671875 C 125.859375 18.660156 125.289062 19.367188 124.71875 19.796875 C 121.03125 21.359375 117.484375 21.070312 114.078125 18.9375 C 112.097656 17.664062 110.253906 15.679688 108.546875 12.984375 C 106.703125 10.003906 105.285156 6.316406 104.296875 1.921875 C 103.585938 -1.054688 102.804688 -5.882812 101.953125 -12.5625 C 100.535156 -23.625 100.039062 -33.769531 100.46875 -43 L 100.890625 -54.0625 C 101.742188 -71.09375 102.3125 -84.21875 102.59375 -93.4375 C 102.875 -97.832031 102.660156 -102.160156 101.953125 -106.421875 C 101.097656 -111.390625 99.785156 -114.226562 98.015625 -114.9375 C 96.242188 -115.644531 93.507812 -115.003906 89.8125 -113.015625 C 87.125 -111.742188 84.429688 -109.757812 81.734375 -107.0625 C 69.816406 -97.550781 59.382812 -85.488281 50.4375 -70.875 C 50.4375 -70.445312 50.472656 -69.945312 50.546875 -69.375 C 50.617188 -68.8125 50.65625 -68.460938 50.65625 -68.328125 C 51.226562 -63.640625 51.972656 -58.597656 52.890625 -53.203125 C 53.816406 -47.816406 54.488281 -43.488281 54.90625 -40.21875 C 55.332031 -36.957031 55.546875 -33.34375 55.546875 -29.375 C 55.546875 -24.125 55.050781 -19.085938 54.0625 -14.265625 C 52.363281 -7.734375 50.09375 -2.410156 47.25 1.703125 C 44.414062 5.960938 40.226562 8.09375 34.6875 8.09375 C 31.851562 7.800781 29.867188 6.519531 28.734375 4.25 C 28.453125 3.6875 27.8125 1.988281 26.8125 -0.84375 C 25.820312 -4.96875 25.328125 -9.367188 25.328125 -14.046875 C 25.328125 -17.171875 25.539062 -20.363281 25.96875 -23.625 C 26.957031 -35.539062 31.425781 -49.304688 39.375 -64.921875 L 38.734375 -68.75 C 38.304688 -71.019531 37.878906 -76.484375 37.453125 -85.140625 L 34.484375 -83.859375 C 13.910156 -73.640625 5.679688 -63.351562 9.796875 -53 C 9.929688 -52.570312 10.28125 -52.035156 10.84375 -51.390625 C 11.414062 -50.753906 11.773438 -50.296875 11.921875 -50.015625 C 11.921875 -49.585938 11.78125 -49.09375 11.5 -48.53125 C 11.207031 -48.25 10.921875 -48.109375 10.640625 -48.109375 C 6.242188 -48.109375 3.335938 -49.878906 1.921875 -53.421875 C 0.640625 -56.546875 0 -59.242188 0 -61.515625 C 0 -66.054688 2.054688 -70.0625 6.171875 -73.53125 C 10.285156 -77.007812 19.367188 -82.226562 33.421875 -89.1875 C 34.265625 -89.46875 35.539062 -90.035156 37.25 -90.890625 C 36.675781 -97.128906 36.890625 -104.289062 37.890625 -112.375 C 38.316406 -117.769531 39.804688 -122.8125 42.359375 -127.5 C 44.335938 -130.90625 47.175781 -133.03125 50.875 -133.875 C 51.15625 -133.875 51.507812 -133.875 51.9375 -133.875 C 52.363281 -133.875 52.820312 -133.875 53.3125 -133.875 C 53.8125 -133.875 54.203125 -133.875 54.484375 -133.875 C 56.046875 -133.875 57.253906 -133.734375 58.109375 -133.453125 C 63.921875 -131.890625 67.394531 -128.203125 68.53125 -122.390625 C 68.675781 -121.679688 68.75 -120.6875 68.75 -119.40625 C 68.46875 -114.863281 67.828125 -111.242188 66.828125 -108.546875 C 65.128906 -103.296875 59.097656 -97.335938 48.734375 -90.671875 L 49.375 -81.9375 C 63.707031 -103.363281 77.898438 -115.851562 91.953125 -119.40625 C 95.492188 -120.394531 98.929688 -120.179688 102.265625 -118.765625 C 105.597656 -117.347656 108.117188 -115.007812 109.828125 -111.75 C 111.109375 -109.332031 111.957031 -106.773438 112.375 -104.078125 C 113.65625 -96.421875 114.082031 -87.835938 113.65625 -78.328125 L 111.953125 -54.484375 C 111.953125 -35.472656 112.09375 -23.203125 112.375 -17.671875 C 112.945312 -9.441406 114.082031 -2.488281 115.78125 3.1875 C 116.632812 5.75 117.703125 8.304688 118.984375 10.859375 C 120.253906 13.554688 122.3125 15.1875 125.15625 15.75 Z M 44.703125 -24.265625 C 44.703125 -26.671875 43.566406 -36.25 41.296875 -53 C 35.191406 -38.519531 32.351562 -24.472656 32.78125 -10.859375 C 32.78125 -10.003906 32.847656 -9.078125 32.984375 -8.078125 C 33.128906 -7.085938 33.304688 -5.988281 33.515625 -4.78125 C 33.734375 -3.582031 33.914062 -2.628906 34.0625 -1.921875 C 34.625 0.0664062 35.472656 1.273438 36.609375 1.703125 C 36.890625 1.984375 37.421875 1.804688 38.203125 1.171875 C 38.984375 0.535156 39.515625 -0.132812 39.796875 -0.84375 C 41.929688 -5.382812 43.28125 -9.503906 43.84375 -13.203125 C 44.414062 -18.023438 44.703125 -21.710938 44.703125 -24.265625 Z M 48.109375 -115.78125 C 47.535156 -112.238281 47.601562 -106.207031 48.3125 -97.6875 C 55.695312 -103.507812 59.957031 -109.046875 61.09375 -114.296875 C 61.375 -115.859375 61.375 -118.128906 61.09375 -121.109375 C 60.800781 -122.804688 60.515625 -124.15625 60.234375 -125.15625 C 60.085938 -126 59.445312 -126.988281 58.3125 -128.125 C 57.601562 -129.257812 56.46875 -129.6875 54.90625 -129.40625 C 53.769531 -129.125 53.0625 -128.84375 52.78125 -128.5625 C 50.375 -125.4375 48.816406 -121.175781 48.109375 -115.78125 Z M 48.109375 -115.78125 "/></g></g></g><g fill="#565656" fill-opacity="1"><g transform="translate(158.80423, 167.50109)"><g><path d="M 32.140625 -8.515625 C 27.742188 -4.679688 22.742188 -3.398438 17.140625 -4.671875 C 11.535156 -5.953125 7.664062 -8.9375 5.53125 -13.625 C 2.269531 -20.570312 0.425781 -27.664062 0 -34.90625 L 0 -39.15625 C -0.425781 -50.375 1.273438 -60.023438 5.109375 -68.109375 C 7.097656 -72.222656 9.796875 -75.488281 13.203125 -77.90625 C 17.453125 -80.882812 22.132812 -81.378906 27.25 -79.390625 C 29.09375 -78.679688 30.40625 -77.472656 31.1875 -75.765625 C 31.96875 -74.066406 32.070312 -72.296875 31.5 -70.453125 C 28.800781 -62.078125 23.335938 -56.257812 15.109375 -53 C 12.703125 -52.144531 11.425781 -50.582031 11.28125 -48.3125 C 10.144531 -35.820312 11.707031 -24.753906 15.96875 -15.109375 C 17.519531 -11.566406 19.144531 -9.617188 20.84375 -9.265625 C 22.550781 -8.910156 24.753906 -10.007812 27.453125 -12.5625 C 30.148438 -15.113281 32.847656 -18.445312 35.546875 -22.5625 C 40.796875 -30.226562 45.476562 -38.457031 49.59375 -47.25 C 51.4375 -50.507812 52.710938 -52.640625 53.421875 -53.640625 C 54.128906 -54.910156 55.476562 -55.332031 57.46875 -54.90625 C 58.75 -54.34375 59.242188 -53.707031 58.953125 -53 C 58.816406 -51.863281 58.460938 -50.65625 57.890625 -49.375 C 52.785156 -38.164062 47.179688 -28.019531 41.078125 -18.9375 C 38.242188 -14.820312 35.265625 -11.347656 32.140625 -8.515625 Z M 14.6875 -59.59375 L 15.53125 -59.59375 C 20.363281 -62.851562 23.273438 -66.96875 24.265625 -71.9375 C 24.265625 -72.644531 24.191406 -73.210938 24.046875 -73.640625 C 23.765625 -74.347656 23.410156 -74.773438 22.984375 -74.921875 C 22.421875 -75.203125 21.851562 -75.203125 21.28125 -74.921875 C 17.03125 -71.796875 14.546875 -67.1875 13.828125 -61.09375 C 13.828125 -60.945312 13.972656 -60.660156 14.265625 -60.234375 Z M 14.6875 -59.59375 "/></g></g></g><g fill="#565656" fill-opacity="1"><g transform="translate(209.244299, 167.50109)"><g><path d="M 18.734375 17.671875 C 17.023438 17.523438 15.25 16.390625 13.40625 14.265625 C 11.707031 12.421875 10.078125 9.507812 8.515625 5.53125 C 5.535156 -3.257812 3.40625 -12.195312 2.125 -21.28125 C 0.28125 -33.488281 -0.425781 -43.207031 0 -50.4375 C 0 -68.601562 1.773438 -84.78125 5.328125 -98.96875 C 7.171875 -105.925781 9.863281 -113.019531 13.40625 -120.25 C 15.394531 -123.800781 17.59375 -126.785156 20 -129.203125 C 23.976562 -133.023438 28.804688 -134.191406 34.484375 -132.703125 C 40.160156 -131.210938 43.847656 -127.703125 45.546875 -122.171875 C 46.535156 -119.046875 46.75 -115.710938 46.1875 -112.171875 C 44.769531 -102.941406 41.789062 -93.289062 37.25 -83.21875 C 31.71875 -70.875 25.117188 -59.523438 17.453125 -49.171875 C 17.023438 -48.460938 16.382812 -47.503906 15.53125 -46.296875 C 14.6875 -45.085938 14.117188 -44.195312 13.828125 -43.625 C 13.546875 -43.0625 13.191406 -42.25 12.765625 -41.1875 C 12.335938 -40.125 12.050781 -39.023438 11.90625 -37.890625 C 11.769531 -36.753906 11.703125 -35.40625 11.703125 -33.84375 C 12.273438 -23.476562 14.332031 -12.054688 17.875 0.421875 C 19.4375 5.109375 20.859375 8.160156 22.140625 9.578125 C 22.421875 10.003906 22.953125 10.21875 23.734375 10.21875 C 24.515625 10.21875 25.046875 10.003906 25.328125 9.578125 C 26.179688 8.441406 27.316406 6.597656 28.734375 4.046875 C 32.847656 -4.046875 36.179688 -11.921875 38.734375 -19.578125 C 42.710938 -32.066406 45.765625 -41.363281 47.890625 -47.46875 C 48.316406 -48.882812 49.097656 -50.867188 50.234375 -53.421875 C 50.515625 -53.992188 51.113281 -54.421875 52.03125 -54.703125 C 52.957031 -54.984375 53.773438 -54.984375 54.484375 -54.703125 C 55.617188 -54.128906 56.1875 -53.421875 56.1875 -52.578125 C 56.1875 -52.003906 56.046875 -51.148438 55.765625 -50.015625 C 48.242188 -25.753906 41.644531 -7.59375 35.96875 4.46875 C 34.976562 6.738281 33.488281 9.4375 31.5 12.5625 C 28.800781 16.8125 24.546875 18.515625 18.734375 17.671875 Z M 12.765625 -57.046875 C 12.910156 -56.898438 13.160156 -56.863281 13.515625 -56.9375 C 13.867188 -57.007812 14.117188 -57.113281 14.265625 -57.25 C 14.972656 -57.539062 15.609375 -58.179688 16.171875 -59.171875 C 22.984375 -69.671875 28.519531 -80.597656 32.78125 -91.953125 C 34.90625 -97.628906 36.609375 -103.515625 37.890625 -109.609375 C 38.597656 -112.023438 38.8125 -115.078125 38.53125 -118.765625 C 38.53125 -122.023438 37.25 -124.722656 34.6875 -126.859375 C 34.40625 -127.285156 33.875 -127.53125 33.09375 -127.59375 C 32.3125 -127.664062 31.707031 -127.5625 31.28125 -127.28125 C 29.15625 -126.144531 27.171875 -123.875 25.328125 -120.46875 C 22.347656 -115.644531 19.796875 -109.753906 17.671875 -102.796875 C 14.117188 -90.316406 12.128906 -78.257812 11.703125 -66.625 L 11.703125 -58.3125 C 11.703125 -57.75 12.054688 -57.328125 12.765625 -57.046875 Z M 12.765625 -57.046875 "/></g></g></g><g fill="#565656" fill-opacity="1"><g transform="translate(256.917611, 167.50109)"><g><path d="M 9.359375 22.34375 C 6.804688 21.351562 4.890625 19.722656 3.609375 17.453125 C 2.335938 15.179688 1.984375 12.695312 2.546875 10 C 3.398438 6.3125 4.960938 2.976562 7.234375 0 C 9.929688 -3.550781 12.84375 -7.097656 15.96875 -10.640625 C 17.664062 -12.484375 18.019531 -14.472656 17.03125 -16.609375 C 16.457031 -18.023438 15.316406 -20.789062 13.609375 -24.90625 C 11.910156 -29.019531 10.566406 -32.140625 9.578125 -34.265625 C 6.023438 -42.210938 3.753906 -47.960938 2.765625 -51.515625 C 2.054688 -55.484375 1.703125 -57.820312 1.703125 -58.53125 C 1.554688 -62.925781 2.757812 -66.613281 5.3125 -69.59375 C 7.875 -72.570312 11.351562 -74.347656 15.75 -74.921875 L 18.515625 -74.921875 C 21.640625 -74.921875 24.832031 -74 28.09375 -72.15625 C 30.507812 -70.59375 32.175781 -68.535156 33.09375 -65.984375 C 34.019531 -63.429688 33.984375 -60.945312 32.984375 -58.53125 C 32.566406 -57.394531 31.859375 -56.6875 30.859375 -56.40625 C 29.867188 -56.125 28.875 -56.335938 27.875 -57.046875 C 26.882812 -57.609375 26.390625 -58.316406 26.390625 -59.171875 C 26.390625 -59.597656 26.351562 -60.445312 26.28125 -61.71875 C 26.21875 -63 26.113281 -63.992188 25.96875 -64.703125 C 25.820312 -65.984375 25.179688 -67.257812 24.046875 -68.53125 C 22.773438 -70.238281 21.070312 -70.738281 18.9375 -70.03125 C 14.820312 -68.1875 12.484375 -65.207031 11.921875 -61.09375 C 11.773438 -58.101562 12.128906 -55.117188 12.984375 -52.140625 C 15.816406 -44.203125 19.929688 -35.265625 25.328125 -25.328125 C 25.753906 -24.617188 26.359375 -24.265625 27.140625 -24.265625 C 27.921875 -24.265625 28.59375 -24.617188 29.15625 -25.328125 C 32.84375 -29.441406 37.8125 -36.039062 44.0625 -45.125 C 45.195312 -47.113281 47.039062 -49.953125 49.59375 -53.640625 C 50.15625 -54.484375 51.21875 -54.90625 52.78125 -54.90625 C 53.632812 -54.90625 54.304688 -54.585938 54.796875 -53.953125 C 55.296875 -53.316406 55.40625 -52.644531 55.125 -51.9375 C 52.425781 -46.257812 49.09375 -40.796875 45.125 -35.546875 C 38.3125 -26.890625 34.265625 -21.851562 32.984375 -20.4375 C 30.148438 -17.164062 29.226562 -13.828125 30.21875 -10.421875 C 30.644531 -9.296875 31 -7.523438 31.28125 -5.109375 C 31.570312 -2.691406 31.785156 -1.203125 31.921875 -0.640625 C 32.347656 3.617188 31.78125 7.875 30.21875 12.125 C 28.65625 16.53125 25.816406 19.691406 21.703125 21.609375 C 17.585938 23.523438 13.472656 23.769531 9.359375 22.34375 Z M 15.75 18.09375 C 16.882812 17.238281 17.734375 16.382812 18.296875 15.53125 C 20.003906 12.976562 21 8.863281 21.28125 3.1875 L 19.796875 -2.984375 C 19.796875 -3.117188 19.582031 -3.257812 19.15625 -3.40625 C 18.726562 -3.550781 18.441406 -3.550781 18.296875 -3.40625 C 16.453125 -1.84375 15.175781 -0.566406 14.46875 0.421875 C 11.632812 4.253906 10.078125 7.800781 9.796875 11.0625 C 9.367188 13.332031 9.789062 15.320312 11.0625 17.03125 C 12.488281 19.15625 14.050781 19.507812 15.75 18.09375 Z M 15.75 18.09375 "/></g></g></g><g fill="#565656" fill-opacity="1"><g transform="translate(303.739639, 167.50109)"><g><path d="M 71.296875 -51.515625 C 71.722656 -50.796875 71.65625 -49.941406 71.09375 -48.953125 C 67.820312 -42.003906 63.097656 -36.648438 56.921875 -32.890625 C 50.753906 -29.128906 44.976562 -27.671875 39.59375 -28.515625 C 38.457031 -24.546875 37.25 -21.285156 35.96875 -18.734375 C 34.550781 -15.890625 32.988281 -13.617188 31.28125 -11.921875 C 27.03125 -7.234375 21.78125 -5.53125 15.53125 -6.8125 C 7.019531 -8.800781 1.84375 -13.835938 0 -21.921875 C -0.851562 -25.890625 -1.28125 -28.867188 -1.28125 -30.859375 C -0.425781 -48.171875 4.113281 -63.285156 12.34375 -76.203125 C 13.195312 -77.617188 13.90625 -78.609375 14.46875 -79.171875 C 16.175781 -81.441406 18.660156 -81.941406 21.921875 -80.671875 C 23.335938 -80.097656 23.90625 -79.101562 23.625 -77.6875 L 22.140625 -73.859375 C 26.390625 -73.148438 29.9375 -71.375 32.78125 -68.53125 C 35.050781 -66.40625 37.070312 -63.425781 38.84375 -59.59375 C 40.613281 -55.757812 41.570312 -51.644531 41.71875 -47.25 C 41.863281 -42.570312 41.507812 -37.609375 40.65625 -32.359375 C 44.769531 -31.929688 49.378906 -33.347656 54.484375 -36.609375 C 59.597656 -39.867188 63.289062 -44.765625 65.5625 -51.296875 C 66.550781 -52.003906 67.6875 -52.359375 68.96875 -52.359375 C 69.675781 -52.640625 70.453125 -52.359375 71.296875 -51.515625 Z M 27.875 -18.9375 C 30.289062 -23.195312 31.925781 -27.457031 32.78125 -31.71875 C 29.507812 -34.269531 26.132812 -38.023438 22.65625 -42.984375 C 19.1875 -47.953125 16.742188 -52.210938 15.328125 -55.765625 C 12.347656 -46.960938 10.785156 -38.445312 10.640625 -30.21875 C 10.640625 -24.539062 11.347656 -20.003906 12.765625 -16.609375 C 13.765625 -14.898438 14.832031 -13.476562 15.96875 -12.34375 C 17.238281 -10.925781 18.941406 -10.710938 21.078125 -11.703125 C 23.765625 -13.265625 26.03125 -15.675781 27.875 -18.9375 Z M 24.90625 -68.53125 C 24.332031 -69.101562 23.65625 -69.175781 22.875 -68.75 C 22.09375 -68.320312 21.5625 -67.753906 21.28125 -67.046875 C 21.28125 -66.898438 21.207031 -66.648438 21.0625 -66.296875 C 20.925781 -65.941406 20.820312 -65.625 20.75 -65.34375 C 20.675781 -65.0625 20.640625 -64.773438 20.640625 -64.484375 C 20.785156 -61.085938 22.207031 -56.582031 24.90625 -50.96875 C 27.601562 -45.363281 30.507812 -40.71875 33.625 -37.03125 C 33.914062 -39.445312 34.0625 -43.140625 34.0625 -48.109375 C 33.914062 -54.773438 31.785156 -60.800781 27.671875 -66.1875 Z M 24.90625 -68.53125 "/></g></g></g><g fill="#565656" fill-opacity="1"><g transform="translate(366.736533, 167.50109)"><g><path d="M 12.125 9.796875 C 10.707031 10.640625 9.21875 10.847656 7.65625 10.421875 C 6.101562 10.003906 5.039062 9.082031 4.46875 7.65625 C 3.1875 4.675781 2.335938 1.414062 1.921875 -2.125 C 0.359375 -17.164062 -0.207031 -27.171875 0.21875 -32.140625 C -0.0703125 -44.203125 0.5625 -54.347656 2.125 -62.578125 C 2.550781 -65.554688 3.191406 -68.535156 4.046875 -71.515625 C 4.472656 -73.640625 5.820312 -74.703125 8.09375 -74.703125 C 10.925781 -74.421875 12.34375 -73.078125 12.34375 -70.671875 L 12.34375 -61.515625 L 11.0625 -46.828125 L 11.0625 -30.21875 C 11.0625 -29.507812 11.347656 -29.15625 11.921875 -29.15625 C 12.628906 -29.4375 13.125 -29.789062 13.40625 -30.21875 C 13.832031 -31.070312 14.332031 -32.492188 14.90625 -34.484375 C 17.3125 -41.859375 20.503906 -48.8125 24.484375 -55.34375 C 26.035156 -58.175781 28.160156 -60.800781 30.859375 -63.21875 C 33.703125 -65.34375 36.828125 -66.332031 40.234375 -66.1875 C 45.054688 -65.769531 47.960938 -63.429688 48.953125 -59.171875 C 50.085938 -55.054688 50.65625 -50.234375 50.65625 -44.703125 C 50.65625 -42.992188 50.691406 -40.507812 50.765625 -37.25 C 50.835938 -33.988281 50.875 -31.578125 50.875 -30.015625 C 51.15625 -26.742188 51.722656 -24.332031 52.578125 -22.78125 C 53.285156 -20.925781 54.488281 -20.566406 56.1875 -21.703125 C 58.738281 -23.410156 61.222656 -26.109375 63.640625 -29.796875 C 66.054688 -33.347656 69.53125 -38.8125 74.0625 -46.1875 L 78.328125 -52.140625 C 79.316406 -53.566406 80.664062 -53.921875 82.375 -53.203125 C 83.644531 -52.921875 84.140625 -52.285156 83.859375 -51.296875 C 83.859375 -50.441406 83.71875 -49.875 83.4375 -49.59375 C 77.757812 -38.664062 72.789062 -30.578125 68.53125 -25.328125 C 65.550781 -21.640625 62.925781 -19.085938 60.65625 -17.671875 C 58.53125 -16.390625 56.191406 -15.535156 53.640625 -15.109375 C 48.242188 -14.679688 44.695312 -16.953125 43 -21.921875 C 41.570312 -26.179688 40.789062 -30.367188 40.65625 -34.484375 L 40.65625 -49.375 C 40.65625 -51.082031 40.515625 -53.492188 40.234375 -56.609375 L 39.59375 -59.171875 C 39.445312 -59.734375 38.984375 -60.085938 38.203125 -60.234375 C 37.421875 -60.378906 36.816406 -60.304688 36.390625 -60.015625 C 34.835938 -59.171875 33.207031 -57.398438 31.5 -54.703125 C 26.101562 -45.765625 22.128906 -36.46875 19.578125 -26.8125 C 17.171875 -16.882812 15.398438 -6.316406 14.265625 4.890625 C 13.972656 6.316406 13.6875 7.523438 13.40625 8.515625 C 13.40625 8.796875 12.976562 9.222656 12.125 9.796875 Z M 12.125 9.796875 "/></g></g></g><g fill="#565656" fill-opacity="1"><g transform="translate(442.077413, 167.50109)"><g/></g></g><g fill="#ff914d" fill-opacity="1"><g transform="translate(501.708831, 167.50109)"><g><path d="M 30.65625 10 C 27.25 11.414062 24.195312 10.632812 21.5 7.65625 C 18.375 4.394531 16.382812 0.28125 15.53125 -4.6875 C 14.539062 -9.789062 13.972656 -14.613281 13.828125 -19.15625 C 13.546875 -24.257812 13.265625 -31.921875 12.984375 -42.140625 L 12.984375 -60.65625 C 12.984375 -63.070312 12.84375 -66.691406 12.5625 -71.515625 C 12.269531 -74.066406 10.921875 -75.984375 8.515625 -77.265625 C 6.523438 -78.117188 6.171875 -79.535156 7.453125 -81.515625 C 9.859375 -85.203125 11.347656 -90.171875 11.921875 -96.421875 C 12.484375 -108.484375 12.976562 -117.351562 13.40625 -123.03125 C 13.6875 -126.425781 14.394531 -131.53125 15.53125 -138.34375 C 16.382812 -142.601562 18.019531 -146.578125 20.4375 -150.265625 C 25.96875 -158.640625 33.414062 -160.835938 42.78125 -156.859375 C 45.613281 -155.722656 47.242188 -153.664062 47.671875 -150.6875 C 47.816406 -149.132812 47.425781 -147.789062 46.5 -146.65625 C 45.582031 -145.519531 44.414062 -145.019531 43 -145.15625 C 41.15625 -145.15625 40.160156 -146.007812 40.015625 -147.71875 C 40.015625 -148 39.976562 -148.457031 39.90625 -149.09375 C 39.832031 -149.738281 39.757812 -150.304688 39.6875 -150.796875 C 39.625 -151.296875 39.519531 -151.757812 39.375 -152.1875 C 39.09375 -153.175781 38.347656 -153.8125 37.140625 -154.09375 C 35.929688 -154.382812 34.90625 -154.171875 34.0625 -153.453125 C 32.632812 -152.460938 31.285156 -150.832031 30.015625 -148.5625 C 28.023438 -144.875 26.675781 -140.191406 25.96875 -134.515625 C 24.6875 -124.867188 23.976562 -116.566406 23.84375 -109.609375 C 23.84375 -106.347656 23.273438 -101.171875 22.140625 -94.078125 C 21.992188 -93.222656 21.28125 -90.597656 20 -86.203125 C 19.863281 -85.773438 19.507812 -85.207031 18.9375 -84.5 C 18.375 -83.789062 17.984375 -83.113281 17.765625 -82.46875 C 17.554688 -81.832031 17.523438 -81.160156 17.671875 -80.453125 C 17.804688 -79.890625 18.015625 -79.359375 18.296875 -78.859375 C 18.585938 -78.359375 18.976562 -77.859375 19.46875 -77.359375 C 19.96875 -76.867188 20.289062 -76.410156 20.4375 -75.984375 C 21.570312 -74.285156 22.140625 -72.226562 22.140625 -69.8125 C 22.566406 -65.550781 22.78125 -61.222656 22.78125 -56.828125 C 22.914062 -54.703125 22.984375 -51.507812 22.984375 -47.25 C 22.984375 -42.988281 22.984375 -39.796875 22.984375 -37.671875 C 23.265625 -26.609375 23.617188 -18.304688 24.046875 -12.765625 C 24.335938 -7.085938 25.898438 -2.191406 28.734375 1.921875 C 29.441406 2.910156 30.148438 3.40625 30.859375 3.40625 C 31.992188 3.40625 32.847656 2.625 33.421875 1.0625 C 33.703125 -0.0703125 33.984375 -0.921875 34.265625 -1.484375 C 34.546875 -2.191406 35.539062 -2.832031 37.25 -3.40625 C 37.957031 -3.550781 38.664062 -3.375 39.375 -2.875 C 40.082031 -2.375 40.367188 -1.769531 40.234375 -1.0625 C 39.804688 3.476562 37.75 6.742188 34.0625 8.734375 Z M 30.65625 10 "/></g></g></g><g fill="#565656" fill-opacity="1"><g transform="translate(557.946356, 167.50109)"><g><path d="M 79.8125 -67.46875 C 79.957031 -66.613281 80.03125 -65.335938 80.03125 -63.640625 L 80.03125 -63 C 79.75 -44.976562 76.695312 -28.800781 70.875 -14.46875 C 68.601562 -8.65625 65.765625 -3.617188 62.359375 0.640625 C 58.953125 4.609375 54.769531 7.019531 49.8125 7.875 C 48.675781 8.15625 47.820312 8.296875 47.25 8.296875 C 46.394531 8.296875 45.753906 8.226562 45.328125 8.09375 C 41.929688 7.382812 39.734375 5.46875 38.734375 2.34375 C 38.171875 0.78125 37.890625 -0.921875 37.890625 -2.765625 C 37.890625 -6.023438 38.738281 -9.003906 40.4375 -11.703125 C 41.71875 -14.117188 43.707031 -15.394531 46.40625 -15.53125 C 47.394531 -15.53125 47.890625 -15.035156 47.890625 -14.046875 L 47.890625 -13.828125 C 47.035156 -11.554688 46.46875 -9.785156 46.1875 -8.515625 C 45.757812 -7.378906 45.546875 -6.242188 45.546875 -5.109375 C 45.546875 -3.828125 45.757812 -2.550781 46.1875 -1.28125 C 46.894531 1.269531 48.03125 2.546875 49.59375 2.546875 C 50.875 2.410156 52.078125 1.632812 53.203125 0.21875 C 55.898438 -3.050781 58.382812 -7.3125 60.65625 -12.5625 C 63.925781 -20.507812 66.335938 -29.019531 67.890625 -38.09375 C 69.453125 -46.320312 70.234375 -54.269531 70.234375 -61.9375 C 70.234375 -62.789062 70.195312 -64.03125 70.125 -65.65625 C 70.0625 -67.289062 70.03125 -68.535156 70.03125 -69.390625 C 69.320312 -79.179688 68.113281 -87.976562 66.40625 -95.78125 C 64.84375 -101.738281 62.785156 -106.492188 60.234375 -110.046875 C 59.242188 -111.460938 58.109375 -112.171875 56.828125 -112.171875 C 55.691406 -112.171875 54.554688 -111.601562 53.421875 -110.46875 C 51.148438 -108.332031 49.304688 -105.492188 47.890625 -101.953125 C 44.910156 -94.285156 42.992188 -88.820312 42.140625 -85.5625 C 39.304688 -74.914062 37.390625 -63.066406 36.390625 -50.015625 L 35.125 -33.625 C 34.695312 -29.789062 34.484375 -25.960938 34.484375 -22.140625 C 34.484375 -16.742188 34.90625 -11.347656 35.75 -5.953125 C 36.039062 -2.835938 36.1875 -0.425781 36.1875 1.28125 C 36.1875 2.414062 36.148438 4.222656 36.078125 6.703125 C 36.003906 9.179688 35.96875 11.0625 35.96875 12.34375 C 35.96875 13.625 35.363281 14.6875 34.15625 15.53125 C 32.957031 16.382812 31.578125 16.742188 30.015625 16.609375 C 28.734375 16.316406 28.019531 15.75 27.875 14.90625 C 27.3125 13.195312 27.03125 11.703125 27.03125 10.421875 L 25.75 -18.09375 C 25.75 -18.226562 25.675781 -19.859375 25.53125 -22.984375 C 25.394531 -26.109375 25.253906 -28.453125 25.109375 -30.015625 C 24.546875 -36.679688 24.265625 -46.753906 24.265625 -60.234375 C 24.265625 -61.515625 24.265625 -65.347656 24.265625 -71.734375 C 24.265625 -78.117188 24.265625 -84.179688 24.265625 -89.921875 C 24.265625 -95.671875 24.265625 -100.175781 24.265625 -103.4375 L 18.9375 -101.3125 C 15.25 -99.75 12.34375 -96.410156 10.21875 -91.296875 C 8.09375 -86.191406 7.953125 -81.300781 9.796875 -76.625 C 9.929688 -76.195312 10.28125 -75.660156 10.84375 -75.015625 C 11.414062 -74.378906 11.773438 -73.921875 11.921875 -73.640625 C 11.921875 -73.210938 11.78125 -72.71875 11.5 -72.15625 C 11.207031 -71.875 10.921875 -71.734375 10.640625 -71.734375 C 6.242188 -71.734375 3.335938 -73.503906 1.921875 -77.046875 C 0.640625 -80.171875 0 -82.867188 0 -85.140625 C 0 -89.535156 1.347656 -93.113281 4.046875 -95.875 C 6.742188 -98.644531 11.351562 -101.519531 17.875 -104.5 L 24.484375 -107.484375 L 24.484375 -108.34375 C 25.753906 -121.820312 29.9375 -129.054688 37.03125 -130.046875 C 42.851562 -131.035156 46.117188 -128.90625 46.828125 -123.65625 C 47.535156 -118.269531 43.207031 -113.019531 33.84375 -107.90625 C 33.5625 -103.226562 33.5625 -98.832031 33.84375 -94.71875 C 33.84375 -93.71875 34.269531 -92.9375 35.125 -92.375 C 35.96875 -92.09375 36.535156 -92.585938 36.828125 -93.859375 C 37.109375 -94.566406 37.53125 -95.703125 38.09375 -97.265625 C 38.664062 -98.828125 39.164062 -99.960938 39.59375 -100.671875 C 40.4375 -102.804688 41.851562 -105.859375 43.84375 -109.828125 C 46.539062 -114.503906 50.65625 -116.84375 56.1875 -116.84375 C 61.582031 -116.84375 65.554688 -115 68.109375 -111.3125 C 71.367188 -106.914062 73.640625 -102.585938 74.921875 -98.328125 C 76.484375 -93.222656 77.617188 -87.550781 78.328125 -81.3125 C 78.753906 -78.332031 79.25 -73.71875 79.8125 -67.46875 Z M 39.796875 -126.640625 C 37.390625 -126.078125 35.546875 -121.179688 34.265625 -111.953125 C 41.078125 -115.640625 44.203125 -119.398438 43.640625 -123.234375 C 43.210938 -125.929688 41.929688 -127.066406 39.796875 -126.640625 Z M 39.796875 -126.640625 "/></g></g></g><g fill="#565656" fill-opacity="1"><g transform="translate(648.610753, 167.50109)"><g><path d="M 71.296875 -51.515625 C 71.722656 -50.796875 71.65625 -49.941406 71.09375 -48.953125 C 67.820312 -42.003906 63.097656 -36.648438 56.921875 -32.890625 C 50.753906 -29.128906 44.976562 -27.671875 39.59375 -28.515625 C 38.457031 -24.546875 37.25 -21.285156 35.96875 -18.734375 C 34.550781 -15.890625 32.988281 -13.617188 31.28125 -11.921875 C 27.03125 -7.234375 21.78125 -5.53125 15.53125 -6.8125 C 7.019531 -8.800781 1.84375 -13.835938 0 -21.921875 C -0.851562 -25.890625 -1.28125 -28.867188 -1.28125 -30.859375 C -0.425781 -48.171875 4.113281 -63.285156 12.34375 -76.203125 C 13.195312 -77.617188 13.90625 -78.609375 14.46875 -79.171875 C 16.175781 -81.441406 18.660156 -81.941406 21.921875 -80.671875 C 23.335938 -80.097656 23.90625 -79.101562 23.625 -77.6875 L 22.140625 -73.859375 C 26.390625 -73.148438 29.9375 -71.375 32.78125 -68.53125 C 35.050781 -66.40625 37.070312 -63.425781 38.84375 -59.59375 C 40.613281 -55.757812 41.570312 -51.644531 41.71875 -47.25 C 41.863281 -42.570312 41.507812 -37.609375 40.65625 -32.359375 C 44.769531 -31.929688 49.378906 -33.347656 54.484375 -36.609375 C 59.597656 -39.867188 63.289062 -44.765625 65.5625 -51.296875 C 66.550781 -52.003906 67.6875 -52.359375 68.96875 -52.359375 C 69.675781 -52.640625 70.453125 -52.359375 71.296875 -51.515625 Z M 27.875 -18.9375 C 30.289062 -23.195312 31.925781 -27.457031 32.78125 -31.71875 C 29.507812 -34.269531 26.132812 -38.023438 22.65625 -42.984375 C 19.1875 -47.953125 16.742188 -52.210938 15.328125 -55.765625 C 12.347656 -46.960938 10.785156 -38.445312 10.640625 -30.21875 C 10.640625 -24.539062 11.347656 -20.003906 12.765625 -16.609375 C 13.765625 -14.898438 14.832031 -13.476562 15.96875 -12.34375 C 17.238281 -10.925781 18.941406 -10.710938 21.078125 -11.703125 C 23.765625 -13.265625 26.03125 -15.675781 27.875 -18.9375 Z M 24.90625 -68.53125 C 24.332031 -69.101562 23.65625 -69.175781 22.875 -68.75 C 22.09375 -68.320312 21.5625 -67.753906 21.28125 -67.046875 C 21.28125 -66.898438 21.207031 -66.648438 21.0625 -66.296875 C 20.925781 -65.941406 20.820312 -65.625 20.75 -65.34375 C 20.675781 -65.0625 20.640625 -64.773438 20.640625 -64.484375 C 20.785156 -61.085938 22.207031 -56.582031 24.90625 -50.96875 C 27.601562 -45.363281 30.507812 -40.71875 33.625 -37.03125 C 33.914062 -39.445312 34.0625 -43.140625 34.0625 -48.109375 C 33.914062 -54.773438 31.785156 -60.800781 27.671875 -66.1875 Z M 24.90625 -68.53125 "/></g></g></g><g fill="#565656" fill-opacity="1"><g transform="translate(711.607647, 167.50109)"><g><path d="M 25.75 2.34375 C 22.488281 4.1875 18.867188 4.679688 14.890625 3.828125 C 10.921875 2.972656 7.941406 1.054688 5.953125 -1.921875 C 3.265625 -5.609375 1.28125 -9.722656 0 -14.265625 C -1.5625 -20.648438 -2.269531 -25.257812 -2.125 -28.09375 C -1.988281 -36.75 -0.710938 -44.835938 1.703125 -52.359375 C 3.117188 -56.617188 5.460938 -60.59375 8.734375 -64.28125 C 14.972656 -71.375 22.703125 -73.359375 31.921875 -70.234375 C 35.472656 -68.960938 37.675781 -66.550781 38.53125 -63 C 38.945312 -61.15625 38.835938 -58.78125 38.203125 -55.875 C 37.566406 -52.96875 36.609375 -50.734375 35.328125 -49.171875 C 34.898438 -48.742188 34.050781 -48.390625 32.78125 -48.109375 C 31.78125 -47.816406 30.925781 -48.023438 30.21875 -48.734375 C 29.507812 -49.453125 29.226562 -50.304688 29.375 -51.296875 C 29.507812 -51.859375 29.753906 -52.957031 30.109375 -54.59375 C 30.472656 -56.226562 30.722656 -57.46875 30.859375 -58.3125 C 31.140625 -60.300781 30.992188 -62.078125 30.421875 -63.640625 C 29.859375 -65.203125 29.007812 -66.125 27.875 -66.40625 C 25.894531 -66.832031 23.484375 -65.769531 20.640625 -63.21875 C 17.804688 -60.09375 15.75 -56.6875 14.46875 -53 C 8.9375 -36.394531 8.722656 -21.425781 13.828125 -8.09375 C 15.535156 -3.6875 17.171875 -1.304688 18.734375 -0.953125 C 20.296875 -0.597656 22.707031 -1.984375 25.96875 -5.109375 C 29.65625 -8.515625 33.414062 -12.910156 37.25 -18.296875 C 43.0625 -26.390625 48.453125 -34.976562 53.421875 -44.0625 C 54.835938 -46.757812 56.1875 -49.171875 57.46875 -51.296875 C 58.175781 -52.429688 59.171875 -53 60.453125 -53 C 61.296875 -53.132812 62.035156 -52.882812 62.671875 -52.25 C 63.316406 -51.613281 63.5 -50.941406 63.21875 -50.234375 C 62.925781 -49.097656 62.640625 -48.242188 62.359375 -47.671875 C 56.117188 -35.046875 49.023438 -23.625 41.078125 -13.40625 C 38.242188 -9.570312 35.050781 -5.882812 31.5 -2.34375 C 30.21875 -0.925781 28.300781 0.632812 25.75 2.34375 Z M 25.75 2.34375 "/></g></g></g><g fill="#565656" fill-opacity="1"><g transform="translate(766.517108, 167.50109)"><g><path d="M 9.359375 22.34375 C 6.804688 21.351562 4.890625 19.722656 3.609375 17.453125 C 2.335938 15.179688 1.984375 12.695312 2.546875 10 C 3.398438 6.3125 4.960938 2.976562 7.234375 0 C 9.929688 -3.550781 12.84375 -7.097656 15.96875 -10.640625 C 17.664062 -12.484375 18.019531 -14.472656 17.03125 -16.609375 C 16.457031 -18.023438 15.316406 -20.789062 13.609375 -24.90625 C 11.910156 -29.019531 10.566406 -32.140625 9.578125 -34.265625 C 6.023438 -42.210938 3.753906 -47.960938 2.765625 -51.515625 C 2.054688 -55.484375 1.703125 -57.820312 1.703125 -58.53125 C 1.554688 -62.925781 2.757812 -66.613281 5.3125 -69.59375 C 7.875 -72.570312 11.351562 -74.347656 15.75 -74.921875 L 18.515625 -74.921875 C 21.640625 -74.921875 24.832031 -74 28.09375 -72.15625 C 30.507812 -70.59375 32.175781 -68.535156 33.09375 -65.984375 C 34.019531 -63.429688 33.984375 -60.945312 32.984375 -58.53125 C 32.566406 -57.394531 31.859375 -56.6875 30.859375 -56.40625 C 29.867188 -56.125 28.875 -56.335938 27.875 -57.046875 C 26.882812 -57.609375 26.390625 -58.316406 26.390625 -59.171875 C 26.390625 -59.597656 26.351562 -60.445312 26.28125 -61.71875 C 26.21875 -63 26.113281 -63.992188 25.96875 -64.703125 C 25.820312 -65.984375 25.179688 -67.257812 24.046875 -68.53125 C 22.773438 -70.238281 21.070312 -70.738281 18.9375 -70.03125 C 14.820312 -68.1875 12.484375 -65.207031 11.921875 -61.09375 C 11.773438 -58.101562 12.128906 -55.117188 12.984375 -52.140625 C 15.816406 -44.203125 19.929688 -35.265625 25.328125 -25.328125 C 25.753906 -24.617188 26.359375 -24.265625 27.140625 -24.265625 C 27.921875 -24.265625 28.59375 -24.617188 29.15625 -25.328125 C 32.84375 -29.441406 37.8125 -36.039062 44.0625 -45.125 C 45.195312 -47.113281 47.039062 -49.953125 49.59375 -53.640625 C 50.15625 -54.484375 51.21875 -54.90625 52.78125 -54.90625 C 53.632812 -54.90625 54.304688 -54.585938 54.796875 -53.953125 C 55.296875 -53.316406 55.40625 -52.644531 55.125 -51.9375 C 52.425781 -46.257812 49.09375 -40.796875 45.125 -35.546875 C 38.3125 -26.890625 34.265625 -21.851562 32.984375 -20.4375 C 30.148438 -17.164062 29.226562 -13.828125 30.21875 -10.421875 C 30.644531 -9.296875 31 -7.523438 31.28125 -5.109375 C 31.570312 -2.691406 31.785156 -1.203125 31.921875 -0.640625 C 32.347656 3.617188 31.78125 7.875 30.21875 12.125 C 28.65625 16.53125 25.816406 19.691406 21.703125 21.609375 C 17.585938 23.523438 13.472656 23.769531 9.359375 22.34375 Z M 15.75 18.09375 C 16.882812 17.238281 17.734375 16.382812 18.296875 15.53125 C 20.003906 12.976562 21 8.863281 21.28125 3.1875 L 19.796875 -2.984375 C 19.796875 -3.117188 19.582031 -3.257812 19.15625 -3.40625 C 18.726562 -3.550781 18.441406 -3.550781 18.296875 -3.40625 C 16.453125 -1.84375 15.175781 -0.566406 14.46875 0.421875 C 11.632812 4.253906 10.078125 7.800781 9.796875 11.0625 C 9.367188 13.332031 9.789062 15.320312 11.0625 17.03125 C 12.488281 19.15625 14.050781 19.507812 15.75 18.09375 Z M 15.75 18.09375 "/></g></g></g><g fill="#ff914d" fill-opacity="1"><g transform="translate(813.406156, 167.50109)"><g><path d="M 23.40625 10 L 20 8.734375 C 16.3125 6.742188 14.253906 3.476562 13.828125 -1.0625 C 13.691406 -1.769531 13.976562 -2.375 14.6875 -2.875 C 15.394531 -3.375 16.101562 -3.550781 16.8125 -3.40625 C 18.519531 -2.832031 19.515625 -2.191406 19.796875 -1.484375 C 20.078125 -0.921875 20.359375 -0.0703125 20.640625 1.0625 C 21.210938 2.625 22.066406 3.40625 23.203125 3.40625 C 23.910156 3.40625 24.617188 2.910156 25.328125 1.921875 C 28.160156 -2.191406 29.722656 -7.085938 30.015625 -12.765625 C 30.441406 -18.304688 30.796875 -26.609375 31.078125 -37.671875 C 31.078125 -39.796875 31.078125 -42.988281 31.078125 -47.25 C 31.078125 -51.507812 31.144531 -54.703125 31.28125 -56.828125 C 31.28125 -61.222656 31.492188 -65.550781 31.921875 -69.8125 C 31.921875 -72.226562 32.488281 -74.285156 33.625 -75.984375 C 33.769531 -76.128906 34.234375 -76.734375 35.015625 -77.796875 C 35.796875 -78.859375 36.253906 -79.742188 36.390625 -80.453125 C 36.535156 -81.160156 36.5 -81.832031 36.28125 -82.46875 C 36.070312 -83.113281 35.679688 -83.789062 35.109375 -84.5 C 34.546875 -85.207031 34.195312 -85.773438 34.0625 -86.203125 C 32.78125 -90.597656 32.066406 -93.222656 31.921875 -94.078125 C 30.785156 -101.171875 30.21875 -106.347656 30.21875 -109.609375 C 30.082031 -116.566406 29.375 -124.867188 28.09375 -134.515625 C 27.382812 -140.191406 26.035156 -144.875 24.046875 -148.5625 C 22.773438 -150.832031 21.425781 -152.460938 20 -153.453125 C 19.15625 -154.171875 18.128906 -154.382812 16.921875 -154.09375 C 15.710938 -153.8125 14.96875 -153.175781 14.6875 -152.1875 L 14.046875 -147.71875 C 13.898438 -146.007812 12.90625 -145.15625 11.0625 -145.15625 C 9.644531 -145.019531 8.472656 -145.519531 7.546875 -146.65625 C 6.628906 -147.789062 6.242188 -149.132812 6.390625 -150.6875 C 6.816406 -153.664062 8.445312 -155.722656 11.28125 -156.859375 C 20.644531 -160.835938 28.09375 -158.640625 33.625 -150.265625 C 36.039062 -146.578125 37.675781 -142.601562 38.53125 -138.34375 C 39.664062 -131.53125 40.375 -126.425781 40.65625 -123.03125 C 41.082031 -117.351562 41.578125 -108.484375 42.140625 -96.421875 C 42.710938 -90.171875 44.203125 -85.203125 46.609375 -81.515625 C 47.890625 -79.535156 47.535156 -78.117188 45.546875 -77.265625 C 43.140625 -75.984375 41.789062 -74.066406 41.5 -71.515625 C 41.21875 -66.691406 41.078125 -63.070312 41.078125 -60.65625 L 41.078125 -42.140625 C 40.796875 -31.921875 40.515625 -24.257812 40.234375 -19.15625 C 40.085938 -14.613281 39.519531 -9.789062 38.53125 -4.6875 C 37.675781 0.28125 35.6875 4.394531 32.5625 7.65625 C 29.863281 10.632812 26.8125 11.414062 23.40625 10 Z M 23.40625 10 "/></g></g></g></svg>