<svg xmlns="http://www.w3.org/2000/svg" xmlns:xlink="http://www.w3.org/1999/xlink" width="300" zoomAndPan="magnify" viewBox="0 0 224.87999 52.499999" height="70" preserveAspectRatio="xMidYMid meet" version="1.0"><defs><g/></defs><g fill="#565656" fill-opacity="1"><g transform="translate(4.024186, 41.480223)"><g><path d="M 16.28125 5.265625 C 14.632812 5.265625 13.054688 4.789062 11.546875 3.84375 C 11.117188 3.5625 10.132812 2.859375 8.59375 1.734375 L 7.21875 0.578125 C 6.863281 0.296875 6.582031 0.296875 6.375 0.578125 L 5.53125 1.375 C 4.476562 2.425781 3.160156 2.8125 1.578125 2.53125 C 1.367188 2.5 1.085938 2.375 0.734375 2.15625 C 0.273438 1.769531 0.0351562 1.191406 0.015625 0.421875 C 0.00390625 -0.347656 0.191406 -0.945312 0.578125 -1.375 C 0.960938 -1.832031 1.398438 -2.128906 1.890625 -2.265625 C 2.703125 -2.472656 3.140625 -2.578125 3.203125 -2.578125 C 3.273438 -2.578125 3.539062 -2.585938 4 -2.609375 C 4.457031 -2.628906 4.789062 -2.707031 5 -2.84375 C 5.175781 -2.988281 5.316406 -3.164062 5.421875 -3.375 C 5.535156 -3.582031 5.644531 -3.863281 5.75 -4.21875 C 5.851562 -4.570312 5.921875 -4.800781 5.953125 -4.90625 C 6.546875 -6.726562 7.160156 -9.609375 7.796875 -13.546875 C 7.898438 -14.242188 7.617188 -14.71875 6.953125 -14.96875 L 6.328125 -15.125 L 5.84375 -15.234375 C 4.195312 -15.753906 2.898438 -16.945312 1.953125 -18.8125 C 1.804688 -19.132812 1.769531 -19.4375 1.84375 -19.71875 C 1.84375 -19.957031 1.945312 -20.148438 2.15625 -20.296875 C 2.375 -20.359375 2.585938 -20.335938 2.796875 -20.234375 C 3.140625 -20.023438 3.367188 -19.832031 3.484375 -19.65625 L 4.265625 -18.28125 C 4.722656 -17.507812 5.269531 -16.894531 5.90625 -16.4375 C 6.113281 -16.269531 6.460938 -16.113281 6.953125 -15.96875 C 7.722656 -15.71875 8.164062 -15.984375 8.28125 -16.765625 L 8.75 -19.921875 C 8.820312 -20.304688 8.914062 -20.867188 9.03125 -21.609375 C 9.15625 -22.347656 9.269531 -23.015625 9.375 -23.609375 C 9.488281 -24.203125 9.597656 -24.765625 9.703125 -25.296875 C 9.835938 -26.140625 10.097656 -26.929688 10.484375 -27.671875 C 10.691406 -28.191406 10.992188 -28.71875 11.390625 -29.25 C 12.054688 -30.125 12.890625 -30.597656 13.890625 -30.671875 C 14.890625 -30.742188 15.773438 -30.394531 16.546875 -29.625 C 17.285156 -28.957031 17.671875 -28.144531 17.703125 -27.1875 C 17.703125 -26.070312 17.648438 -25.25 17.546875 -24.71875 C 16.878906 -21.519531 15.210938 -18.796875 12.546875 -16.546875 C 12.335938 -16.335938 12.210938 -16.234375 12.171875 -16.234375 C 11.191406 -15.773438 10.613281 -14.789062 10.4375 -13.28125 C 9.875 -9.03125 9.015625 -5.410156 7.859375 -2.421875 C 7.609375 -1.828125 7.675781 -1.351562 8.0625 -1 C 8.3125 -0.789062 8.8125 -0.351562 9.5625 0.3125 C 10.320312 0.976562 10.910156 1.488281 11.328125 1.84375 C 12.554688 2.789062 13.664062 3.457031 14.65625 3.84375 C 15.707031 4.269531 16.65625 4.394531 17.5 4.21875 C 18.695312 3.96875 19.3125 3.226562 19.34375 2 C 19.375 1.925781 19.390625 1.8125 19.390625 1.65625 C 19.390625 1.5 19.390625 1.382812 19.390625 1.3125 C 19.460938 1.070312 19.640625 0.953125 19.921875 0.953125 C 20.660156 0.847656 21.117188 1.128906 21.296875 1.796875 C 21.503906 2.921875 21.148438 3.765625 20.234375 4.328125 C 19.210938 4.953125 17.894531 5.265625 16.28125 5.265625 Z M 11.28125 -18.875 C 11.351562 -18.625 11.457031 -18.445312 11.59375 -18.34375 C 11.738281 -18.238281 11.929688 -18.304688 12.171875 -18.546875 C 14.171875 -20.554688 15.367188 -23.035156 15.765625 -25.984375 C 15.867188 -26.648438 15.832031 -27.316406 15.65625 -27.984375 C 15.613281 -28.085938 15.566406 -28.207031 15.515625 -28.34375 C 15.460938 -28.488281 15.4375 -28.597656 15.4375 -28.671875 C 15.300781 -28.984375 15.082031 -29.175781 14.78125 -29.25 C 14.476562 -29.320312 14.207031 -29.234375 13.96875 -28.984375 C 13.582031 -28.597656 13.300781 -28.25 13.125 -27.9375 C 12.738281 -27.375 12.421875 -26.597656 12.171875 -25.609375 C 12.035156 -25.117188 11.738281 -23.132812 11.28125 -19.65625 Z M 2.640625 1.21875 C 2.640625 1.175781 2.671875 1.15625 2.734375 1.15625 L 2.84375 1.15625 C 3.507812 0.695312 4.003906 -0.0351562 4.328125 -1.046875 C 4.359375 -1.160156 4.3125 -1.273438 4.1875 -1.390625 C 4.0625 -1.515625 3.910156 -1.597656 3.734375 -1.640625 C 3.109375 -1.703125 2.601562 -1.453125 2.21875 -0.890625 C 1.832031 -0.265625 1.847656 0.363281 2.265625 1 C 2.296875 1.070312 2.421875 1.144531 2.640625 1.21875 Z M 2.640625 1.21875 "/></g></g></g><g fill="#565656" fill-opacity="1"><g transform="translate(21.416786, 41.480223)"><g><path d="M 7.953125 -2.109375 C 6.867188 -1.160156 5.628906 -0.84375 4.234375 -1.15625 C 2.847656 -1.476562 1.894531 -2.21875 1.375 -3.375 C 0.5625 -5.09375 0.101562 -6.847656 0 -8.640625 L 0 -9.703125 C -0.101562 -12.472656 0.316406 -14.859375 1.265625 -16.859375 C 1.753906 -17.878906 2.421875 -18.691406 3.265625 -19.296875 C 4.316406 -20.023438 5.476562 -20.144531 6.75 -19.65625 C 7.207031 -19.476562 7.53125 -19.175781 7.71875 -18.75 C 7.914062 -18.332031 7.941406 -17.894531 7.796875 -17.4375 C 7.128906 -15.363281 5.773438 -13.925781 3.734375 -13.125 C 3.140625 -12.914062 2.828125 -12.53125 2.796875 -11.96875 C 2.515625 -8.875 2.898438 -6.128906 3.953125 -3.734375 C 4.335938 -2.859375 4.738281 -2.375 5.15625 -2.28125 C 5.582031 -2.195312 6.128906 -2.472656 6.796875 -3.109375 C 7.460938 -3.742188 8.128906 -4.570312 8.796875 -5.59375 C 10.097656 -7.488281 11.257812 -9.523438 12.28125 -11.703125 C 12.738281 -12.503906 13.054688 -13.03125 13.234375 -13.28125 C 13.398438 -13.59375 13.734375 -13.695312 14.234375 -13.59375 C 14.546875 -13.457031 14.664062 -13.300781 14.59375 -13.125 C 14.5625 -12.84375 14.472656 -12.546875 14.328125 -12.234375 C 13.066406 -9.453125 11.679688 -6.9375 10.171875 -4.6875 C 9.472656 -3.664062 8.734375 -2.804688 7.953125 -2.109375 Z M 3.640625 -14.75 L 3.84375 -14.75 C 5.039062 -15.5625 5.765625 -16.582031 6.015625 -17.8125 C 6.015625 -17.988281 5.992188 -18.128906 5.953125 -18.234375 C 5.878906 -18.410156 5.789062 -18.515625 5.6875 -18.546875 C 5.550781 -18.617188 5.410156 -18.617188 5.265625 -18.546875 C 4.210938 -17.773438 3.597656 -16.632812 3.421875 -15.125 C 3.421875 -15.09375 3.457031 -15.023438 3.53125 -14.921875 Z M 3.640625 -14.75 "/></g></g></g><g fill="#565656" fill-opacity="1"><g transform="translate(33.907841, 41.480223)"><g><path d="M 6.375 0.578125 C 5.570312 1.035156 4.675781 1.15625 3.6875 0.9375 C 2.707031 0.726562 1.96875 0.257812 1.46875 -0.46875 C 0.800781 -1.382812 0.3125 -2.40625 0 -3.53125 C -0.382812 -5.113281 -0.5625 -6.253906 -0.53125 -6.953125 C -0.488281 -9.097656 -0.171875 -11.101562 0.421875 -12.96875 C 0.773438 -14.019531 1.351562 -15.003906 2.15625 -15.921875 C 3.707031 -17.671875 5.625 -18.160156 7.90625 -17.390625 C 8.78125 -17.078125 9.328125 -16.476562 9.546875 -15.59375 C 9.648438 -15.144531 9.617188 -14.554688 9.453125 -13.828125 C 9.296875 -13.109375 9.0625 -12.554688 8.75 -12.171875 C 8.644531 -12.066406 8.429688 -11.976562 8.109375 -11.90625 C 7.867188 -11.84375 7.660156 -11.894531 7.484375 -12.0625 C 7.304688 -12.238281 7.234375 -12.453125 7.265625 -12.703125 C 7.304688 -12.835938 7.367188 -13.109375 7.453125 -13.515625 C 7.546875 -13.921875 7.609375 -14.226562 7.640625 -14.4375 C 7.710938 -14.925781 7.675781 -15.363281 7.53125 -15.75 C 7.394531 -16.144531 7.1875 -16.375 6.90625 -16.4375 C 6.414062 -16.539062 5.816406 -16.28125 5.109375 -15.65625 C 4.410156 -14.882812 3.898438 -14.039062 3.578125 -13.125 C 2.210938 -9.007812 2.160156 -5.300781 3.421875 -2 C 3.847656 -0.914062 4.253906 -0.328125 4.640625 -0.234375 C 5.023438 -0.148438 5.625 -0.492188 6.4375 -1.265625 C 7.34375 -2.109375 8.269531 -3.195312 9.21875 -4.53125 C 10.664062 -6.53125 12.003906 -8.65625 13.234375 -10.90625 C 13.578125 -11.570312 13.910156 -12.171875 14.234375 -12.703125 C 14.410156 -12.984375 14.65625 -13.125 14.96875 -13.125 C 15.175781 -13.15625 15.359375 -13.09375 15.515625 -12.9375 C 15.679688 -12.78125 15.726562 -12.613281 15.65625 -12.4375 C 15.582031 -12.15625 15.507812 -11.945312 15.4375 -11.8125 C 13.894531 -8.675781 12.140625 -5.84375 10.171875 -3.3125 C 9.472656 -2.363281 8.679688 -1.453125 7.796875 -0.578125 C 7.484375 -0.222656 7.007812 0.160156 6.375 0.578125 Z M 6.375 0.578125 "/></g></g></g><g fill="#565656" fill-opacity="1"><g transform="translate(47.505702, 41.480223)"><g><path d="M 4.109375 2.53125 C 3.023438 2.8125 2.269531 2.476562 1.84375 1.53125 C 1.488281 0.757812 1.242188 0.0546875 1.109375 -0.578125 C 0.335938 -4.023438 0.09375 -7.117188 0.375 -9.859375 C 0.375 -9.960938 0.378906 -10.117188 0.390625 -10.328125 C 0.410156 -10.535156 0.421875 -10.691406 0.421875 -10.796875 C 0.597656 -14.628906 0.929688 -18.25 1.421875 -21.65625 C 1.453125 -21.832031 1.609375 -23.273438 1.890625 -25.984375 L 1.890625 -27.09375 C 1.890625 -27.226562 1.828125 -27.359375 1.703125 -27.484375 C 1.585938 -27.609375 1.457031 -27.671875 1.3125 -27.671875 C 0.71875 -27.671875 0.265625 -27.648438 -0.046875 -27.609375 C -0.328125 -27.609375 -0.738281 -27.570312 -1.28125 -27.5 C -1.832031 -27.4375 -2.25 -27.390625 -2.53125 -27.359375 C -2.738281 -27.316406 -3.035156 -27.332031 -3.421875 -27.40625 C -3.597656 -27.476562 -3.6875 -27.582031 -3.6875 -27.71875 C -3.6875 -27.925781 -3.632812 -28.050781 -3.53125 -28.09375 C -3.28125 -28.226562 -2.703125 -28.382812 -1.796875 -28.5625 L 1.578125 -29.046875 C 2.003906 -29.078125 2.269531 -29.320312 2.375 -29.78125 L 3 -32.890625 C 3.175781 -33.660156 3.671875 -33.890625 4.484375 -33.578125 C 4.796875 -33.398438 4.96875 -33.171875 5 -32.890625 C 5.070312 -32.460938 5.109375 -32.160156 5.109375 -31.984375 C 5.109375 -31.816406 5.097656 -31.59375 5.078125 -31.3125 C 5.066406 -31.03125 5.0625 -30.800781 5.0625 -30.625 C 5.0625 -30.195312 5.140625 -29.894531 5.296875 -29.71875 C 5.453125 -29.550781 5.722656 -29.484375 6.109375 -29.515625 C 6.460938 -29.515625 6.945312 -29.546875 7.5625 -29.609375 C 8.175781 -29.679688 8.585938 -29.71875 8.796875 -29.71875 C 9.640625 -29.789062 10.253906 -29.828125 10.640625 -29.828125 C 10.742188 -29.828125 11.007812 -29.707031 11.4375 -29.46875 C 11.507812 -29.425781 11.546875 -29.367188 11.546875 -29.296875 C 11.546875 -29.234375 11.507812 -29.164062 11.4375 -29.09375 L 10.640625 -28.78125 L 5.84375 -28.25 C 5.144531 -28.144531 4.742188 -27.757812 4.640625 -27.09375 L 4.484375 -25.984375 C 4.410156 -25.273438 4.285156 -24.28125 4.109375 -23 C 3.929688 -21.71875 3.78125 -20.550781 3.65625 -19.5 C 3.539062 -18.445312 3.445312 -17.445312 3.375 -16.5 C 3.09375 -13.050781 2.898438 -9.941406 2.796875 -7.171875 C 2.691406 -5.097656 2.972656 -2.757812 3.640625 -0.15625 C 3.671875 0.0820312 3.8125 0.34375 4.0625 0.625 C 4.09375 0.664062 4.148438 0.6875 4.234375 0.6875 C 4.328125 0.6875 4.390625 0.664062 4.421875 0.625 C 4.703125 0.488281 4.914062 0.28125 5.0625 0 C 6.144531 -2.070312 6.757812 -3.285156 6.90625 -3.640625 C 7.257812 -4.484375 7.75 -5.71875 8.375 -7.34375 C 9.007812 -8.976562 9.484375 -10.21875 9.796875 -11.0625 C 10.078125 -11.84375 10.304688 -12.40625 10.484375 -12.75 C 10.660156 -13.101562 10.992188 -13.226562 11.484375 -13.125 C 11.765625 -13.125 11.90625 -12.984375 11.90625 -12.703125 C 11.90625 -12.453125 11.875 -12.15625 11.8125 -11.8125 C 9.90625 -6.46875 8.234375 -2.546875 6.796875 -0.046875 L 5.953125 1.265625 C 5.535156 1.859375 4.921875 2.28125 4.109375 2.53125 Z M 4.109375 2.53125 "/></g></g></g><g fill="#565656" fill-opacity="1"><g transform="translate(57.308809, 41.480223)"><g><path d="M 2.953125 0.53125 C 2.210938 0.425781 1.664062 0.0703125 1.3125 -0.53125 C 0.71875 -1.550781 0.367188 -2.617188 0.265625 -3.734375 C 0.160156 -4.367188 0.0703125 -5.285156 0 -6.484375 C -0.03125 -8.910156 0.210938 -11.40625 0.734375 -13.96875 C 0.804688 -14.351562 0.984375 -14.929688 1.265625 -15.703125 C 1.441406 -16.160156 1.8125 -16.351562 2.375 -16.28125 C 3.070312 -16.21875 3.457031 -15.90625 3.53125 -15.34375 C 3.53125 -14.84375 3.515625 -14.472656 3.484375 -14.234375 C 2.953125 -9.941406 2.722656 -6.898438 2.796875 -5.109375 C 2.796875 -3.671875 2.96875 -2.566406 3.3125 -1.796875 C 3.382812 -1.617188 3.492188 -1.53125 3.640625 -1.53125 C 3.773438 -1.457031 3.914062 -1.492188 4.0625 -1.640625 C 4.40625 -2.128906 4.648438 -2.492188 4.796875 -2.734375 C 5.847656 -4.742188 6.726562 -6.695312 7.4375 -8.59375 C 8.0625 -10.28125 8.550781 -11.546875 8.90625 -12.390625 C 9.1875 -13.160156 9.414062 -13.722656 9.59375 -14.078125 C 9.769531 -14.460938 10.054688 -14.679688 10.453125 -14.734375 C 10.859375 -14.785156 11.222656 -14.671875 11.546875 -14.390625 C 11.722656 -14.285156 11.84375 -14.109375 11.90625 -13.859375 C 11.945312 -13.546875 11.96875 -13.085938 11.96875 -12.484375 C 11.96875 -12.316406 11.941406 -11.351562 11.890625 -9.59375 C 11.835938 -7.832031 11.828125 -6.742188 11.859375 -6.328125 C 11.859375 -5.691406 11.910156 -5.09375 12.015625 -4.53125 C 12.046875 -4.320312 12.128906 -4.128906 12.265625 -3.953125 C 12.410156 -3.773438 12.539062 -3.6875 12.65625 -3.6875 C 12.9375 -3.6875 13.195312 -3.84375 13.4375 -4.15625 C 14 -4.789062 14.546875 -5.773438 15.078125 -7.109375 C 15.984375 -9.785156 16.507812 -11.296875 16.65625 -11.640625 C 16.726562 -11.992188 16.90625 -12.398438 17.1875 -12.859375 C 17.289062 -13.003906 17.484375 -13.109375 17.765625 -13.171875 C 17.972656 -13.210938 18.164062 -13.160156 18.34375 -13.015625 C 18.519531 -12.878906 18.570312 -12.722656 18.5 -12.546875 C 18.5 -12.503906 18.460938 -12.316406 18.390625 -11.984375 C 18.316406 -11.648438 18.25 -11.394531 18.1875 -11.21875 L 16.546875 -6.484375 C 16.160156 -5.390625 15.671875 -4.457031 15.078125 -3.6875 C 14.753906 -3.226562 14.4375 -2.894531 14.125 -2.6875 C 13.457031 -2.050781 12.648438 -1.863281 11.703125 -2.125 C 10.753906 -2.394531 10.15625 -2.988281 9.90625 -3.90625 C 9.800781 -4.289062 9.675781 -4.867188 9.53125 -5.640625 C 9.394531 -6.410156 9.3125 -6.867188 9.28125 -7.015625 C 9.28125 -7.117188 9.171875 -7.203125 8.953125 -7.265625 C 8.847656 -7.234375 8.796875 -7.203125 8.796875 -7.171875 C 8.765625 -7.097656 8.710938 -7.007812 8.640625 -6.90625 C 8.566406 -6.800781 8.503906 -6.703125 8.453125 -6.609375 C 8.398438 -6.523438 8.359375 -6.445312 8.328125 -6.375 C 8.117188 -5.957031 7.8125 -5.304688 7.40625 -4.421875 C 7 -3.546875 6.691406 -2.898438 6.484375 -2.484375 C 6.097656 -1.671875 5.710938 -1.019531 5.328125 -0.53125 C 4.828125 0.238281 4.035156 0.59375 2.953125 0.53125 Z M 2.953125 0.53125 "/></g></g></g><g fill="#565656" fill-opacity="1"><g transform="translate(73.700017, 41.480223)"><g><path d="M 2.734375 0 C 1.890625 0.0703125 1.363281 -0.257812 1.15625 -1 C 0.945312 -1.769531 0.828125 -2.367188 0.796875 -2.796875 L 0 -11.328125 L 0 -16.59375 C 0 -16.875 0.140625 -17.773438 0.421875 -19.296875 C 0.492188 -19.429688 0.632812 -19.550781 0.84375 -19.65625 C 1.050781 -19.757812 1.226562 -19.796875 1.375 -19.765625 C 2.039062 -19.585938 2.375 -19.234375 2.375 -18.703125 L 2.484375 -13.234375 C 2.484375 -13.085938 2.484375 -12.773438 2.484375 -12.296875 C 2.484375 -11.828125 2.5 -11.453125 2.53125 -11.171875 C 2.5625 -10.890625 2.648438 -10.609375 2.796875 -10.328125 C 2.828125 -10.253906 2.945312 -10.1875 3.15625 -10.125 C 3.15625 -10.082031 3.171875 -10.078125 3.203125 -10.109375 C 3.242188 -10.148438 3.28125 -10.1875 3.3125 -10.21875 C 3.457031 -10.5 3.546875 -10.710938 3.578125 -10.859375 L 4.328125 -13.234375 C 4.710938 -14.492188 5.21875 -15.597656 5.84375 -16.546875 C 6.164062 -17.035156 6.554688 -17.472656 7.015625 -17.859375 C 7.535156 -18.390625 8.269531 -18.503906 9.21875 -18.203125 C 10.164062 -17.910156 10.660156 -17.304688 10.703125 -16.390625 C 10.703125 -15.972656 10.578125 -15.726562 10.328125 -15.65625 C 9.972656 -15.582031 9.675781 -15.597656 9.4375 -15.703125 C 9.394531 -15.742188 9.234375 -15.988281 8.953125 -16.4375 C 8.671875 -16.820312 8.359375 -16.820312 8.015625 -16.4375 C 7.628906 -15.988281 7.378906 -15.625 7.265625 -15.34375 C 6.773438 -14.351562 6.375 -13.457031 6.0625 -12.65625 C 4.90625 -9.3125 4.164062 -5.921875 3.84375 -2.484375 L 3.6875 -1.109375 C 3.582031 -0.441406 3.265625 -0.0703125 2.734375 0 Z M 2.734375 0 "/></g></g></g><g fill="#565656" fill-opacity="1"><g transform="translate(84.399101, 41.480223)"><g><path d="M 7.953125 -2.109375 C 6.867188 -1.160156 5.628906 -0.84375 4.234375 -1.15625 C 2.847656 -1.476562 1.894531 -2.21875 1.375 -3.375 C 0.5625 -5.09375 0.101562 -6.847656 0 -8.640625 L 0 -9.703125 C -0.101562 -12.472656 0.316406 -14.859375 1.265625 -16.859375 C 1.753906 -17.878906 2.421875 -18.691406 3.265625 -19.296875 C 4.316406 -20.023438 5.476562 -20.144531 6.75 -19.65625 C 7.207031 -19.476562 7.53125 -19.175781 7.71875 -18.75 C 7.914062 -18.332031 7.941406 -17.894531 7.796875 -17.4375 C 7.128906 -15.363281 5.773438 -13.925781 3.734375 -13.125 C 3.140625 -12.914062 2.828125 -12.53125 2.796875 -11.96875 C 2.515625 -8.875 2.898438 -6.128906 3.953125 -3.734375 C 4.335938 -2.859375 4.738281 -2.375 5.15625 -2.28125 C 5.582031 -2.195312 6.128906 -2.472656 6.796875 -3.109375 C 7.460938 -3.742188 8.128906 -4.570312 8.796875 -5.59375 C 10.097656 -7.488281 11.257812 -9.523438 12.28125 -11.703125 C 12.738281 -12.503906 13.054688 -13.03125 13.234375 -13.28125 C 13.398438 -13.59375 13.734375 -13.695312 14.234375 -13.59375 C 14.546875 -13.457031 14.664062 -13.300781 14.59375 -13.125 C 14.5625 -12.84375 14.472656 -12.546875 14.328125 -12.234375 C 13.066406 -9.453125 11.679688 -6.9375 10.171875 -4.6875 C 9.472656 -3.664062 8.734375 -2.804688 7.953125 -2.109375 Z M 3.640625 -14.75 L 3.84375 -14.75 C 5.039062 -15.5625 5.765625 -16.582031 6.015625 -17.8125 C 6.015625 -17.988281 5.992188 -18.128906 5.953125 -18.234375 C 5.878906 -18.410156 5.789062 -18.515625 5.6875 -18.546875 C 5.550781 -18.617188 5.410156 -18.617188 5.265625 -18.546875 C 4.210938 -17.773438 3.597656 -16.632812 3.421875 -15.125 C 3.421875 -15.09375 3.457031 -15.023438 3.53125 -14.921875 Z M 3.640625 -14.75 "/></g></g></g><g fill="#565656" fill-opacity="1"><g transform="translate(96.890155, 41.480223)"><g/></g></g><g fill="#ff914d" fill-opacity="1"><g transform="translate(111.652076, 41.480223)"><g><path d="M 7.59375 2.484375 C 6.75 2.828125 5.992188 2.628906 5.328125 1.890625 C 4.546875 1.085938 4.050781 0.0703125 3.84375 -1.15625 C 3.601562 -2.425781 3.460938 -3.625 3.421875 -4.75 C 3.347656 -6.007812 3.28125 -7.90625 3.21875 -10.4375 L 3.21875 -15.015625 C 3.21875 -15.617188 3.179688 -16.515625 3.109375 -17.703125 C 3.035156 -18.335938 2.703125 -18.8125 2.109375 -19.125 C 1.617188 -19.34375 1.53125 -19.695312 1.84375 -20.1875 C 2.4375 -21.101562 2.804688 -22.332031 2.953125 -23.875 C 3.085938 -26.863281 3.207031 -29.0625 3.3125 -30.46875 C 3.382812 -31.3125 3.5625 -32.570312 3.84375 -34.25 C 4.050781 -35.3125 4.457031 -36.296875 5.0625 -37.203125 C 6.425781 -39.273438 8.269531 -39.820312 10.59375 -38.84375 C 11.289062 -38.5625 11.695312 -38.050781 11.8125 -37.3125 C 11.84375 -36.925781 11.742188 -36.59375 11.515625 -36.3125 C 11.285156 -36.03125 10.992188 -35.90625 10.640625 -35.9375 C 10.179688 -35.9375 9.9375 -36.148438 9.90625 -36.578125 C 9.90625 -36.648438 9.894531 -36.765625 9.875 -36.921875 C 9.863281 -37.078125 9.847656 -37.21875 9.828125 -37.34375 C 9.804688 -37.46875 9.78125 -37.582031 9.75 -37.6875 C 9.675781 -37.925781 9.488281 -38.082031 9.1875 -38.15625 C 8.894531 -38.226562 8.644531 -38.175781 8.4375 -38 C 8.082031 -37.75 7.75 -37.34375 7.4375 -36.78125 C 6.9375 -35.875 6.601562 -34.71875 6.4375 -33.3125 C 6.113281 -30.914062 5.9375 -28.859375 5.90625 -27.140625 C 5.90625 -26.335938 5.765625 -25.054688 5.484375 -23.296875 C 5.441406 -23.085938 5.265625 -22.4375 4.953125 -21.34375 C 4.921875 -21.238281 4.832031 -21.097656 4.6875 -20.921875 C 4.550781 -20.742188 4.457031 -20.578125 4.40625 -20.421875 C 4.351562 -20.265625 4.34375 -20.097656 4.375 -19.921875 C 4.40625 -19.785156 4.457031 -19.65625 4.53125 -19.53125 C 4.601562 -19.40625 4.695312 -19.28125 4.8125 -19.15625 C 4.9375 -19.03125 5.019531 -18.914062 5.0625 -18.8125 C 5.34375 -18.394531 5.484375 -17.882812 5.484375 -17.28125 C 5.585938 -16.226562 5.640625 -15.160156 5.640625 -14.078125 C 5.671875 -13.546875 5.6875 -12.753906 5.6875 -11.703125 C 5.6875 -10.648438 5.6875 -9.859375 5.6875 -9.328125 C 5.757812 -6.585938 5.847656 -4.53125 5.953125 -3.15625 C 6.023438 -1.75 6.410156 -0.539062 7.109375 0.46875 C 7.285156 0.71875 7.460938 0.84375 7.640625 0.84375 C 7.921875 0.84375 8.132812 0.648438 8.28125 0.265625 C 8.34375 -0.015625 8.410156 -0.226562 8.484375 -0.375 C 8.554688 -0.539062 8.800781 -0.695312 9.21875 -0.84375 C 9.394531 -0.875 9.570312 -0.828125 9.75 -0.703125 C 9.925781 -0.585938 9.992188 -0.441406 9.953125 -0.265625 C 9.847656 0.859375 9.34375 1.664062 8.4375 2.15625 Z M 7.59375 2.484375 "/></g></g></g><g fill="#565656" fill-opacity="1"><g transform="translate(125.578821, 41.480223)"><g><path d="M 30.984375 3.90625 C 31.304688 3.96875 31.414062 4.125 31.3125 4.375 C 31.164062 4.625 31.023438 4.800781 30.890625 4.90625 C 29.972656 5.289062 29.09375 5.21875 28.25 4.6875 C 27.757812 4.375 27.300781 3.882812 26.875 3.21875 C 26.414062 2.476562 26.066406 1.5625 25.828125 0.46875 C 25.648438 -0.257812 25.457031 -1.453125 25.25 -3.109375 C 24.894531 -5.847656 24.769531 -8.359375 24.875 -10.640625 L 24.984375 -13.390625 C 25.191406 -17.609375 25.332031 -20.859375 25.40625 -23.140625 C 25.476562 -24.222656 25.425781 -25.296875 25.25 -26.359375 C 25.03125 -27.585938 24.703125 -28.285156 24.265625 -28.453125 C 23.828125 -28.628906 23.148438 -28.472656 22.234375 -27.984375 C 21.566406 -27.671875 20.898438 -27.179688 20.234375 -26.515625 C 17.285156 -24.160156 14.703125 -21.171875 12.484375 -17.546875 C 12.484375 -17.441406 12.492188 -17.316406 12.515625 -17.171875 C 12.535156 -17.035156 12.546875 -16.953125 12.546875 -16.921875 C 12.679688 -15.753906 12.863281 -14.503906 13.09375 -13.171875 C 13.320312 -11.835938 13.488281 -10.765625 13.59375 -9.953125 C 13.695312 -9.148438 13.75 -8.253906 13.75 -7.265625 C 13.75 -5.972656 13.628906 -4.726562 13.390625 -3.53125 C 12.960938 -1.914062 12.398438 -0.597656 11.703125 0.421875 C 10.992188 1.472656 9.957031 2 8.59375 2 C 7.882812 1.925781 7.390625 1.609375 7.109375 1.046875 C 7.046875 0.910156 6.890625 0.492188 6.640625 -0.203125 C 6.390625 -1.222656 6.265625 -2.316406 6.265625 -3.484375 C 6.265625 -4.253906 6.320312 -5.039062 6.4375 -5.84375 C 6.675781 -8.800781 7.78125 -12.210938 9.75 -16.078125 L 9.59375 -17.015625 C 9.488281 -17.578125 9.382812 -18.929688 9.28125 -21.078125 L 8.53125 -20.765625 C 3.4375 -18.234375 1.398438 -15.6875 2.421875 -13.125 C 2.460938 -13.019531 2.550781 -12.882812 2.6875 -12.71875 C 2.832031 -12.5625 2.921875 -12.453125 2.953125 -12.390625 C 2.953125 -12.285156 2.914062 -12.160156 2.84375 -12.015625 C 2.769531 -11.941406 2.703125 -11.90625 2.640625 -11.90625 C 1.546875 -11.90625 0.820312 -12.347656 0.46875 -13.234375 C 0.15625 -14.003906 0 -14.671875 0 -15.234375 C 0 -16.359375 0.507812 -17.347656 1.53125 -18.203125 C 2.550781 -19.066406 4.800781 -20.359375 8.28125 -22.078125 C 8.488281 -22.148438 8.800781 -22.289062 9.21875 -22.5 C 9.082031 -24.050781 9.132812 -25.828125 9.375 -27.828125 C 9.488281 -29.160156 9.859375 -30.40625 10.484375 -31.5625 C 10.972656 -32.40625 11.675781 -32.9375 12.59375 -33.15625 C 12.664062 -33.15625 12.753906 -33.15625 12.859375 -33.15625 C 12.960938 -33.15625 13.078125 -33.15625 13.203125 -33.15625 C 13.328125 -33.15625 13.421875 -33.15625 13.484375 -33.15625 C 13.878906 -33.15625 14.179688 -33.117188 14.390625 -33.046875 C 15.828125 -32.660156 16.6875 -31.742188 16.96875 -30.296875 C 17 -30.128906 17.015625 -29.882812 17.015625 -29.5625 C 16.953125 -28.4375 16.796875 -27.539062 16.546875 -26.875 C 16.128906 -25.570312 14.632812 -24.097656 12.0625 -22.453125 L 12.234375 -20.296875 C 15.773438 -25.597656 19.285156 -28.6875 22.765625 -29.5625 C 23.640625 -29.8125 24.488281 -29.757812 25.3125 -29.40625 C 26.144531 -29.050781 26.769531 -28.472656 27.1875 -27.671875 C 27.507812 -27.066406 27.722656 -26.429688 27.828125 -25.765625 C 28.140625 -23.867188 28.242188 -21.742188 28.140625 -19.390625 L 27.71875 -13.484375 C 27.71875 -8.785156 27.753906 -5.75 27.828125 -4.375 C 27.960938 -2.332031 28.242188 -0.609375 28.671875 0.796875 C 28.878906 1.421875 29.144531 2.050781 29.46875 2.6875 C 29.78125 3.351562 30.285156 3.757812 30.984375 3.90625 Z M 11.0625 -6.015625 C 11.0625 -6.609375 10.78125 -8.976562 10.21875 -13.125 C 8.707031 -9.539062 8.003906 -6.0625 8.109375 -2.6875 C 8.109375 -2.476562 8.125 -2.25 8.15625 -2 C 8.195312 -1.757812 8.242188 -1.488281 8.296875 -1.1875 C 8.347656 -0.882812 8.394531 -0.644531 8.4375 -0.46875 C 8.570312 0.0195312 8.78125 0.316406 9.0625 0.421875 C 9.132812 0.492188 9.265625 0.445312 9.453125 0.28125 C 9.648438 0.125 9.785156 -0.0351562 9.859375 -0.203125 C 10.378906 -1.328125 10.710938 -2.347656 10.859375 -3.265625 C 10.992188 -4.460938 11.0625 -5.378906 11.0625 -6.015625 Z M 11.90625 -28.671875 C 11.769531 -27.796875 11.789062 -26.300781 11.96875 -24.1875 C 13.789062 -25.632812 14.84375 -27.003906 15.125 -28.296875 C 15.195312 -28.679688 15.195312 -29.242188 15.125 -29.984375 C 15.050781 -30.410156 14.984375 -30.742188 14.921875 -30.984375 C 14.878906 -31.203125 14.71875 -31.453125 14.4375 -31.734375 C 14.257812 -32.015625 13.976562 -32.117188 13.59375 -32.046875 C 13.3125 -31.972656 13.140625 -31.898438 13.078125 -31.828125 C 12.472656 -31.054688 12.082031 -30.003906 11.90625 -28.671875 Z M 11.90625 -28.671875 "/></g></g></g><g fill="#565656" fill-opacity="1"><g transform="translate(157.412568, 41.480223)"><g><path d="M 17.65625 -12.75 C 17.757812 -12.570312 17.742188 -12.363281 17.609375 -12.125 C 16.796875 -10.40625 15.625 -9.078125 14.09375 -8.140625 C 12.570312 -7.210938 11.140625 -6.851562 9.796875 -7.0625 C 9.515625 -6.082031 9.21875 -5.273438 8.90625 -4.640625 C 8.550781 -3.929688 8.164062 -3.367188 7.75 -2.953125 C 6.695312 -1.796875 5.394531 -1.375 3.84375 -1.6875 C 1.738281 -2.175781 0.457031 -3.421875 0 -5.421875 C -0.207031 -6.410156 -0.3125 -7.148438 -0.3125 -7.640625 C -0.101562 -11.929688 1.019531 -15.675781 3.0625 -18.875 C 3.269531 -19.21875 3.441406 -19.460938 3.578125 -19.609375 C 4.003906 -20.171875 4.617188 -20.289062 5.421875 -19.96875 C 5.773438 -19.832031 5.914062 -19.585938 5.84375 -19.234375 L 5.484375 -18.28125 C 6.535156 -18.113281 7.410156 -17.675781 8.109375 -16.96875 C 8.671875 -16.445312 9.171875 -15.707031 9.609375 -14.75 C 10.054688 -13.800781 10.296875 -12.785156 10.328125 -11.703125 C 10.359375 -10.535156 10.269531 -9.304688 10.0625 -8.015625 C 11.082031 -7.910156 12.222656 -8.257812 13.484375 -9.0625 C 14.753906 -9.875 15.671875 -11.085938 16.234375 -12.703125 C 16.472656 -12.878906 16.753906 -12.96875 17.078125 -12.96875 C 17.253906 -13.039062 17.445312 -12.96875 17.65625 -12.75 Z M 6.90625 -4.6875 C 7.5 -5.738281 7.898438 -6.796875 8.109375 -7.859375 C 7.304688 -8.484375 6.472656 -9.410156 5.609375 -10.640625 C 4.753906 -11.867188 4.148438 -12.925781 3.796875 -13.8125 C 3.054688 -11.632812 2.671875 -9.523438 2.640625 -7.484375 C 2.640625 -6.078125 2.8125 -4.953125 3.15625 -4.109375 C 3.40625 -3.691406 3.671875 -3.34375 3.953125 -3.0625 C 4.265625 -2.707031 4.6875 -2.65625 5.21875 -2.90625 C 5.882812 -3.289062 6.445312 -3.882812 6.90625 -4.6875 Z M 6.171875 -16.96875 C 6.023438 -17.113281 5.851562 -17.128906 5.65625 -17.015625 C 5.46875 -16.910156 5.335938 -16.769531 5.265625 -16.59375 C 5.265625 -16.5625 5.25 -16.5 5.21875 -16.40625 C 5.1875 -16.320312 5.160156 -16.242188 5.140625 -16.171875 C 5.117188 -16.109375 5.109375 -16.039062 5.109375 -15.96875 C 5.148438 -15.125 5.503906 -14.007812 6.171875 -12.625 C 6.835938 -11.238281 7.554688 -10.085938 8.328125 -9.171875 C 8.398438 -9.765625 8.4375 -10.675781 8.4375 -11.90625 C 8.394531 -13.5625 7.863281 -15.054688 6.84375 -16.390625 Z M 6.171875 -16.96875 "/></g></g></g><g fill="#565656" fill-opacity="1"><g transform="translate(173.013214, 41.480223)"><g><path d="M 4.109375 2.53125 C 3.023438 2.8125 2.269531 2.476562 1.84375 1.53125 C 1.488281 0.757812 1.242188 0.0546875 1.109375 -0.578125 C 0.335938 -4.023438 0.09375 -7.117188 0.375 -9.859375 C 0.375 -9.960938 0.378906 -10.117188 0.390625 -10.328125 C 0.410156 -10.535156 0.421875 -10.691406 0.421875 -10.796875 C 0.597656 -14.628906 0.929688 -18.25 1.421875 -21.65625 C 1.453125 -21.832031 1.609375 -23.273438 1.890625 -25.984375 L 1.890625 -27.09375 C 1.890625 -27.226562 1.828125 -27.359375 1.703125 -27.484375 C 1.585938 -27.609375 1.457031 -27.671875 1.3125 -27.671875 C 0.71875 -27.671875 0.265625 -27.648438 -0.046875 -27.609375 C -0.328125 -27.609375 -0.738281 -27.570312 -1.28125 -27.5 C -1.832031 -27.4375 -2.25 -27.390625 -2.53125 -27.359375 C -2.738281 -27.316406 -3.035156 -27.332031 -3.421875 -27.40625 C -3.597656 -27.476562 -3.6875 -27.582031 -3.6875 -27.71875 C -3.6875 -27.925781 -3.632812 -28.050781 -3.53125 -28.09375 C -3.28125 -28.226562 -2.703125 -28.382812 -1.796875 -28.5625 L 1.578125 -29.046875 C 2.003906 -29.078125 2.269531 -29.320312 2.375 -29.78125 L 3 -32.890625 C 3.175781 -33.660156 3.671875 -33.890625 4.484375 -33.578125 C 4.796875 -33.398438 4.96875 -33.171875 5 -32.890625 C 5.070312 -32.460938 5.109375 -32.160156 5.109375 -31.984375 C 5.109375 -31.816406 5.097656 -31.59375 5.078125 -31.3125 C 5.066406 -31.03125 5.0625 -30.800781 5.0625 -30.625 C 5.0625 -30.195312 5.140625 -29.894531 5.296875 -29.71875 C 5.453125 -29.550781 5.722656 -29.484375 6.109375 -29.515625 C 6.460938 -29.515625 6.945312 -29.546875 7.5625 -29.609375 C 8.175781 -29.679688 8.585938 -29.71875 8.796875 -29.71875 C 9.640625 -29.789062 10.253906 -29.828125 10.640625 -29.828125 C 10.742188 -29.828125 11.007812 -29.707031 11.4375 -29.46875 C 11.507812 -29.425781 11.546875 -29.367188 11.546875 -29.296875 C 11.546875 -29.234375 11.507812 -29.164062 11.4375 -29.09375 L 10.640625 -28.78125 L 5.84375 -28.25 C 5.144531 -28.144531 4.742188 -27.757812 4.640625 -27.09375 L 4.484375 -25.984375 C 4.410156 -25.273438 4.285156 -24.28125 4.109375 -23 C 3.929688 -21.71875 3.78125 -20.550781 3.65625 -19.5 C 3.539062 -18.445312 3.445312 -17.445312 3.375 -16.5 C 3.09375 -13.050781 2.898438 -9.941406 2.796875 -7.171875 C 2.691406 -5.097656 2.972656 -2.757812 3.640625 -0.15625 C 3.671875 0.0820312 3.8125 0.34375 4.0625 0.625 C 4.09375 0.664062 4.148438 0.6875 4.234375 0.6875 C 4.328125 0.6875 4.390625 0.664062 4.421875 0.625 C 4.703125 0.488281 4.914062 0.28125 5.0625 0 C 6.144531 -2.070312 6.757812 -3.285156 6.90625 -3.640625 C 7.257812 -4.484375 7.75 -5.71875 8.375 -7.34375 C 9.007812 -8.976562 9.484375 -10.21875 9.796875 -11.0625 C 10.078125 -11.84375 10.304688 -12.40625 10.484375 -12.75 C 10.660156 -13.101562 10.992188 -13.226562 11.484375 -13.125 C 11.765625 -13.125 11.90625 -12.984375 11.90625 -12.703125 C 11.90625 -12.453125 11.875 -12.15625 11.8125 -11.8125 C 9.90625 -6.46875 8.234375 -2.546875 6.796875 -0.046875 L 5.953125 1.265625 C 5.535156 1.859375 4.921875 2.28125 4.109375 2.53125 Z M 4.109375 2.53125 "/></g></g></g><g fill="#565656" fill-opacity="1"><g transform="translate(182.816321, 41.480223)"><g><path d="M 7.953125 -2.109375 C 6.867188 -1.160156 5.628906 -0.84375 4.234375 -1.15625 C 2.847656 -1.476562 1.894531 -2.21875 1.375 -3.375 C 0.5625 -5.09375 0.101562 -6.847656 0 -8.640625 L 0 -9.703125 C -0.101562 -12.472656 0.316406 -14.859375 1.265625 -16.859375 C 1.753906 -17.878906 2.421875 -18.691406 3.265625 -19.296875 C 4.316406 -20.023438 5.476562 -20.144531 6.75 -19.65625 C 7.207031 -19.476562 7.53125 -19.175781 7.71875 -18.75 C 7.914062 -18.332031 7.941406 -17.894531 7.796875 -17.4375 C 7.128906 -15.363281 5.773438 -13.925781 3.734375 -13.125 C 3.140625 -12.914062 2.828125 -12.53125 2.796875 -11.96875 C 2.515625 -8.875 2.898438 -6.128906 3.953125 -3.734375 C 4.335938 -2.859375 4.738281 -2.375 5.15625 -2.28125 C 5.582031 -2.195312 6.128906 -2.472656 6.796875 -3.109375 C 7.460938 -3.742188 8.128906 -4.570312 8.796875 -5.59375 C 10.097656 -7.488281 11.257812 -9.523438 12.28125 -11.703125 C 12.738281 -12.503906 13.054688 -13.03125 13.234375 -13.28125 C 13.398438 -13.59375 13.734375 -13.695312 14.234375 -13.59375 C 14.546875 -13.457031 14.664062 -13.300781 14.59375 -13.125 C 14.5625 -12.84375 14.472656 -12.546875 14.328125 -12.234375 C 13.066406 -9.453125 11.679688 -6.9375 10.171875 -4.6875 C 9.472656 -3.664062 8.734375 -2.804688 7.953125 -2.109375 Z M 3.640625 -14.75 L 3.84375 -14.75 C 5.039062 -15.5625 5.765625 -16.582031 6.015625 -17.8125 C 6.015625 -17.988281 5.992188 -18.128906 5.953125 -18.234375 C 5.878906 -18.410156 5.789062 -18.515625 5.6875 -18.546875 C 5.550781 -18.617188 5.410156 -18.617188 5.265625 -18.546875 C 4.210938 -17.773438 3.597656 -16.632812 3.421875 -15.125 C 3.421875 -15.09375 3.457031 -15.023438 3.53125 -14.921875 Z M 3.640625 -14.75 "/></g></g></g><g fill="#565656" fill-opacity="1"><g transform="translate(195.307375, 41.480223)"><g><path d="M 2.3125 5.53125 C 1.6875 5.289062 1.210938 4.890625 0.890625 4.328125 C 0.578125 3.765625 0.488281 3.148438 0.625 2.484375 C 0.84375 1.566406 1.234375 0.738281 1.796875 0 C 2.460938 -0.875 3.179688 -1.753906 3.953125 -2.640625 C 4.367188 -3.085938 4.457031 -3.578125 4.21875 -4.109375 C 4.070312 -4.460938 3.785156 -5.144531 3.359375 -6.15625 C 2.941406 -7.175781 2.613281 -7.953125 2.375 -8.484375 C 1.488281 -10.453125 0.925781 -11.875 0.6875 -12.75 C 0.507812 -13.738281 0.421875 -14.320312 0.421875 -14.5 C 0.390625 -15.582031 0.6875 -16.492188 1.3125 -17.234375 C 1.945312 -17.972656 2.8125 -18.410156 3.90625 -18.546875 L 4.578125 -18.546875 C 5.359375 -18.546875 6.148438 -18.316406 6.953125 -17.859375 C 7.554688 -17.472656 7.96875 -16.960938 8.1875 -16.328125 C 8.414062 -15.703125 8.410156 -15.09375 8.171875 -14.5 C 8.066406 -14.21875 7.890625 -14.039062 7.640625 -13.96875 C 7.390625 -13.894531 7.144531 -13.945312 6.90625 -14.125 C 6.65625 -14.257812 6.53125 -14.4375 6.53125 -14.65625 C 6.53125 -14.757812 6.519531 -14.96875 6.5 -15.28125 C 6.488281 -15.601562 6.46875 -15.847656 6.4375 -16.015625 C 6.394531 -16.335938 6.234375 -16.65625 5.953125 -16.96875 C 5.640625 -17.394531 5.21875 -17.519531 4.6875 -17.34375 C 3.664062 -16.882812 3.085938 -16.144531 2.953125 -15.125 C 2.921875 -14.382812 3.007812 -13.644531 3.21875 -12.90625 C 3.914062 -10.9375 4.929688 -8.722656 6.265625 -6.265625 C 6.378906 -6.097656 6.53125 -6.015625 6.71875 -6.015625 C 6.914062 -6.015625 7.082031 -6.097656 7.21875 -6.265625 C 8.132812 -7.285156 9.363281 -8.921875 10.90625 -11.171875 C 11.1875 -11.660156 11.644531 -12.363281 12.28125 -13.28125 C 12.414062 -13.488281 12.679688 -13.59375 13.078125 -13.59375 C 13.285156 -13.59375 13.445312 -13.515625 13.5625 -13.359375 C 13.6875 -13.203125 13.71875 -13.035156 13.65625 -12.859375 C 12.988281 -11.453125 12.160156 -10.097656 11.171875 -8.796875 C 9.484375 -6.660156 8.484375 -5.414062 8.171875 -5.0625 C 7.460938 -4.25 7.234375 -3.421875 7.484375 -2.578125 C 7.585938 -2.296875 7.675781 -1.859375 7.75 -1.265625 C 7.820312 -0.671875 7.875 -0.300781 7.90625 -0.15625 C 8.007812 0.894531 7.867188 1.945312 7.484375 3 C 7.097656 4.09375 6.394531 4.875 5.375 5.34375 C 4.351562 5.820312 3.332031 5.882812 2.3125 5.53125 Z M 3.90625 4.484375 C 4.1875 4.265625 4.394531 4.050781 4.53125 3.84375 C 4.957031 3.21875 5.203125 2.203125 5.265625 0.796875 L 4.90625 -0.734375 C 4.90625 -0.773438 4.847656 -0.8125 4.734375 -0.84375 C 4.628906 -0.875 4.5625 -0.875 4.53125 -0.84375 C 4.070312 -0.457031 3.753906 -0.140625 3.578125 0.109375 C 2.878906 1.054688 2.492188 1.929688 2.421875 2.734375 C 2.316406 3.296875 2.421875 3.789062 2.734375 4.21875 C 3.085938 4.738281 3.476562 4.828125 3.90625 4.484375 Z M 3.90625 4.484375 "/></g></g></g><g fill="#ff914d" fill-opacity="1"><g transform="translate(206.904343, 41.480223)"><g><path d="M 5.796875 2.484375 L 4.953125 2.15625 C 4.035156 1.664062 3.523438 0.859375 3.421875 -0.265625 C 3.390625 -0.441406 3.460938 -0.585938 3.640625 -0.703125 C 3.816406 -0.828125 3.988281 -0.875 4.15625 -0.84375 C 4.582031 -0.695312 4.832031 -0.539062 4.90625 -0.375 C 4.96875 -0.226562 5.035156 -0.015625 5.109375 0.265625 C 5.253906 0.648438 5.46875 0.84375 5.75 0.84375 C 5.925781 0.84375 6.097656 0.71875 6.265625 0.46875 C 6.972656 -0.539062 7.363281 -1.75 7.4375 -3.15625 C 7.539062 -4.53125 7.625 -6.585938 7.6875 -9.328125 C 7.6875 -9.859375 7.6875 -10.648438 7.6875 -11.703125 C 7.6875 -12.753906 7.707031 -13.546875 7.75 -14.078125 C 7.75 -15.160156 7.800781 -16.226562 7.90625 -17.28125 C 7.90625 -17.882812 8.046875 -18.394531 8.328125 -18.8125 C 8.359375 -18.851562 8.46875 -19.003906 8.65625 -19.265625 C 8.851562 -19.523438 8.96875 -19.742188 9 -19.921875 C 9.039062 -20.097656 9.035156 -20.265625 8.984375 -20.421875 C 8.929688 -20.578125 8.832031 -20.742188 8.6875 -20.921875 C 8.550781 -21.097656 8.46875 -21.238281 8.4375 -21.34375 C 8.113281 -22.4375 7.9375 -23.085938 7.90625 -23.296875 C 7.625 -25.054688 7.484375 -26.335938 7.484375 -27.140625 C 7.453125 -28.859375 7.273438 -30.914062 6.953125 -33.3125 C 6.773438 -34.71875 6.441406 -35.875 5.953125 -36.78125 C 5.640625 -37.34375 5.304688 -37.75 4.953125 -38 C 4.742188 -38.175781 4.488281 -38.226562 4.1875 -38.15625 C 3.882812 -38.082031 3.703125 -37.925781 3.640625 -37.6875 L 3.484375 -36.578125 C 3.441406 -36.148438 3.191406 -35.9375 2.734375 -35.9375 C 2.390625 -35.90625 2.101562 -36.03125 1.875 -36.3125 C 1.644531 -36.59375 1.546875 -36.925781 1.578125 -37.3125 C 1.679688 -38.050781 2.085938 -38.5625 2.796875 -38.84375 C 5.109375 -39.820312 6.953125 -39.273438 8.328125 -37.203125 C 8.921875 -36.296875 9.328125 -35.3125 9.546875 -34.25 C 9.816406 -32.570312 9.988281 -31.3125 10.0625 -30.46875 C 10.164062 -29.0625 10.289062 -26.863281 10.4375 -23.875 C 10.570312 -22.332031 10.941406 -21.101562 11.546875 -20.1875 C 11.859375 -19.695312 11.769531 -19.34375 11.28125 -19.125 C 10.675781 -18.8125 10.34375 -18.335938 10.28125 -17.703125 C 10.207031 -16.515625 10.171875 -15.617188 10.171875 -15.015625 L 10.171875 -10.4375 C 10.097656 -7.90625 10.023438 -6.007812 9.953125 -4.75 C 9.921875 -3.625 9.785156 -2.425781 9.546875 -1.15625 C 9.328125 0.0703125 8.832031 1.085938 8.0625 1.890625 C 7.394531 2.628906 6.640625 2.828125 5.796875 2.484375 Z M 5.796875 2.484375 "/></g></g></g></svg>