<svg xmlns="http://www.w3.org/2000/svg" xmlns:xlink="http://www.w3.org/1999/xlink" width="1200" zoomAndPan="magnify" viewBox="0 0 900 209.999996" height="280" preserveAspectRatio="xMidYMid meet" version="1.0"><defs><g/></defs><rect x="-90" width="1080" fill="#ffffff" y="-21" height="251.999995" fill-opacity="1"/><rect x="-90" width="1080" fill="#ffffff" y="-21" height="251.999995" fill-opacity="1"/><g fill="#565656" fill-opacity="1"><g transform="translate(12.206636, 167.501095)"><g><path d="M 65.765625 21.28125 C 59.097656 21.28125 52.710938 19.363281 46.609375 15.53125 C 44.910156 14.394531 40.9375 11.5625 34.6875 7.03125 L 29.15625 2.34375 C 27.738281 1.207031 26.601562 1.207031 25.75 2.34375 L 22.34375 5.53125 C 18.09375 9.789062 12.773438 11.351562 6.390625 10.21875 C 5.535156 10.070312 4.398438 9.578125 2.984375 8.734375 C 1.140625 7.171875 0.179688 4.828125 0.109375 1.703125 C 0.0351562 -1.421875 0.78125 -3.832031 2.34375 -5.53125 C 3.90625 -7.375 5.675781 -8.582031 7.65625 -9.15625 C 10.925781 -10 12.703125 -10.421875 12.984375 -10.421875 C 13.265625 -10.421875 14.328125 -10.457031 16.171875 -10.53125 C 18.015625 -10.601562 19.363281 -10.925781 20.21875 -11.5 C 20.925781 -12.0625 21.492188 -12.769531 21.921875 -13.625 C 22.347656 -14.476562 22.773438 -15.613281 23.203125 -17.03125 C 23.628906 -18.445312 23.910156 -19.367188 24.046875 -19.796875 C 26.460938 -27.171875 28.945312 -38.804688 31.5 -54.703125 C 31.925781 -57.535156 30.789062 -59.453125 28.09375 -60.453125 L 25.546875 -61.09375 L 23.625 -61.515625 C 16.957031 -63.640625 11.707031 -68.460938 7.875 -75.984375 C 7.3125 -77.265625 7.171875 -78.472656 7.453125 -79.609375 C 7.453125 -80.597656 7.878906 -81.375 8.734375 -81.9375 C 9.578125 -82.226562 10.425781 -82.160156 11.28125 -81.734375 C 12.695312 -80.878906 13.617188 -80.097656 14.046875 -79.390625 L 17.234375 -73.859375 C 19.078125 -70.734375 21.28125 -68.25 23.84375 -66.40625 C 24.6875 -65.695312 26.101562 -65.054688 28.09375 -64.484375 C 31.21875 -63.492188 32.992188 -64.5625 33.421875 -67.6875 L 35.328125 -80.453125 C 35.609375 -82.015625 36 -84.285156 36.5 -87.265625 C 37 -90.242188 37.460938 -92.9375 37.890625 -95.34375 C 38.316406 -97.757812 38.738281 -100.035156 39.15625 -102.171875 C 39.726562 -105.566406 40.796875 -108.757812 42.359375 -111.75 C 43.210938 -113.875 44.414062 -116 45.96875 -118.125 C 48.664062 -121.675781 52.035156 -123.59375 56.078125 -123.875 C 60.128906 -124.15625 63.710938 -122.738281 66.828125 -119.625 C 69.804688 -116.925781 71.367188 -113.660156 71.515625 -109.828125 C 71.515625 -105.285156 71.300781 -101.953125 70.875 -99.828125 C 68.175781 -86.910156 61.4375 -75.910156 50.65625 -66.828125 C 49.800781 -65.984375 49.304688 -65.5625 49.171875 -65.5625 C 45.191406 -63.707031 42.847656 -59.734375 42.140625 -53.640625 C 39.867188 -36.460938 36.394531 -21.847656 31.71875 -9.796875 C 30.71875 -7.378906 31 -5.460938 32.5625 -4.046875 C 33.5625 -3.191406 35.582031 -1.414062 38.625 1.28125 C 41.675781 3.976562 44.054688 6.035156 45.765625 7.453125 C 50.722656 11.285156 55.191406 13.976562 59.171875 15.53125 C 63.429688 17.238281 67.265625 17.738281 70.671875 17.03125 C 75.492188 16.03125 77.972656 13.050781 78.109375 8.09375 C 78.253906 7.800781 78.328125 7.335938 78.328125 6.703125 C 78.328125 6.066406 78.328125 5.609375 78.328125 5.328125 C 78.609375 4.328125 79.316406 3.828125 80.453125 3.828125 C 83.429688 3.398438 85.273438 4.535156 85.984375 7.234375 C 86.835938 11.773438 85.421875 15.179688 81.734375 17.453125 C 77.617188 20.003906 72.296875 21.28125 65.765625 21.28125 Z M 45.546875 -76.203125 C 45.828125 -75.203125 46.25 -74.488281 46.8125 -74.0625 C 47.382812 -73.644531 48.171875 -73.929688 49.171875 -74.921875 C 57.253906 -83.003906 62.078125 -93.007812 63.640625 -104.9375 C 64.066406 -107.625 63.925781 -110.316406 63.21875 -113.015625 C 63.070312 -113.441406 62.890625 -113.9375 62.671875 -114.5 C 62.460938 -115.070312 62.359375 -115.5 62.359375 -115.78125 C 61.796875 -117.0625 60.910156 -117.84375 59.703125 -118.125 C 58.492188 -118.40625 57.394531 -118.050781 56.40625 -117.0625 C 54.84375 -115.5 53.707031 -114.082031 53 -112.8125 C 51.4375 -110.539062 50.160156 -107.414062 49.171875 -103.4375 C 48.597656 -101.457031 47.390625 -93.441406 45.546875 -79.390625 Z M 10.640625 4.890625 C 10.640625 4.753906 10.78125 4.6875 11.0625 4.6875 L 11.5 4.6875 C 14.1875 2.84375 16.171875 -0.132812 17.453125 -4.25 C 17.597656 -4.675781 17.421875 -5.140625 16.921875 -5.640625 C 16.421875 -6.140625 15.816406 -6.457031 15.109375 -6.59375 C 12.554688 -6.882812 10.5 -5.894531 8.9375 -3.625 C 7.375 -1.0625 7.445312 1.492188 9.15625 4.046875 C 9.289062 4.328125 9.785156 4.609375 10.640625 4.890625 Z M 10.640625 4.890625 "/></g></g></g><g fill="#565656" fill-opacity="1"><g transform="translate(82.439612, 167.501095)"><g><path d="M 32.140625 -8.515625 C 27.742188 -4.679688 22.742188 -3.398438 17.140625 -4.671875 C 11.535156 -5.953125 7.664062 -8.9375 5.53125 -13.625 C 2.269531 -20.570312 0.425781 -27.664062 0 -34.90625 L 0 -39.15625 C -0.425781 -50.375 1.273438 -60.023438 5.109375 -68.109375 C 7.097656 -72.222656 9.796875 -75.488281 13.203125 -77.90625 C 17.453125 -80.882812 22.132812 -81.378906 27.25 -79.390625 C 29.09375 -78.679688 30.40625 -77.472656 31.1875 -75.765625 C 31.96875 -74.066406 32.070312 -72.296875 31.5 -70.453125 C 28.800781 -62.078125 23.335938 -56.257812 15.109375 -53 C 12.703125 -52.144531 11.425781 -50.582031 11.28125 -48.3125 C 10.144531 -35.820312 11.707031 -24.753906 15.96875 -15.109375 C 17.519531 -11.566406 19.144531 -9.617188 20.84375 -9.265625 C 22.550781 -8.910156 24.753906 -10.007812 27.453125 -12.5625 C 30.148438 -15.113281 32.847656 -18.445312 35.546875 -22.5625 C 40.796875 -30.226562 45.476562 -38.457031 49.59375 -47.25 C 51.4375 -50.507812 52.710938 -52.640625 53.421875 -53.640625 C 54.128906 -54.910156 55.476562 -55.332031 57.46875 -54.90625 C 58.75 -54.34375 59.242188 -53.707031 58.953125 -53 C 58.816406 -51.863281 58.460938 -50.65625 57.890625 -49.375 C 52.785156 -38.164062 47.179688 -28.019531 41.078125 -18.9375 C 38.242188 -14.820312 35.265625 -11.347656 32.140625 -8.515625 Z M 14.6875 -59.59375 L 15.53125 -59.59375 C 20.363281 -62.851562 23.273438 -66.96875 24.265625 -71.9375 C 24.265625 -72.644531 24.191406 -73.210938 24.046875 -73.640625 C 23.765625 -74.347656 23.410156 -74.773438 22.984375 -74.921875 C 22.421875 -75.203125 21.851562 -75.203125 21.28125 -74.921875 C 17.03125 -71.796875 14.546875 -67.1875 13.828125 -61.09375 C 13.828125 -60.945312 13.972656 -60.660156 14.265625 -60.234375 Z M 14.6875 -59.59375 "/></g></g></g><g fill="#565656" fill-opacity="1"><g transform="translate(132.879681, 167.501095)"><g><path d="M 25.75 2.34375 C 22.488281 4.1875 18.867188 4.679688 14.890625 3.828125 C 10.921875 2.972656 7.941406 1.054688 5.953125 -1.921875 C 3.265625 -5.609375 1.28125 -9.722656 0 -14.265625 C -1.5625 -20.648438 -2.269531 -25.257812 -2.125 -28.09375 C -1.988281 -36.75 -0.710938 -44.835938 1.703125 -52.359375 C 3.117188 -56.617188 5.460938 -60.59375 8.734375 -64.28125 C 14.972656 -71.375 22.703125 -73.359375 31.921875 -70.234375 C 35.472656 -68.960938 37.675781 -66.550781 38.53125 -63 C 38.945312 -61.15625 38.835938 -58.78125 38.203125 -55.875 C 37.566406 -52.96875 36.609375 -50.734375 35.328125 -49.171875 C 34.898438 -48.742188 34.050781 -48.390625 32.78125 -48.109375 C 31.78125 -47.816406 30.925781 -48.023438 30.21875 -48.734375 C 29.507812 -49.453125 29.226562 -50.304688 29.375 -51.296875 C 29.507812 -51.859375 29.753906 -52.957031 30.109375 -54.59375 C 30.472656 -56.226562 30.722656 -57.46875 30.859375 -58.3125 C 31.140625 -60.300781 30.992188 -62.078125 30.421875 -63.640625 C 29.859375 -65.203125 29.007812 -66.125 27.875 -66.40625 C 25.894531 -66.832031 23.484375 -65.769531 20.640625 -63.21875 C 17.804688 -60.09375 15.75 -56.6875 14.46875 -53 C 8.9375 -36.394531 8.722656 -21.425781 13.828125 -8.09375 C 15.535156 -3.6875 17.171875 -1.304688 18.734375 -0.953125 C 20.296875 -0.597656 22.707031 -1.984375 25.96875 -5.109375 C 29.65625 -8.515625 33.414062 -12.910156 37.25 -18.296875 C 43.0625 -26.390625 48.453125 -34.976562 53.421875 -44.0625 C 54.835938 -46.757812 56.1875 -49.171875 57.46875 -51.296875 C 58.175781 -52.429688 59.171875 -53 60.453125 -53 C 61.296875 -53.132812 62.035156 -52.882812 62.671875 -52.25 C 63.316406 -51.613281 63.5 -50.941406 63.21875 -50.234375 C 62.925781 -49.097656 62.640625 -48.242188 62.359375 -47.671875 C 56.117188 -35.046875 49.023438 -23.625 41.078125 -13.40625 C 38.242188 -9.570312 35.050781 -5.882812 31.5 -2.34375 C 30.21875 -0.925781 28.300781 0.632812 25.75 2.34375 Z M 25.75 2.34375 "/></g></g></g><g fill="#565656" fill-opacity="1"><g transform="translate(187.789142, 167.501095)"><g><path d="M 16.609375 10.21875 C 12.203125 11.351562 9.148438 10.003906 7.453125 6.171875 C 6.035156 3.046875 5.039062 0.207031 4.46875 -2.34375 C 1.34375 -16.25 0.347656 -28.734375 1.484375 -39.796875 C 1.484375 -40.222656 1.519531 -40.863281 1.59375 -41.71875 C 1.664062 -42.570312 1.703125 -43.210938 1.703125 -43.640625 C 2.410156 -59.097656 3.757812 -73.710938 5.75 -87.484375 C 5.882812 -88.191406 6.519531 -94.007812 7.65625 -104.9375 L 7.65625 -109.40625 C 7.65625 -109.96875 7.40625 -110.5 6.90625 -111 C 6.414062 -111.5 5.890625 -111.75 5.328125 -111.75 C 2.910156 -111.75 1.0625 -111.675781 -0.21875 -111.53125 C -1.351562 -111.53125 -3.019531 -111.382812 -5.21875 -111.09375 C -7.414062 -110.8125 -9.082031 -110.601562 -10.21875 -110.46875 C -11.070312 -110.320312 -12.273438 -110.390625 -13.828125 -110.671875 C -14.546875 -110.960938 -14.90625 -111.390625 -14.90625 -111.953125 C -14.90625 -112.804688 -14.691406 -113.304688 -14.265625 -113.453125 C -13.265625 -114.015625 -10.921875 -114.648438 -7.234375 -115.359375 L 6.390625 -117.28125 C 8.085938 -117.414062 9.148438 -118.40625 9.578125 -120.25 L 12.125 -132.8125 C 12.84375 -135.9375 14.832031 -136.859375 18.09375 -135.578125 C 19.363281 -134.867188 20.070312 -133.945312 20.21875 -132.8125 C 20.5 -131.113281 20.640625 -129.90625 20.640625 -129.1875 C 20.640625 -128.476562 20.601562 -127.554688 20.53125 -126.421875 C 20.46875 -125.285156 20.4375 -124.363281 20.4375 -123.65625 C 20.4375 -121.957031 20.753906 -120.753906 21.390625 -120.046875 C 22.023438 -119.335938 23.125 -119.050781 24.6875 -119.1875 C 26.101562 -119.1875 28.050781 -119.328125 30.53125 -119.609375 C 33.019531 -119.898438 34.691406 -120.046875 35.546875 -120.046875 C 38.953125 -120.328125 41.4375 -120.46875 43 -120.46875 C 43.425781 -120.46875 44.488281 -119.972656 46.1875 -118.984375 C 46.46875 -118.835938 46.609375 -118.625 46.609375 -118.34375 C 46.609375 -118.0625 46.46875 -117.773438 46.1875 -117.484375 L 43 -116.21875 L 23.625 -114.078125 C 20.789062 -113.660156 19.160156 -112.101562 18.734375 -109.40625 L 18.09375 -104.9375 C 17.8125 -102.09375 17.3125 -98.082031 16.59375 -92.90625 C 15.882812 -87.726562 15.28125 -83.007812 14.78125 -78.75 C 14.289062 -74.488281 13.90625 -70.445312 13.625 -66.625 C 12.488281 -52.71875 11.707031 -40.160156 11.28125 -28.953125 C 10.851562 -20.578125 11.988281 -11.140625 14.6875 -0.640625 C 14.832031 0.347656 15.398438 1.410156 16.390625 2.546875 C 16.535156 2.691406 16.785156 2.765625 17.140625 2.765625 C 17.492188 2.765625 17.738281 2.691406 17.875 2.546875 C 19.007812 1.984375 19.863281 1.132812 20.4375 0 C 24.832031 -8.375 27.3125 -13.269531 27.875 -14.6875 C 29.300781 -18.09375 31.289062 -23.09375 33.84375 -29.6875 C 36.394531 -36.289062 38.3125 -41.296875 39.59375 -44.703125 C 40.726562 -47.816406 41.648438 -50.082031 42.359375 -51.5 C 43.066406 -52.925781 44.414062 -53.425781 46.40625 -53 C 47.539062 -53 48.109375 -52.429688 48.109375 -51.296875 C 48.109375 -50.304688 47.960938 -49.097656 47.671875 -47.671875 C 40.015625 -26.109375 33.273438 -10.289062 27.453125 -0.21875 L 24.046875 5.109375 C 22.347656 7.523438 19.867188 9.226562 16.609375 10.21875 Z M 16.609375 10.21875 "/></g></g></g><g fill="#565656" fill-opacity="1"><g transform="translate(227.375022, 167.501095)"><g><path d="M 11.921875 2.125 C 8.941406 1.695312 6.742188 0.28125 5.328125 -2.125 C 2.910156 -6.238281 1.488281 -10.566406 1.0625 -15.109375 C 0.632812 -17.660156 0.28125 -21.351562 0 -26.1875 C -0.144531 -35.96875 0.847656 -46.039062 2.984375 -56.40625 C 3.265625 -57.96875 3.972656 -60.304688 5.109375 -63.421875 C 5.816406 -65.265625 7.304688 -66.046875 9.578125 -65.765625 C 12.410156 -65.484375 13.972656 -64.207031 14.265625 -61.9375 C 14.265625 -59.945312 14.191406 -58.457031 14.046875 -57.46875 C 11.921875 -40.15625 11 -27.878906 11.28125 -20.640625 C 11.28125 -14.828125 11.988281 -10.359375 13.40625 -7.234375 C 13.6875 -6.523438 14.113281 -6.171875 14.6875 -6.171875 C 15.25 -5.890625 15.816406 -6.03125 16.390625 -6.59375 C 17.804688 -8.582031 18.800781 -10.070312 19.375 -11.0625 C 23.625 -19.15625 27.171875 -27.03125 30.015625 -34.6875 C 32.566406 -41.5 34.550781 -46.609375 35.96875 -50.015625 C 37.101562 -53.140625 38.023438 -55.410156 38.734375 -56.828125 C 39.441406 -58.390625 40.613281 -59.273438 42.25 -59.484375 C 43.882812 -59.703125 45.335938 -59.242188 46.609375 -58.109375 C 47.316406 -57.679688 47.816406 -56.972656 48.109375 -55.984375 C 48.242188 -54.703125 48.3125 -52.851562 48.3125 -50.4375 C 48.3125 -49.726562 48.203125 -45.828125 47.984375 -38.734375 C 47.773438 -31.640625 47.742188 -27.242188 47.890625 -25.546875 C 47.890625 -22.984375 48.101562 -20.566406 48.53125 -18.296875 C 48.664062 -17.453125 49.015625 -16.675781 49.578125 -15.96875 C 50.148438 -15.257812 50.648438 -14.90625 51.078125 -14.90625 C 52.210938 -14.90625 53.28125 -15.539062 54.28125 -16.8125 C 56.550781 -19.363281 58.75 -23.335938 60.875 -28.734375 C 64.5625 -39.515625 66.691406 -45.613281 67.265625 -47.03125 C 67.546875 -48.457031 68.253906 -50.09375 69.390625 -51.9375 C 69.816406 -52.5 70.597656 -52.921875 71.734375 -53.203125 C 72.578125 -53.347656 73.351562 -53.132812 74.0625 -52.5625 C 74.78125 -52 74.992188 -51.363281 74.703125 -50.65625 C 74.703125 -50.507812 74.5625 -49.765625 74.28125 -48.421875 C 74 -47.078125 73.71875 -46.046875 73.4375 -45.328125 L 66.828125 -26.1875 C 65.265625 -21.78125 63.28125 -18.019531 60.875 -14.90625 C 59.59375 -13.050781 58.316406 -11.703125 57.046875 -10.859375 C 54.347656 -8.304688 51.082031 -7.5625 47.25 -8.625 C 43.414062 -9.6875 41.003906 -12.0625 40.015625 -15.75 C 39.585938 -17.3125 39.085938 -19.648438 38.515625 -22.765625 C 37.953125 -25.890625 37.597656 -27.738281 37.453125 -28.3125 C 37.453125 -28.738281 37.03125 -29.09375 36.1875 -29.375 C 35.757812 -29.226562 35.546875 -29.085938 35.546875 -28.953125 C 35.398438 -28.660156 35.1875 -28.300781 34.90625 -27.875 C 34.625 -27.457031 34.375 -27.070312 34.15625 -26.71875 C 33.945312 -26.363281 33.769531 -26.039062 33.625 -25.75 C 32.78125 -24.050781 31.539062 -21.425781 29.90625 -17.875 C 28.269531 -14.332031 27.03125 -11.707031 26.1875 -10 C 24.625 -6.738281 23.0625 -4.113281 21.5 -2.125 C 19.507812 0.988281 16.316406 2.40625 11.921875 2.125 Z M 11.921875 2.125 "/></g></g></g><g fill="#565656" fill-opacity="1"><g transform="translate(293.564282, 167.501095)"><g><path d="M 11.0625 0 C 7.65625 0.28125 5.53125 -1.066406 4.6875 -4.046875 C 3.832031 -7.171875 3.332031 -9.582031 3.1875 -11.28125 L 0 -45.765625 L 0 -67.046875 C 0 -68.179688 0.566406 -71.800781 1.703125 -77.90625 C 1.984375 -78.46875 2.550781 -78.960938 3.40625 -79.390625 C 4.257812 -79.816406 4.96875 -79.957031 5.53125 -79.8125 C 8.226562 -79.101562 9.578125 -77.6875 9.578125 -75.5625 L 10 -53.421875 C 10 -52.859375 10 -51.617188 10 -49.703125 C 10 -47.785156 10.066406 -46.257812 10.203125 -45.125 C 10.347656 -43.988281 10.707031 -42.851562 11.28125 -41.71875 C 11.425781 -41.4375 11.921875 -41.148438 12.765625 -40.859375 C 12.765625 -40.722656 12.835938 -40.722656 12.984375 -40.859375 C 13.128906 -41.003906 13.269531 -41.148438 13.40625 -41.296875 C 13.976562 -42.429688 14.332031 -43.28125 14.46875 -43.84375 L 17.453125 -53.421875 C 19.015625 -58.535156 21.070312 -63.003906 23.625 -66.828125 C 24.90625 -68.816406 26.46875 -70.59375 28.3125 -72.15625 C 30.4375 -74.28125 33.414062 -74.738281 37.25 -73.53125 C 41.082031 -72.332031 43.066406 -69.882812 43.203125 -66.1875 C 43.203125 -64.488281 42.707031 -63.5 41.71875 -63.21875 C 40.300781 -62.925781 39.09375 -62.992188 38.09375 -63.421875 C 37.957031 -63.566406 37.320312 -64.5625 36.1875 -66.40625 C 35.050781 -67.96875 33.773438 -67.96875 32.359375 -66.40625 C 30.796875 -64.5625 29.800781 -63.070312 29.375 -61.9375 C 27.382812 -57.96875 25.753906 -54.347656 24.484375 -51.078125 C 19.796875 -37.597656 16.8125 -23.90625 15.53125 -10 L 14.90625 -4.46875 C 14.476562 -1.769531 13.195312 -0.28125 11.0625 0 Z M 11.0625 0 "/></g></g></g><g fill="#565656" fill-opacity="1"><g transform="translate(336.768202, 167.501095)"><g><path d="M 32.140625 -8.515625 C 27.742188 -4.679688 22.742188 -3.398438 17.140625 -4.671875 C 11.535156 -5.953125 7.664062 -8.9375 5.53125 -13.625 C 2.269531 -20.570312 0.425781 -27.664062 0 -34.90625 L 0 -39.15625 C -0.425781 -50.375 1.273438 -60.023438 5.109375 -68.109375 C 7.097656 -72.222656 9.796875 -75.488281 13.203125 -77.90625 C 17.453125 -80.882812 22.132812 -81.378906 27.25 -79.390625 C 29.09375 -78.679688 30.40625 -77.472656 31.1875 -75.765625 C 31.96875 -74.066406 32.070312 -72.296875 31.5 -70.453125 C 28.800781 -62.078125 23.335938 -56.257812 15.109375 -53 C 12.703125 -52.144531 11.425781 -50.582031 11.28125 -48.3125 C 10.144531 -35.820312 11.707031 -24.753906 15.96875 -15.109375 C 17.519531 -11.566406 19.144531 -9.617188 20.84375 -9.265625 C 22.550781 -8.910156 24.753906 -10.007812 27.453125 -12.5625 C 30.148438 -15.113281 32.847656 -18.445312 35.546875 -22.5625 C 40.796875 -30.226562 45.476562 -38.457031 49.59375 -47.25 C 51.4375 -50.507812 52.710938 -52.640625 53.421875 -53.640625 C 54.128906 -54.910156 55.476562 -55.332031 57.46875 -54.90625 C 58.75 -54.34375 59.242188 -53.707031 58.953125 -53 C 58.816406 -51.863281 58.460938 -50.65625 57.890625 -49.375 C 52.785156 -38.164062 47.179688 -28.019531 41.078125 -18.9375 C 38.242188 -14.820312 35.265625 -11.347656 32.140625 -8.515625 Z M 14.6875 -59.59375 L 15.53125 -59.59375 C 20.363281 -62.851562 23.273438 -66.96875 24.265625 -71.9375 C 24.265625 -72.644531 24.191406 -73.210938 24.046875 -73.640625 C 23.765625 -74.347656 23.410156 -74.773438 22.984375 -74.921875 C 22.421875 -75.203125 21.851562 -75.203125 21.28125 -74.921875 C 17.03125 -71.796875 14.546875 -67.1875 13.828125 -61.09375 C 13.828125 -60.945312 13.972656 -60.660156 14.265625 -60.234375 Z M 14.6875 -59.59375 "/></g></g></g><g fill="#565656" fill-opacity="1"><g transform="translate(387.208272, 167.501095)"><g/></g></g><g fill="#ff914d" fill-opacity="1"><g transform="translate(446.818312, 167.501095)"><g><path d="M 30.65625 10 C 27.25 11.414062 24.195312 10.632812 21.5 7.65625 C 18.375 4.394531 16.382812 0.28125 15.53125 -4.6875 C 14.539062 -9.789062 13.972656 -14.613281 13.828125 -19.15625 C 13.546875 -24.257812 13.265625 -31.921875 12.984375 -42.140625 L 12.984375 -60.65625 C 12.984375 -63.070312 12.84375 -66.691406 12.5625 -71.515625 C 12.269531 -74.066406 10.921875 -75.984375 8.515625 -77.265625 C 6.523438 -78.117188 6.171875 -79.535156 7.453125 -81.515625 C 9.859375 -85.203125 11.347656 -90.171875 11.921875 -96.421875 C 12.484375 -108.484375 12.976562 -117.351562 13.40625 -123.03125 C 13.6875 -126.425781 14.394531 -131.53125 15.53125 -138.34375 C 16.382812 -142.601562 18.019531 -146.578125 20.4375 -150.265625 C 25.96875 -158.640625 33.414062 -160.835938 42.78125 -156.859375 C 45.613281 -155.722656 47.242188 -153.664062 47.671875 -150.6875 C 47.816406 -149.132812 47.425781 -147.789062 46.5 -146.65625 C 45.582031 -145.519531 44.414062 -145.019531 43 -145.15625 C 41.15625 -145.15625 40.160156 -146.007812 40.015625 -147.71875 C 40.015625 -148 39.976562 -148.457031 39.90625 -149.09375 C 39.832031 -149.738281 39.757812 -150.304688 39.6875 -150.796875 C 39.625 -151.296875 39.519531 -151.757812 39.375 -152.1875 C 39.09375 -153.175781 38.347656 -153.8125 37.140625 -154.09375 C 35.929688 -154.382812 34.90625 -154.171875 34.0625 -153.453125 C 32.632812 -152.460938 31.285156 -150.832031 30.015625 -148.5625 C 28.023438 -144.875 26.675781 -140.191406 25.96875 -134.515625 C 24.6875 -124.867188 23.976562 -116.566406 23.84375 -109.609375 C 23.84375 -106.347656 23.273438 -101.171875 22.140625 -94.078125 C 21.992188 -93.222656 21.28125 -90.597656 20 -86.203125 C 19.863281 -85.773438 19.507812 -85.207031 18.9375 -84.5 C 18.375 -83.789062 17.984375 -83.113281 17.765625 -82.46875 C 17.554688 -81.832031 17.523438 -81.160156 17.671875 -80.453125 C 17.804688 -79.890625 18.015625 -79.359375 18.296875 -78.859375 C 18.585938 -78.359375 18.976562 -77.859375 19.46875 -77.359375 C 19.96875 -76.867188 20.289062 -76.410156 20.4375 -75.984375 C 21.570312 -74.285156 22.140625 -72.226562 22.140625 -69.8125 C 22.566406 -65.550781 22.78125 -61.222656 22.78125 -56.828125 C 22.914062 -54.703125 22.984375 -51.507812 22.984375 -47.25 C 22.984375 -42.988281 22.984375 -39.796875 22.984375 -37.671875 C 23.265625 -26.609375 23.617188 -18.304688 24.046875 -12.765625 C 24.335938 -7.085938 25.898438 -2.191406 28.734375 1.921875 C 29.441406 2.910156 30.148438 3.40625 30.859375 3.40625 C 31.992188 3.40625 32.847656 2.625 33.421875 1.0625 C 33.703125 -0.0703125 33.984375 -0.921875 34.265625 -1.484375 C 34.546875 -2.191406 35.539062 -2.832031 37.25 -3.40625 C 37.957031 -3.550781 38.664062 -3.375 39.375 -2.875 C 40.082031 -2.375 40.367188 -1.769531 40.234375 -1.0625 C 39.804688 3.476562 37.75 6.742188 34.0625 8.734375 Z M 30.65625 10 "/></g></g></g><g fill="#565656" fill-opacity="1"><g transform="translate(503.055838, 167.501095)"><g><path d="M 125.15625 15.75 C 126.425781 16.03125 126.847656 16.671875 126.421875 17.671875 C 125.859375 18.660156 125.289062 19.367188 124.71875 19.796875 C 121.03125 21.359375 117.484375 21.070312 114.078125 18.9375 C 112.097656 17.664062 110.253906 15.679688 108.546875 12.984375 C 106.703125 10.003906 105.285156 6.316406 104.296875 1.921875 C 103.585938 -1.054688 102.804688 -5.882812 101.953125 -12.5625 C 100.535156 -23.625 100.039062 -33.769531 100.46875 -43 L 100.890625 -54.0625 C 101.742188 -71.09375 102.3125 -84.21875 102.59375 -93.4375 C 102.875 -97.832031 102.660156 -102.160156 101.953125 -106.421875 C 101.097656 -111.390625 99.785156 -114.226562 98.015625 -114.9375 C 96.242188 -115.644531 93.507812 -115.003906 89.8125 -113.015625 C 87.125 -111.742188 84.429688 -109.757812 81.734375 -107.0625 C 69.816406 -97.550781 59.382812 -85.488281 50.4375 -70.875 C 50.4375 -70.445312 50.472656 -69.945312 50.546875 -69.375 C 50.617188 -68.8125 50.65625 -68.460938 50.65625 -68.328125 C 51.226562 -63.640625 51.972656 -58.597656 52.890625 -53.203125 C 53.816406 -47.816406 54.488281 -43.488281 54.90625 -40.21875 C 55.332031 -36.957031 55.546875 -33.34375 55.546875 -29.375 C 55.546875 -24.125 55.050781 -19.085938 54.0625 -14.265625 C 52.363281 -7.734375 50.09375 -2.410156 47.25 1.703125 C 44.414062 5.960938 40.226562 8.09375 34.6875 8.09375 C 31.851562 7.800781 29.867188 6.519531 28.734375 4.25 C 28.453125 3.6875 27.8125 1.988281 26.8125 -0.84375 C 25.820312 -4.96875 25.328125 -9.367188 25.328125 -14.046875 C 25.328125 -17.171875 25.539062 -20.363281 25.96875 -23.625 C 26.957031 -35.539062 31.425781 -49.304688 39.375 -64.921875 L 38.734375 -68.75 C 38.304688 -71.019531 37.878906 -76.484375 37.453125 -85.140625 L 34.484375 -83.859375 C 13.910156 -73.640625 5.679688 -63.351562 9.796875 -53 C 9.929688 -52.570312 10.28125 -52.035156 10.84375 -51.390625 C 11.414062 -50.753906 11.773438 -50.296875 11.921875 -50.015625 C 11.921875 -49.585938 11.78125 -49.09375 11.5 -48.53125 C 11.207031 -48.25 10.921875 -48.109375 10.640625 -48.109375 C 6.242188 -48.109375 3.335938 -49.878906 1.921875 -53.421875 C 0.640625 -56.546875 0 -59.242188 0 -61.515625 C 0 -66.054688 2.054688 -70.0625 6.171875 -73.53125 C 10.285156 -77.007812 19.367188 -82.226562 33.421875 -89.1875 C 34.265625 -89.46875 35.539062 -90.035156 37.25 -90.890625 C 36.675781 -97.128906 36.890625 -104.289062 37.890625 -112.375 C 38.316406 -117.769531 39.804688 -122.8125 42.359375 -127.5 C 44.335938 -130.90625 47.175781 -133.03125 50.875 -133.875 C 51.15625 -133.875 51.507812 -133.875 51.9375 -133.875 C 52.363281 -133.875 52.820312 -133.875 53.3125 -133.875 C 53.8125 -133.875 54.203125 -133.875 54.484375 -133.875 C 56.046875 -133.875 57.253906 -133.734375 58.109375 -133.453125 C 63.921875 -131.890625 67.394531 -128.203125 68.53125 -122.390625 C 68.675781 -121.679688 68.75 -120.6875 68.75 -119.40625 C 68.46875 -114.863281 67.828125 -111.242188 66.828125 -108.546875 C 65.128906 -103.296875 59.097656 -97.335938 48.734375 -90.671875 L 49.375 -81.9375 C 63.707031 -103.363281 77.898438 -115.851562 91.953125 -119.40625 C 95.492188 -120.394531 98.929688 -120.179688 102.265625 -118.765625 C 105.597656 -117.347656 108.117188 -115.007812 109.828125 -111.75 C 111.109375 -109.332031 111.957031 -106.773438 112.375 -104.078125 C 113.65625 -96.421875 114.082031 -87.835938 113.65625 -78.328125 L 111.953125 -54.484375 C 111.953125 -35.472656 112.09375 -23.203125 112.375 -17.671875 C 112.945312 -9.441406 114.082031 -2.488281 115.78125 3.1875 C 116.632812 5.75 117.703125 8.304688 118.984375 10.859375 C 120.253906 13.554688 122.3125 15.1875 125.15625 15.75 Z M 44.703125 -24.265625 C 44.703125 -26.671875 43.566406 -36.25 41.296875 -53 C 35.191406 -38.519531 32.351562 -24.472656 32.78125 -10.859375 C 32.78125 -10.003906 32.847656 -9.078125 32.984375 -8.078125 C 33.128906 -7.085938 33.304688 -5.988281 33.515625 -4.78125 C 33.734375 -3.582031 33.914062 -2.628906 34.0625 -1.921875 C 34.625 0.0664062 35.472656 1.273438 36.609375 1.703125 C 36.890625 1.984375 37.421875 1.804688 38.203125 1.171875 C 38.984375 0.535156 39.515625 -0.132812 39.796875 -0.84375 C 41.929688 -5.382812 43.28125 -9.503906 43.84375 -13.203125 C 44.414062 -18.023438 44.703125 -21.710938 44.703125 -24.265625 Z M 48.109375 -115.78125 C 47.535156 -112.238281 47.601562 -106.207031 48.3125 -97.6875 C 55.695312 -103.507812 59.957031 -109.046875 61.09375 -114.296875 C 61.375 -115.859375 61.375 -118.128906 61.09375 -121.109375 C 60.800781 -122.804688 60.515625 -124.15625 60.234375 -125.15625 C 60.085938 -126 59.445312 -126.988281 58.3125 -128.125 C 57.601562 -129.257812 56.46875 -129.6875 54.90625 -129.40625 C 53.769531 -129.125 53.0625 -128.84375 52.78125 -128.5625 C 50.375 -125.4375 48.816406 -121.175781 48.109375 -115.78125 Z M 48.109375 -115.78125 "/></g></g></g><g fill="#565656" fill-opacity="1"><g transform="translate(631.603543, 167.501095)"><g><path d="M 71.296875 -51.515625 C 71.722656 -50.796875 71.65625 -49.941406 71.09375 -48.953125 C 67.820312 -42.003906 63.097656 -36.648438 56.921875 -32.890625 C 50.753906 -29.128906 44.976562 -27.671875 39.59375 -28.515625 C 38.457031 -24.546875 37.25 -21.285156 35.96875 -18.734375 C 34.550781 -15.890625 32.988281 -13.617188 31.28125 -11.921875 C 27.03125 -7.234375 21.78125 -5.53125 15.53125 -6.8125 C 7.019531 -8.800781 1.84375 -13.835938 0 -21.921875 C -0.851562 -25.890625 -1.28125 -28.867188 -1.28125 -30.859375 C -0.425781 -48.171875 4.113281 -63.285156 12.34375 -76.203125 C 13.195312 -77.617188 13.90625 -78.609375 14.46875 -79.171875 C 16.175781 -81.441406 18.660156 -81.941406 21.921875 -80.671875 C 23.335938 -80.097656 23.90625 -79.101562 23.625 -77.6875 L 22.140625 -73.859375 C 26.390625 -73.148438 29.9375 -71.375 32.78125 -68.53125 C 35.050781 -66.40625 37.070312 -63.425781 38.84375 -59.59375 C 40.613281 -55.757812 41.570312 -51.644531 41.71875 -47.25 C 41.863281 -42.570312 41.507812 -37.609375 40.65625 -32.359375 C 44.769531 -31.929688 49.378906 -33.347656 54.484375 -36.609375 C 59.597656 -39.867188 63.289062 -44.765625 65.5625 -51.296875 C 66.550781 -52.003906 67.6875 -52.359375 68.96875 -52.359375 C 69.675781 -52.640625 70.453125 -52.359375 71.296875 -51.515625 Z M 27.875 -18.9375 C 30.289062 -23.195312 31.925781 -27.457031 32.78125 -31.71875 C 29.507812 -34.269531 26.132812 -38.023438 22.65625 -42.984375 C 19.1875 -47.953125 16.742188 -52.210938 15.328125 -55.765625 C 12.347656 -46.960938 10.785156 -38.445312 10.640625 -30.21875 C 10.640625 -24.539062 11.347656 -20.003906 12.765625 -16.609375 C 13.765625 -14.898438 14.832031 -13.476562 15.96875 -12.34375 C 17.238281 -10.925781 18.941406 -10.710938 21.078125 -11.703125 C 23.765625 -13.265625 26.03125 -15.675781 27.875 -18.9375 Z M 24.90625 -68.53125 C 24.332031 -69.101562 23.65625 -69.175781 22.875 -68.75 C 22.09375 -68.320312 21.5625 -67.753906 21.28125 -67.046875 C 21.28125 -66.898438 21.207031 -66.648438 21.0625 -66.296875 C 20.925781 -65.941406 20.820312 -65.625 20.75 -65.34375 C 20.675781 -65.0625 20.640625 -64.773438 20.640625 -64.484375 C 20.785156 -61.085938 22.207031 -56.582031 24.90625 -50.96875 C 27.601562 -45.363281 30.507812 -40.71875 33.625 -37.03125 C 33.914062 -39.445312 34.0625 -43.140625 34.0625 -48.109375 C 33.914062 -54.773438 31.785156 -60.800781 27.671875 -66.1875 Z M 24.90625 -68.53125 "/></g></g></g><g fill="#565656" fill-opacity="1"><g transform="translate(694.600437, 167.501095)"><g><path d="M 16.609375 10.21875 C 12.203125 11.351562 9.148438 10.003906 7.453125 6.171875 C 6.035156 3.046875 5.039062 0.207031 4.46875 -2.34375 C 1.34375 -16.25 0.347656 -28.734375 1.484375 -39.796875 C 1.484375 -40.222656 1.519531 -40.863281 1.59375 -41.71875 C 1.664062 -42.570312 1.703125 -43.210938 1.703125 -43.640625 C 2.410156 -59.097656 3.757812 -73.710938 5.75 -87.484375 C 5.882812 -88.191406 6.519531 -94.007812 7.65625 -104.9375 L 7.65625 -109.40625 C 7.65625 -109.96875 7.40625 -110.5 6.90625 -111 C 6.414062 -111.5 5.890625 -111.75 5.328125 -111.75 C 2.910156 -111.75 1.0625 -111.675781 -0.21875 -111.53125 C -1.351562 -111.53125 -3.019531 -111.382812 -5.21875 -111.09375 C -7.414062 -110.8125 -9.082031 -110.601562 -10.21875 -110.46875 C -11.070312 -110.320312 -12.273438 -110.390625 -13.828125 -110.671875 C -14.546875 -110.960938 -14.90625 -111.390625 -14.90625 -111.953125 C -14.90625 -112.804688 -14.691406 -113.304688 -14.265625 -113.453125 C -13.265625 -114.015625 -10.921875 -114.648438 -7.234375 -115.359375 L 6.390625 -117.28125 C 8.085938 -117.414062 9.148438 -118.40625 9.578125 -120.25 L 12.125 -132.8125 C 12.84375 -135.9375 14.832031 -136.859375 18.09375 -135.578125 C 19.363281 -134.867188 20.070312 -133.945312 20.21875 -132.8125 C 20.5 -131.113281 20.640625 -129.90625 20.640625 -129.1875 C 20.640625 -128.476562 20.601562 -127.554688 20.53125 -126.421875 C 20.46875 -125.285156 20.4375 -124.363281 20.4375 -123.65625 C 20.4375 -121.957031 20.753906 -120.753906 21.390625 -120.046875 C 22.023438 -119.335938 23.125 -119.050781 24.6875 -119.1875 C 26.101562 -119.1875 28.050781 -119.328125 30.53125 -119.609375 C 33.019531 -119.898438 34.691406 -120.046875 35.546875 -120.046875 C 38.953125 -120.328125 41.4375 -120.46875 43 -120.46875 C 43.425781 -120.46875 44.488281 -119.972656 46.1875 -118.984375 C 46.46875 -118.835938 46.609375 -118.625 46.609375 -118.34375 C 46.609375 -118.0625 46.46875 -117.773438 46.1875 -117.484375 L 43 -116.21875 L 23.625 -114.078125 C 20.789062 -113.660156 19.160156 -112.101562 18.734375 -109.40625 L 18.09375 -104.9375 C 17.8125 -102.09375 17.3125 -98.082031 16.59375 -92.90625 C 15.882812 -87.726562 15.28125 -83.007812 14.78125 -78.75 C 14.289062 -74.488281 13.90625 -70.445312 13.625 -66.625 C 12.488281 -52.71875 11.707031 -40.160156 11.28125 -28.953125 C 10.851562 -20.578125 11.988281 -11.140625 14.6875 -0.640625 C 14.832031 0.347656 15.398438 1.410156 16.390625 2.546875 C 16.535156 2.691406 16.785156 2.765625 17.140625 2.765625 C 17.492188 2.765625 17.738281 2.691406 17.875 2.546875 C 19.007812 1.984375 19.863281 1.132812 20.4375 0 C 24.832031 -8.375 27.3125 -13.269531 27.875 -14.6875 C 29.300781 -18.09375 31.289062 -23.09375 33.84375 -29.6875 C 36.394531 -36.289062 38.3125 -41.296875 39.59375 -44.703125 C 40.726562 -47.816406 41.648438 -50.082031 42.359375 -51.5 C 43.066406 -52.925781 44.414062 -53.425781 46.40625 -53 C 47.539062 -53 48.109375 -52.429688 48.109375 -51.296875 C 48.109375 -50.304688 47.960938 -49.097656 47.671875 -47.671875 C 40.015625 -26.109375 33.273438 -10.289062 27.453125 -0.21875 L 24.046875 5.109375 C 22.347656 7.523438 19.867188 9.226562 16.609375 10.21875 Z M 16.609375 10.21875 "/></g></g></g><g fill="#565656" fill-opacity="1"><g transform="translate(734.186316, 167.501095)"><g><path d="M 32.140625 -8.515625 C 27.742188 -4.679688 22.742188 -3.398438 17.140625 -4.671875 C 11.535156 -5.953125 7.664062 -8.9375 5.53125 -13.625 C 2.269531 -20.570312 0.425781 -27.664062 0 -34.90625 L 0 -39.15625 C -0.425781 -50.375 1.273438 -60.023438 5.109375 -68.109375 C 7.097656 -72.222656 9.796875 -75.488281 13.203125 -77.90625 C 17.453125 -80.882812 22.132812 -81.378906 27.25 -79.390625 C 29.09375 -78.679688 30.40625 -77.472656 31.1875 -75.765625 C 31.96875 -74.066406 32.070312 -72.296875 31.5 -70.453125 C 28.800781 -62.078125 23.335938 -56.257812 15.109375 -53 C 12.703125 -52.144531 11.425781 -50.582031 11.28125 -48.3125 C 10.144531 -35.820312 11.707031 -24.753906 15.96875 -15.109375 C 17.519531 -11.566406 19.144531 -9.617188 20.84375 -9.265625 C 22.550781 -8.910156 24.753906 -10.007812 27.453125 -12.5625 C 30.148438 -15.113281 32.847656 -18.445312 35.546875 -22.5625 C 40.796875 -30.226562 45.476562 -38.457031 49.59375 -47.25 C 51.4375 -50.507812 52.710938 -52.640625 53.421875 -53.640625 C 54.128906 -54.910156 55.476562 -55.332031 57.46875 -54.90625 C 58.75 -54.34375 59.242188 -53.707031 58.953125 -53 C 58.816406 -51.863281 58.460938 -50.65625 57.890625 -49.375 C 52.785156 -38.164062 47.179688 -28.019531 41.078125 -18.9375 C 38.242188 -14.820312 35.265625 -11.347656 32.140625 -8.515625 Z M 14.6875 -59.59375 L 15.53125 -59.59375 C 20.363281 -62.851562 23.273438 -66.96875 24.265625 -71.9375 C 24.265625 -72.644531 24.191406 -73.210938 24.046875 -73.640625 C 23.765625 -74.347656 23.410156 -74.773438 22.984375 -74.921875 C 22.421875 -75.203125 21.851562 -75.203125 21.28125 -74.921875 C 17.03125 -71.796875 14.546875 -67.1875 13.828125 -61.09375 C 13.828125 -60.945312 13.972656 -60.660156 14.265625 -60.234375 Z M 14.6875 -59.59375 "/></g></g></g><g fill="#565656" fill-opacity="1"><g transform="translate(784.626386, 167.501095)"><g><path d="M 9.359375 22.34375 C 6.804688 21.351562 4.890625 19.722656 3.609375 17.453125 C 2.335938 15.179688 1.984375 12.695312 2.546875 10 C 3.398438 6.3125 4.960938 2.976562 7.234375 0 C 9.929688 -3.550781 12.84375 -7.097656 15.96875 -10.640625 C 17.664062 -12.484375 18.019531 -14.472656 17.03125 -16.609375 C 16.457031 -18.023438 15.316406 -20.789062 13.609375 -24.90625 C 11.910156 -29.019531 10.566406 -32.140625 9.578125 -34.265625 C 6.023438 -42.210938 3.753906 -47.960938 2.765625 -51.515625 C 2.054688 -55.484375 1.703125 -57.820312 1.703125 -58.53125 C 1.554688 -62.925781 2.757812 -66.613281 5.3125 -69.59375 C 7.875 -72.570312 11.351562 -74.347656 15.75 -74.921875 L 18.515625 -74.921875 C 21.640625 -74.921875 24.832031 -74 28.09375 -72.15625 C 30.507812 -70.59375 32.175781 -68.535156 33.09375 -65.984375 C 34.019531 -63.429688 33.984375 -60.945312 32.984375 -58.53125 C 32.566406 -57.394531 31.859375 -56.6875 30.859375 -56.40625 C 29.867188 -56.125 28.875 -56.335938 27.875 -57.046875 C 26.882812 -57.609375 26.390625 -58.316406 26.390625 -59.171875 C 26.390625 -59.597656 26.351562 -60.445312 26.28125 -61.71875 C 26.21875 -63 26.113281 -63.992188 25.96875 -64.703125 C 25.820312 -65.984375 25.179688 -67.257812 24.046875 -68.53125 C 22.773438 -70.238281 21.070312 -70.738281 18.9375 -70.03125 C 14.820312 -68.1875 12.484375 -65.207031 11.921875 -61.09375 C 11.773438 -58.101562 12.128906 -55.117188 12.984375 -52.140625 C 15.816406 -44.203125 19.929688 -35.265625 25.328125 -25.328125 C 25.753906 -24.617188 26.359375 -24.265625 27.140625 -24.265625 C 27.921875 -24.265625 28.59375 -24.617188 29.15625 -25.328125 C 32.84375 -29.441406 37.8125 -36.039062 44.0625 -45.125 C 45.195312 -47.113281 47.039062 -49.953125 49.59375 -53.640625 C 50.15625 -54.484375 51.21875 -54.90625 52.78125 -54.90625 C 53.632812 -54.90625 54.304688 -54.585938 54.796875 -53.953125 C 55.296875 -53.316406 55.40625 -52.644531 55.125 -51.9375 C 52.425781 -46.257812 49.09375 -40.796875 45.125 -35.546875 C 38.3125 -26.890625 34.265625 -21.851562 32.984375 -20.4375 C 30.148438 -17.164062 29.226562 -13.828125 30.21875 -10.421875 C 30.644531 -9.296875 31 -7.523438 31.28125 -5.109375 C 31.570312 -2.691406 31.785156 -1.203125 31.921875 -0.640625 C 32.347656 3.617188 31.78125 7.875 30.21875 12.125 C 28.65625 16.53125 25.816406 19.691406 21.703125 21.609375 C 17.585938 23.523438 13.472656 23.769531 9.359375 22.34375 Z M 15.75 18.09375 C 16.882812 17.238281 17.734375 16.382812 18.296875 15.53125 C 20.003906 12.976562 21 8.863281 21.28125 3.1875 L 19.796875 -2.984375 C 19.796875 -3.117188 19.582031 -3.257812 19.15625 -3.40625 C 18.726562 -3.550781 18.441406 -3.550781 18.296875 -3.40625 C 16.453125 -1.84375 15.175781 -0.566406 14.46875 0.421875 C 11.632812 4.253906 10.078125 7.800781 9.796875 11.0625 C 9.367188 13.332031 9.789062 15.320312 11.0625 17.03125 C 12.488281 19.15625 14.050781 19.507812 15.75 18.09375 Z M 15.75 18.09375 "/></g></g></g><g fill="#ff914d" fill-opacity="1"><g transform="translate(831.456044, 167.501095)"><g><path d="M 23.40625 10 L 20 8.734375 C 16.3125 6.742188 14.253906 3.476562 13.828125 -1.0625 C 13.691406 -1.769531 13.976562 -2.375 14.6875 -2.875 C 15.394531 -3.375 16.101562 -3.550781 16.8125 -3.40625 C 18.519531 -2.832031 19.515625 -2.191406 19.796875 -1.484375 C 20.078125 -0.921875 20.359375 -0.0703125 20.640625 1.0625 C 21.210938 2.625 22.066406 3.40625 23.203125 3.40625 C 23.910156 3.40625 24.617188 2.910156 25.328125 1.921875 C 28.160156 -2.191406 29.722656 -7.085938 30.015625 -12.765625 C 30.441406 -18.304688 30.796875 -26.609375 31.078125 -37.671875 C 31.078125 -39.796875 31.078125 -42.988281 31.078125 -47.25 C 31.078125 -51.507812 31.144531 -54.703125 31.28125 -56.828125 C 31.28125 -61.222656 31.492188 -65.550781 31.921875 -69.8125 C 31.921875 -72.226562 32.488281 -74.285156 33.625 -75.984375 C 33.769531 -76.128906 34.234375 -76.734375 35.015625 -77.796875 C 35.796875 -78.859375 36.253906 -79.742188 36.390625 -80.453125 C 36.535156 -81.160156 36.5 -81.832031 36.28125 -82.46875 C 36.070312 -83.113281 35.679688 -83.789062 35.109375 -84.5 C 34.546875 -85.207031 34.195312 -85.773438 34.0625 -86.203125 C 32.78125 -90.597656 32.066406 -93.222656 31.921875 -94.078125 C 30.785156 -101.171875 30.21875 -106.347656 30.21875 -109.609375 C 30.082031 -116.566406 29.375 -124.867188 28.09375 -134.515625 C 27.382812 -140.191406 26.035156 -144.875 24.046875 -148.5625 C 22.773438 -150.832031 21.425781 -152.460938 20 -153.453125 C 19.15625 -154.171875 18.128906 -154.382812 16.921875 -154.09375 C 15.710938 -153.8125 14.96875 -153.175781 14.6875 -152.1875 L 14.046875 -147.71875 C 13.898438 -146.007812 12.90625 -145.15625 11.0625 -145.15625 C 9.644531 -145.019531 8.472656 -145.519531 7.546875 -146.65625 C 6.628906 -147.789062 6.242188 -149.132812 6.390625 -150.6875 C 6.816406 -153.664062 8.445312 -155.722656 11.28125 -156.859375 C 20.644531 -160.835938 28.09375 -158.640625 33.625 -150.265625 C 36.039062 -146.578125 37.675781 -142.601562 38.53125 -138.34375 C 39.664062 -131.53125 40.375 -126.425781 40.65625 -123.03125 C 41.082031 -117.351562 41.578125 -108.484375 42.140625 -96.421875 C 42.710938 -90.171875 44.203125 -85.203125 46.609375 -81.515625 C 47.890625 -79.535156 47.535156 -78.117188 45.546875 -77.265625 C 43.140625 -75.984375 41.789062 -74.066406 41.5 -71.515625 C 41.21875 -66.691406 41.078125 -63.070312 41.078125 -60.65625 L 41.078125 -42.140625 C 40.796875 -31.921875 40.515625 -24.257812 40.234375 -19.15625 C 40.085938 -14.613281 39.519531 -9.789062 38.53125 -4.6875 C 37.675781 0.28125 35.6875 4.394531 32.5625 7.65625 C 29.863281 10.632812 26.8125 11.414062 23.40625 10 Z M 23.40625 10 "/></g></g></g></svg>