<svg xmlns="http://www.w3.org/2000/svg" xmlns:xlink="http://www.w3.org/1999/xlink" width="300" zoomAndPan="magnify" viewBox="0 0 224.87999 52.499999" height="70" preserveAspectRatio="xMidYMid meet" version="1.0"><defs><g/></defs><g fill="#565656" fill-opacity="1"><g transform="translate(36.983934, 36.744038)"><g><path d="M 11.34375 3.671875 C 10.1875 3.671875 9.082031 3.335938 8.03125 2.671875 C 7.738281 2.484375 7.054688 1.992188 5.984375 1.203125 L 5.03125 0.40625 C 4.78125 0.207031 4.582031 0.207031 4.4375 0.40625 L 3.859375 0.953125 C 3.117188 1.679688 2.195312 1.953125 1.09375 1.765625 C 0.945312 1.734375 0.753906 1.644531 0.515625 1.5 C 0.191406 1.226562 0.0234375 0.820312 0.015625 0.28125 C 0.00390625 -0.25 0.132812 -0.660156 0.40625 -0.953125 C 0.675781 -1.273438 0.984375 -1.484375 1.328125 -1.578125 C 1.890625 -1.722656 2.191406 -1.796875 2.234375 -1.796875 C 2.285156 -1.796875 2.46875 -1.800781 2.78125 -1.8125 C 3.101562 -1.820312 3.335938 -1.878906 3.484375 -1.984375 C 3.609375 -2.078125 3.707031 -2.195312 3.78125 -2.34375 C 3.851562 -2.488281 3.925781 -2.679688 4 -2.921875 C 4.070312 -3.171875 4.117188 -3.332031 4.140625 -3.40625 C 4.554688 -4.675781 4.988281 -6.679688 5.4375 -9.421875 C 5.507812 -9.910156 5.3125 -10.242188 4.84375 -10.421875 L 4.40625 -10.53125 L 4.078125 -10.609375 C 2.921875 -10.972656 2.015625 -11.800781 1.359375 -13.09375 C 1.253906 -13.3125 1.226562 -13.519531 1.28125 -13.71875 C 1.28125 -13.894531 1.351562 -14.03125 1.5 -14.125 C 1.644531 -14.175781 1.789062 -14.164062 1.9375 -14.09375 C 2.1875 -13.945312 2.347656 -13.8125 2.421875 -13.6875 L 2.96875 -12.734375 C 3.289062 -12.191406 3.671875 -11.765625 4.109375 -11.453125 C 4.253906 -11.328125 4.5 -11.210938 4.84375 -11.109375 C 5.382812 -10.941406 5.691406 -11.128906 5.765625 -11.671875 L 6.09375 -13.875 C 6.132812 -14.132812 6.195312 -14.519531 6.28125 -15.03125 C 6.375 -15.550781 6.457031 -16.019531 6.53125 -16.4375 C 6.601562 -16.851562 6.675781 -17.242188 6.75 -17.609375 C 6.84375 -18.191406 7.023438 -18.742188 7.296875 -19.265625 C 7.441406 -19.628906 7.648438 -19.992188 7.921875 -20.359375 C 8.390625 -20.972656 8.972656 -21.300781 9.671875 -21.34375 C 10.367188 -21.394531 10.984375 -21.15625 11.515625 -20.625 C 12.035156 -20.15625 12.304688 -19.59375 12.328125 -18.9375 C 12.328125 -18.144531 12.289062 -17.566406 12.21875 -17.203125 C 11.75 -14.984375 10.585938 -13.085938 8.734375 -11.515625 C 8.585938 -11.367188 8.5 -11.296875 8.46875 -11.296875 C 7.789062 -10.984375 7.390625 -10.300781 7.265625 -9.25 C 6.867188 -6.289062 6.269531 -3.769531 5.46875 -1.6875 C 5.289062 -1.269531 5.335938 -0.941406 5.609375 -0.703125 C 5.785156 -0.554688 6.132812 -0.25 6.65625 0.21875 C 7.1875 0.6875 7.597656 1.039062 7.890625 1.28125 C 8.742188 1.945312 9.515625 2.410156 10.203125 2.671875 C 10.929688 2.972656 11.59375 3.0625 12.1875 2.9375 C 13.007812 2.757812 13.4375 2.242188 13.46875 1.390625 C 13.488281 1.347656 13.5 1.269531 13.5 1.15625 C 13.5 1.039062 13.5 0.960938 13.5 0.921875 C 13.550781 0.742188 13.675781 0.65625 13.875 0.65625 C 14.382812 0.582031 14.703125 0.78125 14.828125 1.25 C 14.972656 2.03125 14.726562 2.617188 14.09375 3.015625 C 13.382812 3.453125 12.46875 3.671875 11.34375 3.671875 Z M 7.84375 -13.140625 C 7.894531 -12.960938 7.96875 -12.835938 8.0625 -12.765625 C 8.164062 -12.691406 8.300781 -12.738281 8.46875 -12.90625 C 9.863281 -14.300781 10.695312 -16.03125 10.96875 -18.09375 C 11.039062 -18.550781 11.015625 -19.015625 10.890625 -19.484375 C 10.867188 -19.554688 10.835938 -19.640625 10.796875 -19.734375 C 10.765625 -19.835938 10.75 -19.910156 10.75 -19.953125 C 10.65625 -20.171875 10.503906 -20.304688 10.296875 -20.359375 C 10.085938 -20.410156 9.894531 -20.347656 9.71875 -20.171875 C 9.445312 -19.910156 9.253906 -19.664062 9.140625 -19.4375 C 8.867188 -19.050781 8.644531 -18.515625 8.46875 -17.828125 C 8.375 -17.484375 8.164062 -16.101562 7.84375 -13.6875 Z M 1.828125 0.84375 C 1.828125 0.820312 1.851562 0.8125 1.90625 0.8125 L 1.984375 0.8125 C 2.441406 0.488281 2.785156 -0.0234375 3.015625 -0.734375 C 3.035156 -0.804688 3 -0.882812 2.90625 -0.96875 C 2.820312 -1.050781 2.722656 -1.109375 2.609375 -1.140625 C 2.160156 -1.179688 1.804688 -1.007812 1.546875 -0.625 C 1.273438 -0.1875 1.285156 0.253906 1.578125 0.703125 C 1.597656 0.742188 1.679688 0.789062 1.828125 0.84375 Z M 1.828125 0.84375 "/></g></g></g><g fill="#565656" fill-opacity="1"><g transform="translate(49.088968, 36.744038)"><g><path d="M 5.546875 -1.46875 C 4.785156 -0.8125 3.921875 -0.59375 2.953125 -0.8125 C 1.984375 -1.03125 1.316406 -1.539062 0.953125 -2.34375 C 0.390625 -3.539062 0.0703125 -4.765625 0 -6.015625 L 0 -6.75 C -0.0703125 -8.6875 0.21875 -10.347656 0.875 -11.734375 C 1.21875 -12.441406 1.6875 -13.003906 2.28125 -13.421875 C 3.007812 -13.941406 3.816406 -14.03125 4.703125 -13.6875 C 5.015625 -13.5625 5.238281 -13.351562 5.375 -13.0625 C 5.507812 -12.769531 5.53125 -12.460938 5.4375 -12.140625 C 4.96875 -10.703125 4.023438 -9.703125 2.609375 -9.140625 C 2.191406 -8.992188 1.96875 -8.722656 1.9375 -8.328125 C 1.75 -6.171875 2.019531 -4.265625 2.75 -2.609375 C 3.019531 -1.992188 3.300781 -1.65625 3.59375 -1.59375 C 3.882812 -1.53125 4.265625 -1.71875 4.734375 -2.15625 C 5.203125 -2.601562 5.664062 -3.179688 6.125 -3.890625 C 7.03125 -5.210938 7.835938 -6.628906 8.546875 -8.140625 C 8.867188 -8.703125 9.085938 -9.070312 9.203125 -9.25 C 9.328125 -9.46875 9.5625 -9.539062 9.90625 -9.46875 C 10.125 -9.363281 10.207031 -9.253906 10.15625 -9.140625 C 10.132812 -8.941406 10.078125 -8.734375 9.984375 -8.515625 C 9.097656 -6.578125 8.128906 -4.828125 7.078125 -3.265625 C 6.585938 -2.554688 6.078125 -1.957031 5.546875 -1.46875 Z M 2.53125 -10.265625 L 2.671875 -10.265625 C 3.503906 -10.828125 4.007812 -11.539062 4.1875 -12.40625 C 4.1875 -12.519531 4.171875 -12.613281 4.140625 -12.6875 C 4.097656 -12.8125 4.039062 -12.882812 3.96875 -12.90625 C 3.863281 -12.957031 3.765625 -12.957031 3.671875 -12.90625 C 2.929688 -12.375 2.503906 -11.582031 2.390625 -10.53125 C 2.390625 -10.507812 2.410156 -10.457031 2.453125 -10.375 Z M 2.53125 -10.265625 "/></g></g></g><g fill="#565656" fill-opacity="1"><g transform="translate(57.782588, 36.744038)"><g><path d="M 4.4375 0.40625 C 3.875 0.71875 3.25 0.800781 2.5625 0.65625 C 1.882812 0.507812 1.375 0.179688 1.03125 -0.328125 C 0.5625 -0.960938 0.21875 -1.671875 0 -2.453125 C -0.269531 -3.554688 -0.390625 -4.351562 -0.359375 -4.84375 C -0.335938 -6.332031 -0.117188 -7.726562 0.296875 -9.03125 C 0.535156 -9.757812 0.9375 -10.441406 1.5 -11.078125 C 2.582031 -12.296875 3.914062 -12.640625 5.5 -12.109375 C 6.113281 -11.890625 6.492188 -11.472656 6.640625 -10.859375 C 6.710938 -10.535156 6.691406 -10.125 6.578125 -9.625 C 6.472656 -9.125 6.3125 -8.738281 6.09375 -8.46875 C 6.019531 -8.394531 5.875 -8.335938 5.65625 -8.296875 C 5.476562 -8.242188 5.328125 -8.273438 5.203125 -8.390625 C 5.085938 -8.515625 5.039062 -8.664062 5.0625 -8.84375 C 5.082031 -8.9375 5.125 -9.125 5.1875 -9.40625 C 5.25 -9.6875 5.289062 -9.898438 5.3125 -10.046875 C 5.363281 -10.390625 5.335938 -10.695312 5.234375 -10.96875 C 5.140625 -11.238281 5 -11.398438 4.8125 -11.453125 C 4.46875 -11.523438 4.050781 -11.335938 3.5625 -10.890625 C 3.070312 -10.359375 2.71875 -9.773438 2.5 -9.140625 C 1.539062 -6.273438 1.503906 -3.691406 2.390625 -1.390625 C 2.679688 -0.628906 2.957031 -0.21875 3.21875 -0.15625 C 3.488281 -0.101562 3.90625 -0.34375 4.46875 -0.875 C 5.113281 -1.46875 5.765625 -2.226562 6.421875 -3.15625 C 7.421875 -4.550781 8.347656 -6.03125 9.203125 -7.59375 C 9.453125 -8.0625 9.6875 -8.476562 9.90625 -8.84375 C 10.03125 -9.039062 10.203125 -9.140625 10.421875 -9.140625 C 10.566406 -9.160156 10.691406 -9.113281 10.796875 -9 C 10.910156 -8.894531 10.941406 -8.78125 10.890625 -8.65625 C 10.847656 -8.457031 10.800781 -8.3125 10.75 -8.21875 C 9.675781 -6.039062 8.453125 -4.070312 7.078125 -2.3125 C 6.585938 -1.65625 6.039062 -1.019531 5.4375 -0.40625 C 5.207031 -0.15625 4.875 0.113281 4.4375 0.40625 Z M 4.4375 0.40625 "/></g></g></g><g fill="#565656" fill-opacity="1"><g transform="translate(67.246532, 36.744038)"><g><path d="M 2.859375 1.765625 C 2.097656 1.953125 1.570312 1.71875 1.28125 1.0625 C 1.039062 0.519531 0.867188 0.03125 0.765625 -0.40625 C 0.234375 -2.800781 0.0625 -4.953125 0.25 -6.859375 C 0.25 -6.929688 0.253906 -7.039062 0.265625 -7.1875 C 0.285156 -7.332031 0.296875 -7.441406 0.296875 -7.515625 C 0.421875 -10.179688 0.648438 -12.703125 0.984375 -15.078125 C 1.015625 -15.203125 1.128906 -16.207031 1.328125 -18.09375 L 1.328125 -18.859375 C 1.328125 -18.953125 1.28125 -19.039062 1.1875 -19.125 C 1.101562 -19.21875 1.015625 -19.265625 0.921875 -19.265625 C 0.503906 -19.265625 0.1875 -19.25 -0.03125 -19.21875 C -0.226562 -19.21875 -0.515625 -19.191406 -0.890625 -19.140625 C -1.273438 -19.097656 -1.566406 -19.066406 -1.765625 -19.046875 C -1.910156 -19.015625 -2.117188 -19.023438 -2.390625 -19.078125 C -2.503906 -19.128906 -2.5625 -19.203125 -2.5625 -19.296875 C -2.5625 -19.441406 -2.523438 -19.523438 -2.453125 -19.546875 C -2.285156 -19.648438 -1.882812 -19.765625 -1.25 -19.890625 L 1.09375 -20.21875 C 1.394531 -20.238281 1.582031 -20.410156 1.65625 -20.734375 L 2.09375 -22.890625 C 2.21875 -23.429688 2.5625 -23.59375 3.125 -23.375 C 3.34375 -23.25 3.460938 -23.085938 3.484375 -22.890625 C 3.535156 -22.597656 3.5625 -22.390625 3.5625 -22.265625 C 3.5625 -22.148438 3.550781 -21.992188 3.53125 -21.796875 C 3.519531 -21.597656 3.515625 -21.4375 3.515625 -21.3125 C 3.515625 -21.019531 3.570312 -20.8125 3.6875 -20.6875 C 3.800781 -20.570312 3.988281 -20.523438 4.25 -20.546875 C 4.5 -20.546875 4.835938 -20.566406 5.265625 -20.609375 C 5.691406 -20.660156 5.976562 -20.6875 6.125 -20.6875 C 6.707031 -20.738281 7.132812 -20.765625 7.40625 -20.765625 C 7.476562 -20.765625 7.664062 -20.679688 7.96875 -20.515625 C 8.007812 -20.484375 8.03125 -20.441406 8.03125 -20.390625 C 8.03125 -20.347656 8.007812 -20.300781 7.96875 -20.25 L 7.40625 -20.03125 L 4.078125 -19.671875 C 3.585938 -19.585938 3.304688 -19.316406 3.234375 -18.859375 L 3.125 -18.09375 C 3.070312 -17.601562 2.984375 -16.910156 2.859375 -16.015625 C 2.734375 -15.117188 2.628906 -14.300781 2.546875 -13.5625 C 2.460938 -12.832031 2.394531 -12.140625 2.34375 -11.484375 C 2.144531 -9.085938 2.007812 -6.921875 1.9375 -4.984375 C 1.863281 -3.546875 2.0625 -1.921875 2.53125 -0.109375 C 2.550781 0.0546875 2.648438 0.238281 2.828125 0.4375 C 2.847656 0.46875 2.890625 0.484375 2.953125 0.484375 C 3.015625 0.484375 3.054688 0.46875 3.078125 0.4375 C 3.273438 0.34375 3.421875 0.195312 3.515625 0 C 4.273438 -1.445312 4.707031 -2.289062 4.8125 -2.53125 C 5.050781 -3.113281 5.390625 -3.972656 5.828125 -5.109375 C 6.273438 -6.253906 6.609375 -7.117188 6.828125 -7.703125 C 7.023438 -8.242188 7.179688 -8.632812 7.296875 -8.875 C 7.421875 -9.125 7.65625 -9.210938 8 -9.140625 C 8.195312 -9.140625 8.296875 -9.039062 8.296875 -8.84375 C 8.296875 -8.664062 8.269531 -8.457031 8.21875 -8.21875 C 6.894531 -4.5 5.734375 -1.769531 4.734375 -0.03125 L 4.140625 0.875 C 3.847656 1.289062 3.421875 1.585938 2.859375 1.765625 Z M 2.859375 1.765625 "/></g></g></g><g fill="#565656" fill-opacity="1"><g transform="translate(74.069373, 36.744038)"><g><path d="M 2.046875 0.359375 C 1.535156 0.285156 1.160156 0.046875 0.921875 -0.359375 C 0.503906 -1.078125 0.257812 -1.828125 0.1875 -2.609375 C 0.113281 -3.046875 0.0507812 -3.679688 0 -4.515625 C -0.0195312 -6.203125 0.148438 -7.9375 0.515625 -9.71875 C 0.566406 -9.988281 0.6875 -10.394531 0.875 -10.9375 C 1 -11.25 1.257812 -11.382812 1.65625 -11.34375 C 2.144531 -11.289062 2.410156 -11.066406 2.453125 -10.671875 C 2.453125 -10.328125 2.441406 -10.070312 2.421875 -9.90625 C 2.054688 -6.925781 1.894531 -4.8125 1.9375 -3.5625 C 1.9375 -2.550781 2.0625 -1.78125 2.3125 -1.25 C 2.363281 -1.125 2.4375 -1.0625 2.53125 -1.0625 C 2.625 -1.007812 2.722656 -1.035156 2.828125 -1.140625 C 3.066406 -1.484375 3.238281 -1.738281 3.34375 -1.90625 C 4.070312 -3.300781 4.679688 -4.660156 5.171875 -5.984375 C 5.609375 -7.148438 5.953125 -8.03125 6.203125 -8.625 C 6.398438 -9.15625 6.554688 -9.546875 6.671875 -9.796875 C 6.796875 -10.066406 7 -10.21875 7.28125 -10.25 C 7.5625 -10.289062 7.8125 -10.210938 8.03125 -10.015625 C 8.15625 -9.941406 8.242188 -9.820312 8.296875 -9.65625 C 8.316406 -9.425781 8.328125 -9.101562 8.328125 -8.6875 C 8.328125 -8.570312 8.304688 -7.898438 8.265625 -6.671875 C 8.234375 -5.453125 8.226562 -4.695312 8.25 -4.40625 C 8.25 -3.957031 8.285156 -3.539062 8.359375 -3.15625 C 8.390625 -3.007812 8.453125 -2.875 8.546875 -2.75 C 8.640625 -2.625 8.726562 -2.5625 8.8125 -2.5625 C 9 -2.5625 9.179688 -2.671875 9.359375 -2.890625 C 9.742188 -3.335938 10.125 -4.023438 10.5 -4.953125 C 11.132812 -6.804688 11.5 -7.859375 11.59375 -8.109375 C 11.644531 -8.347656 11.765625 -8.628906 11.953125 -8.953125 C 12.023438 -9.046875 12.160156 -9.117188 12.359375 -9.171875 C 12.503906 -9.191406 12.640625 -9.15625 12.765625 -9.0625 C 12.890625 -8.96875 12.925781 -8.859375 12.875 -8.734375 C 12.875 -8.703125 12.847656 -8.570312 12.796875 -8.34375 C 12.753906 -8.113281 12.707031 -7.9375 12.65625 -7.8125 L 11.515625 -4.515625 C 11.242188 -3.753906 10.90625 -3.101562 10.5 -2.5625 C 10.269531 -2.25 10.046875 -2.019531 9.828125 -1.875 C 9.367188 -1.425781 8.804688 -1.296875 8.140625 -1.484375 C 7.484375 -1.671875 7.066406 -2.082031 6.890625 -2.71875 C 6.816406 -2.988281 6.734375 -3.390625 6.640625 -3.921875 C 6.546875 -4.460938 6.484375 -4.78125 6.453125 -4.875 C 6.453125 -4.945312 6.378906 -5.007812 6.234375 -5.0625 C 6.160156 -5.039062 6.125 -5.015625 6.125 -4.984375 C 6.101562 -4.941406 6.066406 -4.882812 6.015625 -4.8125 C 5.960938 -4.738281 5.914062 -4.671875 5.875 -4.609375 C 5.84375 -4.546875 5.816406 -4.488281 5.796875 -4.4375 C 5.648438 -4.144531 5.4375 -3.691406 5.15625 -3.078125 C 4.875 -2.472656 4.660156 -2.019531 4.515625 -1.71875 C 4.242188 -1.15625 3.972656 -0.703125 3.703125 -0.359375 C 3.359375 0.171875 2.804688 0.410156 2.046875 0.359375 Z M 2.046875 0.359375 "/></g></g></g><g fill="#565656" fill-opacity="1"><g transform="translate(85.477451, 36.744038)"><g><path d="M 1.90625 0 C 1.320312 0.0507812 0.957031 -0.179688 0.8125 -0.703125 C 0.664062 -1.234375 0.578125 -1.644531 0.546875 -1.9375 L 0 -7.890625 L 0 -11.5625 C 0 -11.75 0.0976562 -12.367188 0.296875 -13.421875 C 0.335938 -13.523438 0.429688 -13.613281 0.578125 -13.6875 C 0.734375 -13.757812 0.859375 -13.785156 0.953125 -13.765625 C 1.421875 -13.640625 1.65625 -13.394531 1.65625 -13.03125 L 1.71875 -9.203125 C 1.71875 -9.109375 1.71875 -8.894531 1.71875 -8.5625 C 1.71875 -8.238281 1.726562 -7.976562 1.75 -7.78125 C 1.78125 -7.582031 1.84375 -7.382812 1.9375 -7.1875 C 1.96875 -7.144531 2.054688 -7.097656 2.203125 -7.046875 C 2.203125 -7.015625 2.210938 -7.007812 2.234375 -7.03125 C 2.265625 -7.0625 2.289062 -7.09375 2.3125 -7.125 C 2.40625 -7.3125 2.46875 -7.457031 2.5 -7.5625 L 3.015625 -9.203125 C 3.273438 -10.085938 3.628906 -10.859375 4.078125 -11.515625 C 4.296875 -11.859375 4.5625 -12.164062 4.875 -12.4375 C 5.25 -12.800781 5.765625 -12.878906 6.421875 -12.671875 C 7.078125 -12.460938 7.421875 -12.039062 7.453125 -11.40625 C 7.453125 -11.113281 7.363281 -10.941406 7.1875 -10.890625 C 6.945312 -10.847656 6.738281 -10.863281 6.5625 -10.9375 C 6.539062 -10.957031 6.429688 -11.128906 6.234375 -11.453125 C 6.035156 -11.710938 5.816406 -11.710938 5.578125 -11.453125 C 5.304688 -11.128906 5.132812 -10.867188 5.0625 -10.671875 C 4.71875 -9.992188 4.4375 -9.375 4.21875 -8.8125 C 3.414062 -6.476562 2.898438 -4.113281 2.671875 -1.71875 L 2.5625 -0.765625 C 2.488281 -0.304688 2.269531 -0.0507812 1.90625 0 Z M 1.90625 0 "/></g></g></g><g fill="#565656" fill-opacity="1"><g transform="translate(92.923882, 36.744038)"><g><path d="M 5.546875 -1.46875 C 4.785156 -0.8125 3.921875 -0.59375 2.953125 -0.8125 C 1.984375 -1.03125 1.316406 -1.539062 0.953125 -2.34375 C 0.390625 -3.539062 0.0703125 -4.765625 0 -6.015625 L 0 -6.75 C -0.0703125 -8.6875 0.21875 -10.347656 0.875 -11.734375 C 1.21875 -12.441406 1.6875 -13.003906 2.28125 -13.421875 C 3.007812 -13.941406 3.816406 -14.03125 4.703125 -13.6875 C 5.015625 -13.5625 5.238281 -13.351562 5.375 -13.0625 C 5.507812 -12.769531 5.53125 -12.460938 5.4375 -12.140625 C 4.96875 -10.703125 4.023438 -9.703125 2.609375 -9.140625 C 2.191406 -8.992188 1.96875 -8.722656 1.9375 -8.328125 C 1.75 -6.171875 2.019531 -4.265625 2.75 -2.609375 C 3.019531 -1.992188 3.300781 -1.65625 3.59375 -1.59375 C 3.882812 -1.53125 4.265625 -1.71875 4.734375 -2.15625 C 5.203125 -2.601562 5.664062 -3.179688 6.125 -3.890625 C 7.03125 -5.210938 7.835938 -6.628906 8.546875 -8.140625 C 8.867188 -8.703125 9.085938 -9.070312 9.203125 -9.25 C 9.328125 -9.46875 9.5625 -9.539062 9.90625 -9.46875 C 10.125 -9.363281 10.207031 -9.253906 10.15625 -9.140625 C 10.132812 -8.941406 10.078125 -8.734375 9.984375 -8.515625 C 9.097656 -6.578125 8.128906 -4.828125 7.078125 -3.265625 C 6.585938 -2.554688 6.078125 -1.957031 5.546875 -1.46875 Z M 2.53125 -10.265625 L 2.671875 -10.265625 C 3.503906 -10.828125 4.007812 -11.539062 4.1875 -12.40625 C 4.1875 -12.519531 4.171875 -12.613281 4.140625 -12.6875 C 4.097656 -12.8125 4.039062 -12.882812 3.96875 -12.90625 C 3.863281 -12.957031 3.765625 -12.957031 3.671875 -12.90625 C 2.929688 -12.375 2.503906 -11.582031 2.390625 -10.53125 C 2.390625 -10.507812 2.410156 -10.457031 2.453125 -10.375 Z M 2.53125 -10.265625 "/></g></g></g><g fill="#565656" fill-opacity="1"><g transform="translate(101.617501, 36.744038)"><g/></g></g><g fill="#ff914d" fill-opacity="1"><g transform="translate(111.891616, 36.744038)"><g><path d="M 5.28125 1.71875 C 4.695312 1.96875 4.171875 1.835938 3.703125 1.328125 C 3.160156 0.765625 2.816406 0.0507812 2.671875 -0.8125 C 2.503906 -1.6875 2.410156 -2.515625 2.390625 -3.296875 C 2.335938 -4.179688 2.285156 -5.503906 2.234375 -7.265625 L 2.234375 -10.453125 C 2.234375 -10.867188 2.210938 -11.492188 2.171875 -12.328125 C 2.117188 -12.765625 1.882812 -13.09375 1.46875 -13.3125 C 1.125 -13.457031 1.0625 -13.703125 1.28125 -14.046875 C 1.695312 -14.679688 1.953125 -15.539062 2.046875 -16.625 C 2.148438 -18.695312 2.238281 -20.222656 2.3125 -21.203125 C 2.363281 -21.796875 2.484375 -22.675781 2.671875 -23.84375 C 2.816406 -24.582031 3.097656 -25.269531 3.515625 -25.90625 C 4.472656 -27.34375 5.757812 -27.71875 7.375 -27.03125 C 7.863281 -26.84375 8.144531 -26.488281 8.21875 -25.96875 C 8.238281 -25.707031 8.171875 -25.476562 8.015625 -25.28125 C 7.859375 -25.082031 7.65625 -24.992188 7.40625 -25.015625 C 7.09375 -25.015625 6.921875 -25.164062 6.890625 -25.46875 C 6.890625 -25.507812 6.882812 -25.582031 6.875 -25.6875 C 6.863281 -25.800781 6.851562 -25.898438 6.84375 -25.984375 C 6.832031 -26.078125 6.8125 -26.160156 6.78125 -26.234375 C 6.738281 -26.398438 6.613281 -26.507812 6.40625 -26.5625 C 6.195312 -26.613281 6.019531 -26.578125 5.875 -26.453125 C 5.625 -26.273438 5.390625 -25.992188 5.171875 -25.609375 C 4.828125 -24.972656 4.59375 -24.164062 4.46875 -23.1875 C 4.25 -21.519531 4.128906 -20.085938 4.109375 -18.890625 C 4.109375 -18.328125 4.007812 -17.4375 3.8125 -16.21875 C 3.789062 -16.070312 3.671875 -15.617188 3.453125 -14.859375 C 3.421875 -14.785156 3.359375 -14.6875 3.265625 -14.5625 C 3.171875 -14.4375 3.101562 -14.316406 3.0625 -14.203125 C 3.03125 -14.097656 3.023438 -13.988281 3.046875 -13.875 C 3.066406 -13.769531 3.101562 -13.675781 3.15625 -13.59375 C 3.207031 -13.507812 3.273438 -13.421875 3.359375 -13.328125 C 3.441406 -13.242188 3.492188 -13.164062 3.515625 -13.09375 C 3.710938 -12.800781 3.8125 -12.445312 3.8125 -12.03125 C 3.882812 -11.300781 3.921875 -10.554688 3.921875 -9.796875 C 3.953125 -9.429688 3.96875 -8.878906 3.96875 -8.140625 C 3.96875 -7.410156 3.96875 -6.863281 3.96875 -6.5 C 4.007812 -4.582031 4.066406 -3.148438 4.140625 -2.203125 C 4.191406 -1.222656 4.460938 -0.378906 4.953125 0.328125 C 5.078125 0.503906 5.195312 0.59375 5.3125 0.59375 C 5.507812 0.59375 5.660156 0.457031 5.765625 0.1875 C 5.804688 -0.0078125 5.851562 -0.15625 5.90625 -0.25 C 5.957031 -0.375 6.128906 -0.488281 6.421875 -0.59375 C 6.546875 -0.613281 6.664062 -0.578125 6.78125 -0.484375 C 6.90625 -0.398438 6.957031 -0.300781 6.9375 -0.1875 C 6.863281 0.59375 6.507812 1.15625 5.875 1.5 Z M 5.28125 1.71875 "/></g></g></g><g fill="#565656" fill-opacity="1"><g transform="translate(121.584458, 36.744038)"><g><path d="M 21.578125 2.71875 C 21.796875 2.757812 21.867188 2.867188 21.796875 3.046875 C 21.691406 3.210938 21.59375 3.332031 21.5 3.40625 C 20.863281 3.675781 20.253906 3.628906 19.671875 3.265625 C 19.328125 3.046875 19.003906 2.703125 18.703125 2.234375 C 18.390625 1.722656 18.148438 1.085938 17.984375 0.328125 C 17.859375 -0.179688 17.722656 -1.015625 17.578125 -2.171875 C 17.328125 -4.078125 17.238281 -5.820312 17.3125 -7.40625 L 17.390625 -9.3125 C 17.535156 -12.25 17.632812 -14.515625 17.6875 -16.109375 C 17.726562 -16.867188 17.691406 -17.613281 17.578125 -18.34375 C 17.429688 -19.195312 17.203125 -19.6875 16.890625 -19.8125 C 16.585938 -19.9375 16.117188 -19.828125 15.484375 -19.484375 C 15.015625 -19.265625 14.550781 -18.921875 14.09375 -18.453125 C 12.03125 -16.816406 10.226562 -14.738281 8.6875 -12.21875 C 8.6875 -12.144531 8.691406 -12.054688 8.703125 -11.953125 C 8.722656 -11.859375 8.734375 -11.800781 8.734375 -11.78125 C 8.828125 -10.96875 8.953125 -10.097656 9.109375 -9.171875 C 9.273438 -8.242188 9.394531 -7.5 9.46875 -6.9375 C 9.539062 -6.375 9.578125 -5.75 9.578125 -5.0625 C 9.578125 -4.15625 9.488281 -3.285156 9.3125 -2.453125 C 9.019531 -1.328125 8.628906 -0.410156 8.140625 0.296875 C 7.648438 1.023438 6.929688 1.390625 5.984375 1.390625 C 5.492188 1.347656 5.148438 1.128906 4.953125 0.734375 C 4.898438 0.640625 4.789062 0.347656 4.625 -0.140625 C 4.445312 -0.847656 4.359375 -1.609375 4.359375 -2.421875 C 4.359375 -2.960938 4.394531 -3.515625 4.46875 -4.078125 C 4.644531 -6.128906 5.414062 -8.5 6.78125 -11.1875 L 6.671875 -11.84375 C 6.597656 -12.238281 6.523438 -13.179688 6.453125 -14.671875 L 5.9375 -14.453125 C 2.394531 -12.691406 0.976562 -10.921875 1.6875 -9.140625 C 1.707031 -9.066406 1.765625 -8.972656 1.859375 -8.859375 C 1.960938 -8.742188 2.023438 -8.664062 2.046875 -8.625 C 2.046875 -8.550781 2.023438 -8.460938 1.984375 -8.359375 C 1.929688 -8.316406 1.878906 -8.296875 1.828125 -8.296875 C 1.078125 -8.296875 0.578125 -8.597656 0.328125 -9.203125 C 0.109375 -9.742188 0 -10.210938 0 -10.609375 C 0 -11.390625 0.351562 -12.078125 1.0625 -12.671875 C 1.769531 -13.273438 3.335938 -14.175781 5.765625 -15.375 C 5.910156 -15.425781 6.128906 -15.523438 6.421875 -15.671875 C 6.328125 -16.742188 6.363281 -17.976562 6.53125 -19.375 C 6.601562 -20.300781 6.859375 -21.164062 7.296875 -21.96875 C 7.640625 -22.5625 8.128906 -22.929688 8.765625 -23.078125 C 8.816406 -23.078125 8.878906 -23.078125 8.953125 -23.078125 C 9.023438 -23.078125 9.101562 -23.078125 9.1875 -23.078125 C 9.269531 -23.078125 9.335938 -23.078125 9.390625 -23.078125 C 9.660156 -23.078125 9.867188 -23.050781 10.015625 -23 C 11.015625 -22.726562 11.613281 -22.09375 11.8125 -21.09375 C 11.832031 -20.96875 11.84375 -20.796875 11.84375 -20.578125 C 11.800781 -19.796875 11.691406 -19.171875 11.515625 -18.703125 C 11.222656 -17.804688 10.1875 -16.78125 8.40625 -15.625 L 8.515625 -14.125 C 10.984375 -17.820312 13.425781 -19.972656 15.84375 -20.578125 C 16.457031 -20.753906 17.050781 -20.71875 17.625 -20.46875 C 18.195312 -20.226562 18.632812 -19.828125 18.9375 -19.265625 C 19.15625 -18.847656 19.300781 -18.40625 19.375 -17.9375 C 19.59375 -16.613281 19.664062 -15.132812 19.59375 -13.5 L 19.296875 -9.390625 C 19.296875 -6.109375 19.320312 -3.992188 19.375 -3.046875 C 19.46875 -1.628906 19.660156 -0.429688 19.953125 0.546875 C 20.097656 0.984375 20.285156 1.425781 20.515625 1.875 C 20.734375 2.332031 21.085938 2.613281 21.578125 2.71875 Z M 7.703125 -4.1875 C 7.703125 -4.601562 7.507812 -6.253906 7.125 -9.140625 C 6.070312 -6.640625 5.582031 -4.21875 5.65625 -1.875 C 5.65625 -1.726562 5.664062 -1.566406 5.6875 -1.390625 C 5.707031 -1.222656 5.734375 -1.035156 5.765625 -0.828125 C 5.804688 -0.617188 5.84375 -0.453125 5.875 -0.328125 C 5.96875 0.015625 6.113281 0.222656 6.3125 0.296875 C 6.363281 0.335938 6.453125 0.300781 6.578125 0.1875 C 6.710938 0.0820312 6.804688 -0.0234375 6.859375 -0.140625 C 7.222656 -0.929688 7.457031 -1.644531 7.5625 -2.28125 C 7.65625 -3.101562 7.703125 -3.738281 7.703125 -4.1875 Z M 8.296875 -19.953125 C 8.191406 -19.347656 8.203125 -18.3125 8.328125 -16.84375 C 9.597656 -17.84375 10.332031 -18.796875 10.53125 -19.703125 C 10.582031 -19.972656 10.582031 -20.363281 10.53125 -20.875 C 10.476562 -21.164062 10.425781 -21.398438 10.375 -21.578125 C 10.351562 -21.722656 10.242188 -21.894531 10.046875 -22.09375 C 9.929688 -22.28125 9.738281 -22.351562 9.46875 -22.3125 C 9.269531 -22.257812 9.144531 -22.207031 9.09375 -22.15625 C 8.675781 -21.625 8.410156 -20.890625 8.296875 -19.953125 Z M 8.296875 -19.953125 "/></g></g></g><g fill="#565656" fill-opacity="1"><g transform="translate(143.740353, 36.744038)"><g><path d="M 12.296875 -8.875 C 12.367188 -8.75 12.351562 -8.601562 12.25 -8.4375 C 11.6875 -7.238281 10.875 -6.316406 9.8125 -5.671875 C 8.75 -5.023438 7.753906 -4.773438 6.828125 -4.921875 C 6.628906 -4.234375 6.421875 -3.671875 6.203125 -3.234375 C 5.953125 -2.742188 5.679688 -2.347656 5.390625 -2.046875 C 4.660156 -1.242188 3.753906 -0.953125 2.671875 -1.171875 C 1.210938 -1.515625 0.320312 -2.382812 0 -3.78125 C -0.144531 -4.46875 -0.21875 -4.976562 -0.21875 -5.3125 C -0.0703125 -8.300781 0.707031 -10.910156 2.125 -13.140625 C 2.269531 -13.378906 2.394531 -13.546875 2.5 -13.640625 C 2.789062 -14.035156 3.21875 -14.125 3.78125 -13.90625 C 4.019531 -13.8125 4.117188 -13.640625 4.078125 -13.390625 L 3.8125 -12.734375 C 4.550781 -12.609375 5.164062 -12.300781 5.65625 -11.8125 C 6.039062 -11.445312 6.382812 -10.929688 6.6875 -10.265625 C 7 -9.609375 7.164062 -8.898438 7.1875 -8.140625 C 7.21875 -7.335938 7.15625 -6.484375 7 -5.578125 C 7.71875 -5.503906 8.515625 -5.75 9.390625 -6.3125 C 10.273438 -6.875 10.910156 -7.71875 11.296875 -8.84375 C 11.472656 -8.96875 11.671875 -9.03125 11.890625 -9.03125 C 12.003906 -9.070312 12.140625 -9.019531 12.296875 -8.875 Z M 4.8125 -3.265625 C 5.226562 -3.992188 5.507812 -4.726562 5.65625 -5.46875 C 5.09375 -5.90625 4.507812 -6.550781 3.90625 -7.40625 C 3.3125 -8.257812 2.890625 -8.992188 2.640625 -9.609375 C 2.128906 -8.097656 1.859375 -6.628906 1.828125 -5.203125 C 1.828125 -4.222656 1.953125 -3.441406 2.203125 -2.859375 C 2.367188 -2.566406 2.550781 -2.320312 2.75 -2.125 C 2.96875 -1.882812 3.257812 -1.847656 3.625 -2.015625 C 4.09375 -2.285156 4.488281 -2.703125 4.8125 -3.265625 Z M 4.296875 -11.8125 C 4.191406 -11.90625 4.070312 -11.914062 3.9375 -11.84375 C 3.800781 -11.769531 3.710938 -11.675781 3.671875 -11.5625 C 3.671875 -11.53125 3.65625 -11.484375 3.625 -11.421875 C 3.601562 -11.367188 3.585938 -11.316406 3.578125 -11.265625 C 3.566406 -11.210938 3.5625 -11.160156 3.5625 -11.109375 C 3.582031 -10.523438 3.820312 -9.75 4.28125 -8.78125 C 4.75 -7.820312 5.253906 -7.023438 5.796875 -6.390625 C 5.847656 -6.796875 5.875 -7.429688 5.875 -8.296875 C 5.84375 -9.441406 5.472656 -10.476562 4.765625 -11.40625 Z M 4.296875 -11.8125 "/></g></g></g><g fill="#565656" fill-opacity="1"><g transform="translate(154.59821, 36.744038)"><g><path d="M 2.859375 1.765625 C 2.097656 1.953125 1.570312 1.71875 1.28125 1.0625 C 1.039062 0.519531 0.867188 0.03125 0.765625 -0.40625 C 0.234375 -2.800781 0.0625 -4.953125 0.25 -6.859375 C 0.25 -6.929688 0.253906 -7.039062 0.265625 -7.1875 C 0.285156 -7.332031 0.296875 -7.441406 0.296875 -7.515625 C 0.421875 -10.179688 0.648438 -12.703125 0.984375 -15.078125 C 1.015625 -15.203125 1.128906 -16.207031 1.328125 -18.09375 L 1.328125 -18.859375 C 1.328125 -18.953125 1.28125 -19.039062 1.1875 -19.125 C 1.101562 -19.21875 1.015625 -19.265625 0.921875 -19.265625 C 0.503906 -19.265625 0.1875 -19.25 -0.03125 -19.21875 C -0.226562 -19.21875 -0.515625 -19.191406 -0.890625 -19.140625 C -1.273438 -19.097656 -1.566406 -19.066406 -1.765625 -19.046875 C -1.910156 -19.015625 -2.117188 -19.023438 -2.390625 -19.078125 C -2.503906 -19.128906 -2.5625 -19.203125 -2.5625 -19.296875 C -2.5625 -19.441406 -2.523438 -19.523438 -2.453125 -19.546875 C -2.285156 -19.648438 -1.882812 -19.765625 -1.25 -19.890625 L 1.09375 -20.21875 C 1.394531 -20.238281 1.582031 -20.410156 1.65625 -20.734375 L 2.09375 -22.890625 C 2.21875 -23.429688 2.5625 -23.59375 3.125 -23.375 C 3.34375 -23.25 3.460938 -23.085938 3.484375 -22.890625 C 3.535156 -22.597656 3.5625 -22.390625 3.5625 -22.265625 C 3.5625 -22.148438 3.550781 -21.992188 3.53125 -21.796875 C 3.519531 -21.597656 3.515625 -21.4375 3.515625 -21.3125 C 3.515625 -21.019531 3.570312 -20.8125 3.6875 -20.6875 C 3.800781 -20.570312 3.988281 -20.523438 4.25 -20.546875 C 4.5 -20.546875 4.835938 -20.566406 5.265625 -20.609375 C 5.691406 -20.660156 5.976562 -20.6875 6.125 -20.6875 C 6.707031 -20.738281 7.132812 -20.765625 7.40625 -20.765625 C 7.476562 -20.765625 7.664062 -20.679688 7.96875 -20.515625 C 8.007812 -20.484375 8.03125 -20.441406 8.03125 -20.390625 C 8.03125 -20.347656 8.007812 -20.300781 7.96875 -20.25 L 7.40625 -20.03125 L 4.078125 -19.671875 C 3.585938 -19.585938 3.304688 -19.316406 3.234375 -18.859375 L 3.125 -18.09375 C 3.070312 -17.601562 2.984375 -16.910156 2.859375 -16.015625 C 2.734375 -15.117188 2.628906 -14.300781 2.546875 -13.5625 C 2.460938 -12.832031 2.394531 -12.140625 2.34375 -11.484375 C 2.144531 -9.085938 2.007812 -6.921875 1.9375 -4.984375 C 1.863281 -3.546875 2.0625 -1.921875 2.53125 -0.109375 C 2.550781 0.0546875 2.648438 0.238281 2.828125 0.4375 C 2.847656 0.46875 2.890625 0.484375 2.953125 0.484375 C 3.015625 0.484375 3.054688 0.46875 3.078125 0.4375 C 3.273438 0.34375 3.421875 0.195312 3.515625 0 C 4.273438 -1.445312 4.707031 -2.289062 4.8125 -2.53125 C 5.050781 -3.113281 5.390625 -3.972656 5.828125 -5.109375 C 6.273438 -6.253906 6.609375 -7.117188 6.828125 -7.703125 C 7.023438 -8.242188 7.179688 -8.632812 7.296875 -8.875 C 7.421875 -9.125 7.65625 -9.210938 8 -9.140625 C 8.195312 -9.140625 8.296875 -9.039062 8.296875 -8.84375 C 8.296875 -8.664062 8.269531 -8.457031 8.21875 -8.21875 C 6.894531 -4.5 5.734375 -1.769531 4.734375 -0.03125 L 4.140625 0.875 C 3.847656 1.289062 3.421875 1.585938 2.859375 1.765625 Z M 2.859375 1.765625 "/></g></g></g><g fill="#565656" fill-opacity="1"><g transform="translate(161.421051, 36.744038)"><g><path d="M 5.546875 -1.46875 C 4.785156 -0.8125 3.921875 -0.59375 2.953125 -0.8125 C 1.984375 -1.03125 1.316406 -1.539062 0.953125 -2.34375 C 0.390625 -3.539062 0.0703125 -4.765625 0 -6.015625 L 0 -6.75 C -0.0703125 -8.6875 0.21875 -10.347656 0.875 -11.734375 C 1.21875 -12.441406 1.6875 -13.003906 2.28125 -13.421875 C 3.007812 -13.941406 3.816406 -14.03125 4.703125 -13.6875 C 5.015625 -13.5625 5.238281 -13.351562 5.375 -13.0625 C 5.507812 -12.769531 5.53125 -12.460938 5.4375 -12.140625 C 4.96875 -10.703125 4.023438 -9.703125 2.609375 -9.140625 C 2.191406 -8.992188 1.96875 -8.722656 1.9375 -8.328125 C 1.75 -6.171875 2.019531 -4.265625 2.75 -2.609375 C 3.019531 -1.992188 3.300781 -1.65625 3.59375 -1.59375 C 3.882812 -1.53125 4.265625 -1.71875 4.734375 -2.15625 C 5.203125 -2.601562 5.664062 -3.179688 6.125 -3.890625 C 7.03125 -5.210938 7.835938 -6.628906 8.546875 -8.140625 C 8.867188 -8.703125 9.085938 -9.070312 9.203125 -9.25 C 9.328125 -9.46875 9.5625 -9.539062 9.90625 -9.46875 C 10.125 -9.363281 10.207031 -9.253906 10.15625 -9.140625 C 10.132812 -8.941406 10.078125 -8.734375 9.984375 -8.515625 C 9.097656 -6.578125 8.128906 -4.828125 7.078125 -3.265625 C 6.585938 -2.554688 6.078125 -1.957031 5.546875 -1.46875 Z M 2.53125 -10.265625 L 2.671875 -10.265625 C 3.503906 -10.828125 4.007812 -11.539062 4.1875 -12.40625 C 4.1875 -12.519531 4.171875 -12.613281 4.140625 -12.6875 C 4.097656 -12.8125 4.039062 -12.882812 3.96875 -12.90625 C 3.863281 -12.957031 3.765625 -12.957031 3.671875 -12.90625 C 2.929688 -12.375 2.503906 -11.582031 2.390625 -10.53125 C 2.390625 -10.507812 2.410156 -10.457031 2.453125 -10.375 Z M 2.53125 -10.265625 "/></g></g></g><g fill="#565656" fill-opacity="1"><g transform="translate(170.114671, 36.744038)"><g><path d="M 1.609375 3.859375 C 1.171875 3.679688 0.84375 3.394531 0.625 3 C 0.40625 2.613281 0.34375 2.1875 0.4375 1.71875 C 0.582031 1.082031 0.851562 0.507812 1.25 0 C 1.707031 -0.613281 2.207031 -1.222656 2.75 -1.828125 C 3.039062 -2.148438 3.101562 -2.492188 2.9375 -2.859375 C 2.832031 -3.109375 2.632812 -3.585938 2.34375 -4.296875 C 2.050781 -5.003906 1.820312 -5.539062 1.65625 -5.90625 C 1.039062 -7.28125 0.648438 -8.269531 0.484375 -8.875 C 0.359375 -9.5625 0.296875 -9.96875 0.296875 -10.09375 C 0.265625 -10.84375 0.46875 -11.472656 0.90625 -11.984375 C 1.351562 -12.503906 1.957031 -12.8125 2.71875 -12.90625 L 3.1875 -12.90625 C 3.726562 -12.90625 4.28125 -12.75 4.84375 -12.4375 C 5.257812 -12.164062 5.546875 -11.8125 5.703125 -11.375 C 5.859375 -10.9375 5.851562 -10.507812 5.6875 -10.09375 C 5.613281 -9.894531 5.488281 -9.769531 5.3125 -9.71875 C 5.144531 -9.675781 4.976562 -9.710938 4.8125 -9.828125 C 4.632812 -9.929688 4.546875 -10.054688 4.546875 -10.203125 C 4.546875 -10.273438 4.539062 -10.421875 4.53125 -10.640625 C 4.519531 -10.859375 4.5 -11.03125 4.46875 -11.15625 C 4.445312 -11.375 4.335938 -11.59375 4.140625 -11.8125 C 3.921875 -12.101562 3.628906 -12.1875 3.265625 -12.0625 C 2.554688 -11.75 2.148438 -11.238281 2.046875 -10.53125 C 2.023438 -10.019531 2.085938 -9.503906 2.234375 -8.984375 C 2.722656 -7.617188 3.429688 -6.078125 4.359375 -4.359375 C 4.429688 -4.242188 4.535156 -4.1875 4.671875 -4.1875 C 4.804688 -4.1875 4.925781 -4.242188 5.03125 -4.359375 C 5.664062 -5.078125 6.519531 -6.21875 7.59375 -7.78125 C 7.789062 -8.125 8.109375 -8.613281 8.546875 -9.25 C 8.640625 -9.394531 8.820312 -9.46875 9.09375 -9.46875 C 9.238281 -9.46875 9.351562 -9.410156 9.4375 -9.296875 C 9.53125 -9.191406 9.550781 -9.078125 9.5 -8.953125 C 9.039062 -7.972656 8.46875 -7.03125 7.78125 -6.125 C 6.601562 -4.632812 5.90625 -3.765625 5.6875 -3.515625 C 5.195312 -2.953125 5.035156 -2.378906 5.203125 -1.796875 C 5.273438 -1.597656 5.335938 -1.289062 5.390625 -0.875 C 5.441406 -0.457031 5.476562 -0.203125 5.5 -0.109375 C 5.570312 0.617188 5.472656 1.351562 5.203125 2.09375 C 4.941406 2.851562 4.453125 3.394531 3.734375 3.71875 C 3.023438 4.050781 2.316406 4.097656 1.609375 3.859375 Z M 2.71875 3.125 C 2.914062 2.96875 3.0625 2.816406 3.15625 2.671875 C 3.445312 2.234375 3.617188 1.523438 3.671875 0.546875 L 3.40625 -0.515625 C 3.40625 -0.535156 3.367188 -0.554688 3.296875 -0.578125 C 3.222656 -0.609375 3.175781 -0.613281 3.15625 -0.59375 C 2.832031 -0.320312 2.613281 -0.0976562 2.5 0.078125 C 2.007812 0.734375 1.738281 1.34375 1.6875 1.90625 C 1.613281 2.300781 1.6875 2.644531 1.90625 2.9375 C 2.15625 3.300781 2.425781 3.363281 2.71875 3.125 Z M 2.71875 3.125 "/></g></g></g><g fill="#ff914d" fill-opacity="1"><g transform="translate(178.186017, 36.744038)"><g><path d="M 4.03125 1.71875 L 3.453125 1.5 C 2.816406 1.15625 2.460938 0.59375 2.390625 -0.1875 C 2.359375 -0.300781 2.40625 -0.398438 2.53125 -0.484375 C 2.65625 -0.578125 2.773438 -0.613281 2.890625 -0.59375 C 3.191406 -0.488281 3.363281 -0.375 3.40625 -0.25 C 3.457031 -0.15625 3.507812 -0.0078125 3.5625 0.1875 C 3.65625 0.457031 3.800781 0.59375 4 0.59375 C 4.125 0.59375 4.242188 0.503906 4.359375 0.328125 C 4.847656 -0.378906 5.117188 -1.222656 5.171875 -2.203125 C 5.242188 -3.148438 5.304688 -4.582031 5.359375 -6.5 C 5.359375 -6.863281 5.359375 -7.410156 5.359375 -8.140625 C 5.359375 -8.878906 5.367188 -9.429688 5.390625 -9.796875 C 5.390625 -10.554688 5.425781 -11.300781 5.5 -12.03125 C 5.5 -12.445312 5.597656 -12.800781 5.796875 -13.09375 C 5.816406 -13.125 5.894531 -13.226562 6.03125 -13.40625 C 6.164062 -13.59375 6.242188 -13.742188 6.265625 -13.859375 C 6.296875 -13.984375 6.289062 -14.097656 6.25 -14.203125 C 6.21875 -14.316406 6.148438 -14.4375 6.046875 -14.5625 C 5.953125 -14.6875 5.894531 -14.785156 5.875 -14.859375 C 5.65625 -15.617188 5.53125 -16.070312 5.5 -16.21875 C 5.300781 -17.4375 5.203125 -18.328125 5.203125 -18.890625 C 5.179688 -20.085938 5.0625 -21.519531 4.84375 -23.1875 C 4.71875 -24.164062 4.484375 -24.972656 4.140625 -25.609375 C 3.921875 -25.992188 3.691406 -26.273438 3.453125 -26.453125 C 3.304688 -26.578125 3.128906 -26.613281 2.921875 -26.5625 C 2.710938 -26.507812 2.582031 -26.398438 2.53125 -26.234375 L 2.421875 -25.46875 C 2.398438 -25.164062 2.226562 -25.015625 1.90625 -25.015625 C 1.664062 -24.992188 1.460938 -25.082031 1.296875 -25.28125 C 1.140625 -25.476562 1.070312 -25.707031 1.09375 -25.96875 C 1.164062 -26.488281 1.445312 -26.84375 1.9375 -27.03125 C 3.550781 -27.71875 4.835938 -27.34375 5.796875 -25.90625 C 6.210938 -25.269531 6.492188 -24.582031 6.640625 -23.84375 C 6.835938 -22.675781 6.957031 -21.796875 7 -21.203125 C 7.082031 -20.222656 7.171875 -18.695312 7.265625 -16.625 C 7.359375 -15.539062 7.613281 -14.679688 8.03125 -14.046875 C 8.25 -13.703125 8.1875 -13.457031 7.84375 -13.3125 C 7.4375 -13.09375 7.207031 -12.765625 7.15625 -12.328125 C 7.101562 -11.492188 7.078125 -10.867188 7.078125 -10.453125 L 7.078125 -7.265625 C 7.023438 -5.503906 6.976562 -4.179688 6.9375 -3.296875 C 6.90625 -2.515625 6.804688 -1.6875 6.640625 -0.8125 C 6.492188 0.0507812 6.148438 0.765625 5.609375 1.328125 C 5.148438 1.835938 4.625 1.96875 4.03125 1.71875 Z M 4.03125 1.71875 "/></g></g></g></svg>